<svg width="80" height="92" viewBox="0 0 80 92" fill="none" xmlns="http://www.w3.org/2000/svg">
<g id="Data">
<path id="Vector" d="M79.777 34.8555H0.225607V70.5425C-0.0851216 72.5704 0.798258 74.765 2.90991 75.8582L31.5815 90.7088C34.2984 92.1158 37.5082 92.2008 40.2949 90.9393L76.8519 74.3924C78.5536 73.6227 79.533 72.1341 79.777 70.5425V34.8555Z" fill="#2B50FF"/>
<path id="Vector_2" d="M36.1722 91.9985C34.5731 91.9985 32.9771 91.6161 31.5064 90.8546L2.83483 76.0039C0.806147 74.9532 -0.280595 72.806 0.0626701 70.5297V34.8558C0.0626701 34.8117 0.078945 34.7708 0.109855 34.7398C0.140765 34.7087 0.18143 34.6924 0.225355 34.6924H79.7767C79.8662 34.6924 79.9394 34.7659 79.9394 34.8558V70.5428C79.9394 70.5559 79.9394 70.5689 79.9345 70.5804C79.658 72.355 78.5598 73.7995 76.9183 74.5431L40.3614 91.0899C39.0209 91.6962 37.5957 91.9985 36.1722 92.0001V91.9985ZM0.38804 35.0192V70.5428C0.38804 70.551 0.38804 70.5591 0.38804 70.5673C0.0610433 72.7063 1.07945 74.7261 2.98612 75.7131L31.6577 90.5637C34.3469 91.956 37.4721 92.0393 40.2296 90.7909L76.7866 74.244C78.3272 73.5463 79.3586 72.1916 79.6157 70.5265V35.0192H0.389669H0.38804Z" fill="#0A0A0A"/>
<path id="Vector_3" d="M40.2948 90.9392L76.8518 74.3924C78.5535 73.6227 79.5328 72.1341 79.7768 70.5425V34.8555H36.5498V91.82C37.8285 91.7726 39.1007 91.4801 40.2964 90.9392H40.2948Z" fill="#0A0A0A"/>
<path id="Vector_4" d="M76.8521 38.707L40.2952 55.2538C37.5084 56.5153 34.2986 56.4304 31.5817 55.0234L2.91013 40.1727C-0.859286 38.22 -0.716127 32.7572 3.1509 31.0071L39.7079 14.4603C42.4947 13.1987 45.7044 13.2837 48.4213 14.6907L77.0929 29.5413C80.8623 31.4941 80.7191 36.9568 76.8521 38.707Z" fill="#F67BE8"/>
<path id="Vector_5" d="M36.1726 56.3114C34.5735 56.3114 32.9775 55.929 31.5069 55.1675L2.83523 40.3169C1.03431 39.3838 -0.0508058 37.5422 0.00288032 35.5077C0.0565664 33.4733 1.23604 31.6921 3.08252 30.8555L39.6395 14.3086C42.4897 13.0193 45.7174 13.1043 48.4944 14.5439L77.166 29.3946C78.9653 30.3277 80.0505 32.1693 79.9984 34.2037C79.9447 36.2382 78.7652 38.0194 76.9187 38.856L40.3618 55.4029C39.0213 56.0091 37.5961 56.313 36.1726 56.313V56.3114ZM43.8286 13.7285C42.4523 13.7285 41.0727 14.021 39.7745 14.6093L3.21754 31.1562C1.48657 31.9405 0.378683 33.6122 0.32825 35.5192C0.277818 37.4262 1.29622 39.1551 2.98326 40.0293L31.6549 54.8799C34.3441 56.2722 37.4693 56.3555 40.2268 55.1071L76.7837 38.5602C78.5147 37.7759 79.6226 36.1042 79.673 34.1972C79.7235 32.2902 78.705 30.5613 77.018 29.6871L48.3464 14.8364C46.9229 14.0995 45.3774 13.7285 43.8286 13.7285Z" fill="#0A0A0A"/>
<path id="Vector_6" d="M35.2906 91.9002C35.2011 91.9002 35.1279 91.8266 35.1279 91.7368V56.1429C35.1279 56.053 35.2011 55.9795 35.2906 55.9795C35.3801 55.9795 35.4533 56.053 35.4533 56.1429V91.7368C35.4533 91.8266 35.3801 91.9002 35.2906 91.9002Z" fill="#0A0A0A"/>
<path id="Vector_7" d="M22.0822 29.1854L6.43846 36.6205C5.34522 37.1402 3.86153 36.7562 3.12456 35.7626C2.3876 34.7691 2.67718 33.5419 3.77042 33.0222L19.4142 25.5871C20.5074 25.0675 21.9912 25.4515 22.7281 26.445C23.4651 27.4385 23.1755 28.6658 22.0822 29.1854Z" fill="white"/>
<path id="Vector_8" d="M6.5363 35.2381L6.11656 34.671C5.96852 34.4717 5.67081 34.3949 5.45119 34.4978C5.23156 34.6024 5.17301 34.8491 5.32105 35.0485L5.74077 35.6155C5.88881 35.8149 6.18652 35.8917 6.40615 35.7888C6.62577 35.6858 6.68435 35.4374 6.5363 35.2381Z" fill="#F67BE8"/>
<path id="Vector_9" d="M7.08722 33.7198L6.67399 33.9159C6.28192 34.1022 6.17943 34.5418 6.44297 34.898C6.70652 35.2543 7.23851 35.3915 7.63058 35.2052L8.04381 35.0092C8.43588 34.8229 8.53836 34.3833 8.27481 34.0271C8.01126 33.6708 7.47929 33.5336 7.08722 33.7198Z" fill="#2B50FF"/>
<path id="Vector_10" d="M4.49792 34.1597L4.50281 34.1662C4.6964 34.426 5.08359 34.5273 5.36991 34.3917L5.84985 34.1629C6.13617 34.0273 6.21099 33.7054 6.01902 33.4456L6.01414 33.439C5.82054 33.1792 5.43336 33.0779 5.14704 33.2135L4.66712 33.4423C4.3808 33.5779 4.30596 33.8999 4.49792 34.1597Z" fill="#1ADEAD"/>
<path id="Vector_11" d="M7.00889 33.6121C7.29684 33.4748 7.37331 33.1513 7.17972 32.8898C6.98612 32.6284 6.59405 32.5271 6.3061 32.6627C6.01815 32.8 5.94168 33.1235 6.13527 33.385C6.32887 33.6464 6.72094 33.7477 7.00889 33.6121Z" fill="#C7EE1A"/>
<path id="Vector_12" d="M9.08372 33.6678L8.44275 32.8034C8.28658 32.5942 8.34839 32.3344 8.5794 32.2249L8.98286 32.0338C9.26268 31.9014 9.4937 31.9373 9.63848 32.1318C9.75236 32.2854 9.73121 32.421 9.51321 32.5452L9.55389 32.6008C9.81906 32.4978 10.0127 32.5354 10.1379 32.7021C10.2941 32.9129 10.2518 33.1155 9.94433 33.261L9.08372 33.6695V33.6678ZM8.8332 32.7724L9.31311 32.5436C9.42537 32.4897 9.44653 32.4325 9.38308 32.3475C9.31963 32.2625 9.24316 32.2478 9.12928 32.3034L8.65425 32.5289L8.83483 32.7724H8.8332ZM9.20413 33.2708L9.72146 33.0256C9.84672 32.9668 9.87112 32.9064 9.79628 32.8067C9.72145 32.707 9.64662 32.6972 9.52136 32.756L9.00401 33.0011L9.20413 33.2708Z" fill="#0A0A0A"/>
<path id="Vector_13" d="M10.1292 32.5414C9.90961 32.244 10.0007 31.9466 10.3375 31.7864C10.6742 31.6263 11.0142 31.6819 11.229 31.9727C11.2534 32.0054 11.268 32.0315 11.2875 32.0659L10.4546 32.4613C10.5685 32.6002 10.6872 32.6264 10.8857 32.5332C11.0679 32.4466 11.0988 32.3747 11.0403 32.2946L11.0273 32.2767L11.3331 32.1312L11.3477 32.1508C11.4974 32.3535 11.3868 32.5969 11.0614 32.7522C10.7198 32.914 10.3749 32.8731 10.1292 32.543V32.5414ZM10.3505 32.3142L10.8938 32.0561C10.7946 31.9368 10.6726 31.9221 10.4936 32.007C10.3147 32.092 10.2756 32.1868 10.3505 32.3142Z" fill="#0A0A0A"/>
<path id="Vector_14" d="M11.7308 32.4093L11.041 31.4795L11.3257 31.3438L11.5372 31.6298L11.5974 31.6004C11.5079 31.4321 11.4787 31.2458 11.7471 31.1183C12.0139 30.9909 12.2807 31.0856 12.4336 31.2915L12.8631 31.87L12.5573 32.0154L12.2254 31.5677C12.1147 31.419 12.0009 31.3879 11.8138 31.4778C11.6267 31.5677 11.6023 31.6739 11.7194 31.8308L12.0399 32.2622L11.7341 32.4076L11.7308 32.4093Z" fill="#0A0A0A"/>
<path id="Vector_15" d="M13.4848 31.5756C13.2456 31.6899 13.026 31.6556 12.8519 31.4219L12.5819 31.0575L12.4208 31.1343L12.25 30.9039L12.4111 30.8271L12.2776 30.6474L12.5835 30.502L12.7169 30.6817L13.0472 30.5248L13.218 30.7552L12.8877 30.9121L13.1334 31.2438C13.2017 31.337 13.2586 31.3419 13.3676 31.2912L13.5515 31.2046L13.7369 31.4546L13.4831 31.5756H13.4848Z" fill="#0A0A0A"/>
<path id="Vector_16" d="M13.4694 30.9545C13.2498 30.657 13.3441 30.358 13.6939 30.193C14.0437 30.0263 14.4179 30.1031 14.6375 30.4005C14.8571 30.6979 14.7611 30.9953 14.4113 31.1603C14.0616 31.3254 13.6874 31.2486 13.4694 30.9561V30.9545ZM14.3333 30.5443C14.2129 30.3809 14.0827 30.34 13.8761 30.4381C13.6695 30.5361 13.6532 30.6472 13.7736 30.8106C13.894 30.9741 14.0193 31.0116 14.2291 30.9136C14.439 30.8156 14.4553 30.7077 14.3349 30.5443H14.3333Z" fill="#0A0A0A"/>
<path id="Vector_17" d="M15.4158 30.6581L14.7748 29.7936C14.6186 29.5845 14.6804 29.3247 14.9114 29.2152L15.3149 29.024C15.5947 28.8916 15.8257 28.9276 15.9705 29.122C16.0844 29.2756 16.0632 29.4113 15.8452 29.5355L15.8859 29.591C16.1511 29.4881 16.3447 29.5257 16.47 29.6923C16.6261 29.9031 16.5822 30.1058 16.2764 30.2512L15.4158 30.6597V30.6581ZM15.1652 29.7626L15.6451 29.5338C15.7574 29.4799 15.7785 29.4227 15.7151 29.3377C15.6516 29.2528 15.5752 29.2381 15.4613 29.2936L14.9846 29.5191L15.1652 29.7626ZM15.5361 30.2626L16.0535 30.0175C16.1788 29.9587 16.2032 29.8982 16.1283 29.7985C16.0535 29.6989 15.9787 29.6891 15.8534 29.7479L15.336 29.993L15.5361 30.2626Z" fill="#0A0A0A"/>
<path id="Vector_18" d="M16.6278 29.7706C16.5253 29.6334 16.5741 29.4945 16.7775 29.3703L17.1858 29.1203L17.1598 29.0843C17.0703 28.9634 16.9857 28.9585 16.823 29.0353C16.6603 29.1121 16.6327 29.1758 16.7108 29.282L16.7156 29.2902L16.4065 29.4373L16.4017 29.4324C16.2308 29.202 16.3252 28.9421 16.662 28.782C16.9987 28.6219 17.2834 28.7036 17.4624 28.9454L17.8675 29.4912L17.5811 29.6268L17.4233 29.4128L17.3647 29.4405C17.4249 29.6072 17.3892 29.7428 17.1614 29.8507C16.9353 29.9585 16.74 29.9259 16.6229 29.7706H16.6278ZM17.1077 29.6137C17.3159 29.5141 17.3957 29.4177 17.3062 29.2804L16.9776 29.4863C16.9076 29.5271 16.8897 29.5615 16.9222 29.6056C16.9597 29.6562 17.0182 29.6562 17.1077 29.6137Z" fill="#0A0A0A"/>
<path id="Vector_19" d="M18.4936 29.1947C18.2544 29.3091 18.0348 29.2748 17.8607 29.0411L17.5907 28.6767L17.4296 28.7535L17.2588 28.5231L17.4199 28.4463L17.2865 28.2665L17.5923 28.1211L17.7257 28.3008L18.0559 28.144L18.2268 28.3744L17.8965 28.5313L18.1422 28.863C18.2105 28.9561 18.2675 28.961 18.3765 28.9104L18.5603 28.8238L18.7457 29.0738L18.492 29.1947H18.4936Z" fill="#0A0A0A"/>
<path id="Vector_20" d="M18.485 28.5707C18.2654 28.2733 18.35 27.9792 18.7014 27.8125C19.03 27.6556 19.3733 27.7095 19.5522 27.9498L19.5717 27.9759L19.2675 28.1197L19.2561 28.105C19.1683 27.9857 19.0398 27.989 18.8803 28.0641C18.6981 28.1508 18.6607 28.2521 18.7876 28.4236C18.9145 28.5952 19.043 28.6165 19.2252 28.5299C19.3846 28.4547 19.4481 28.3665 19.3602 28.2472L19.3489 28.2325L19.6531 28.0887L19.6726 28.1148C19.8499 28.355 19.7458 28.623 19.4172 28.7782C19.0658 28.9449 18.7014 28.8632 18.4834 28.5691L18.485 28.5707Z" fill="#0A0A0A"/>
<path id="Vector_21" d="M20.0924 28.4349L19.1699 27.1913L19.4758 27.0459L19.9199 27.644L19.9785 27.6162C19.8939 27.443 19.8662 27.26 20.1265 27.1358C20.4014 27.005 20.6585 27.1047 20.8179 27.3188L21.2409 27.8891L20.9351 28.0345L20.6032 27.5868C20.4877 27.4315 20.3722 27.4103 20.1802 27.5018C19.9736 27.5999 19.9671 27.7061 20.0826 27.8613L20.3998 28.2894L20.094 28.4349H20.0924Z" fill="#0A0A0A"/>
<path id="Vector_22" d="M31.5811 55.022C34.298 56.4289 37.5078 56.5139 40.2945 55.2524L76.8515 38.7055C80.7185 36.9554 80.8617 31.4926 77.0923 29.5399L71.4715 26.6279L21.2197 49.654L31.5811 55.0203V55.022Z" fill="#1ADEAD"/>
<path id="Vector_23" d="M36.1727 56.3112C34.5735 56.3112 32.9776 55.9288 31.5069 55.1673L21.1455 49.801C21.0902 49.7715 21.056 49.7143 21.0577 49.6523C21.0577 49.5902 21.0967 49.533 21.152 49.5068L71.4038 26.4808C71.4494 26.4595 71.5014 26.4612 71.5453 26.4841L77.1661 29.396C78.967 30.3291 80.0522 32.1707 79.9985 34.2052C79.9448 36.2396 78.7653 38.0208 76.9188 38.8574L40.3619 55.4043C39.0213 56.0105 37.5962 56.3145 36.1727 56.3145V56.3112ZM31.6566 54.8765C34.3458 56.2687 37.4709 56.352 40.2285 55.1036L76.7855 38.5567C78.5181 37.7724 79.6243 36.1007 79.6747 34.1937C79.7252 32.2867 78.7068 30.5579 77.0197 29.6836L71.4689 26.8092L21.5945 49.6637L31.6582 54.8765H31.6566Z" fill="#0A0A0A"/>
<path id="Vector_24" d="M56.1223 18.6795C56.1223 18.6795 55.6668 27.1572 52.2683 28.4106C46.7809 30.4352 50.1648 -2.55717 43.3564 0.341711C36.5481 3.2406 38.8793 30.4973 34.4445 32.6527C30.0097 34.8097 30.7678 23.6978 25.5375 25.6751C20.3072 27.6523 15.1826 46.5261 15.1826 46.5261L21.2199 49.6522L71.4716 26.6261L56.1239 18.6763L56.1223 18.6795Z" fill="white"/>
<path id="Vector_25" d="M21.22 49.8189C21.194 49.8189 21.1696 49.8124 21.1452 49.8009L15.1079 46.6749C15.0396 46.6389 15.0055 46.5605 15.025 46.487C15.2348 45.7124 20.2325 27.5102 25.4791 25.5248C28.318 24.4512 29.4942 27.0674 30.5305 29.3764C31.2089 30.8863 31.8499 32.3128 32.8553 32.6805C33.3027 32.8439 33.7988 32.7867 34.3715 32.5073C36.2668 31.5857 36.9077 25.5542 37.5878 19.1698C38.4516 11.0451 39.431 1.83696 43.2915 0.193059C43.9423 -0.0831036 44.5393 -0.0634945 45.0648 0.255154C47.3603 1.6376 47.9801 8.5825 48.5804 15.297C49.0994 21.1176 49.6379 27.1377 51.281 28.1835C51.5608 28.3616 51.865 28.3861 52.2099 28.2603C55.4718 27.0576 55.9533 18.7564 55.9582 18.673C55.9614 18.6175 55.9924 18.5668 56.0395 18.5407C56.0867 18.5129 56.1469 18.5113 56.1957 18.5374L71.5434 26.4873C71.5987 26.5167 71.6329 26.5739 71.6312 26.636C71.6312 26.6981 71.5922 26.7553 71.5369 26.7814L21.2851 49.8075C21.2639 49.8173 21.2412 49.8222 21.2168 49.8222L21.22 49.8189ZM15.3748 46.4445L21.2233 49.4741L71.0976 26.6196L56.2689 18.9394C56.1632 20.3888 55.4913 27.3958 52.3238 28.5642C51.8845 28.726 51.4762 28.69 51.1085 28.458C49.3288 27.3256 48.8082 21.4968 48.2567 15.3248C47.6921 9.00083 47.0528 1.83206 44.8972 0.534584C44.458 0.269861 43.9748 0.256788 43.4184 0.493732C39.7336 2.06246 38.7656 11.1693 37.9115 19.2041C37.1924 25.9627 36.5726 31.8014 34.5147 32.8014C33.8574 33.1201 33.2799 33.1822 32.7446 32.9861C31.6107 32.5727 30.9421 31.0856 30.2344 29.5104C29.2079 27.2259 28.1472 24.8646 25.593 25.8304C20.7222 27.672 15.8352 44.7875 15.3731 46.4445H15.3748Z" fill="#0A0A0A"/>
<path id="Vector_26" d="M57.6974 47.5397C57.6713 47.5397 57.6437 47.5331 57.6193 47.5201L43.277 39.6552C43.2249 39.6258 43.1924 39.5718 43.1924 39.5114V0.34212C43.1924 0.252245 43.2656 0.178711 43.3551 0.178711C43.4445 0.178711 43.5178 0.252245 43.5178 0.34212V39.415L57.7755 47.2325C57.8535 47.275 57.8828 47.3746 57.8405 47.4547C57.8112 47.5086 57.7559 47.5397 57.6974 47.5397Z" fill="#0A0A0A"/>
<path id="Vector_27" d="M48.7872 51.5856C48.7612 51.5856 48.7336 51.5791 48.7091 51.566L34.3668 43.7011C34.3148 43.6717 34.2822 43.6178 34.2822 43.5573V32.6546C34.2822 32.5647 34.3554 32.4912 34.4449 32.4912C34.5344 32.4912 34.6076 32.5647 34.6076 32.6546V43.4609L48.8653 51.2784C48.9434 51.3209 48.9727 51.4206 48.9304 51.5006C48.9011 51.5546 48.8458 51.5856 48.7872 51.5856Z" fill="#0A0A0A"/>
<path id="Vector_28" d="M39.8751 55.6317C39.8491 55.6317 39.8214 55.6251 39.797 55.6121L25.4547 47.7472C25.4026 47.7178 25.3701 47.6638 25.3701 47.6034V25.6771C25.3701 25.5872 25.4433 25.5137 25.5328 25.5137C25.6223 25.5137 25.6955 25.5872 25.6955 25.6771V47.5053L39.9532 55.3228C40.0313 55.3653 40.0606 55.465 40.0183 55.5451C39.989 55.599 39.9337 55.63 39.8751 55.63V55.6317Z" fill="#0A0A0A"/>
<path id="Vector_29" d="M66.6095 43.4932C66.5835 43.4932 66.5558 43.4866 66.5314 43.4736L52.1891 35.6087C52.137 35.5793 52.1045 35.5253 52.1045 35.4649V28.4105C52.1045 28.3206 52.1777 28.2471 52.2672 28.2471C52.3567 28.2471 52.4299 28.3206 52.4299 28.4105V35.3685L66.6876 43.186C66.7657 43.2285 66.795 43.3281 66.7527 43.4082C66.7234 43.4621 66.6681 43.4932 66.6095 43.4932Z" fill="#0A0A0A"/>
<path id="Vector_30" d="M75.5207 39.4477C75.4946 39.4477 75.467 39.4411 75.4426 39.4281L61.1002 31.5632C61.0482 31.5338 61.0156 31.4798 61.0156 31.4194V21.4759C61.0156 21.386 61.0888 21.3125 61.1783 21.3125C61.2678 21.3125 61.341 21.386 61.341 21.4759V31.3213L75.5987 39.1388C75.6768 39.1813 75.7061 39.281 75.6638 39.3611C75.6345 39.415 75.5792 39.4461 75.5207 39.4461V39.4477Z" fill="#0A0A0A"/>
</g>
</svg>
