<svg width="29" height="28" viewBox="0 0 29 28" fill="none" xmlns="http://www.w3.org/2000/svg">
<rect x="0.333496" width="28" height="28" rx="4" fill="#2B50FF"/>
<path d="M11.5396 19.4061V15.8635C11.5396 14.6156 10.5279 13.6039 9.2799 13.6039C8.03193 13.6039 7.02025 14.6156 7.02025 15.8635V19.4061C7.02025 20.654 8.03193 21.6657 9.2799 21.6657C10.5279 21.6657 11.5396 20.654 11.5396 19.4061Z" fill="white"/>
<path d="M18.5905 13.6052H16.2428C14.0163 13.6052 12.2114 15.4099 12.2114 17.6361C12.2114 19.8624 14.0163 21.6671 16.2428 21.6671H18.5905C20.817 21.6671 22.6219 19.8624 22.6219 17.6361C22.6219 15.4099 20.817 13.6052 18.5905 13.6052Z" fill="white"/>
<path d="M6.3335 9.94639V9.98657C6.3335 11.6139 7.6527 12.9331 9.28003 12.9331H12.0065C13.6339 12.9331 14.9531 11.6139 14.9531 9.98657V9.94639C14.9531 8.31906 13.6339 6.99986 12.0065 6.99986H9.28003C7.6527 6.99986 6.3335 8.31906 6.3335 9.94639Z" fill="white"/>
<path d="M18.5902 12.9333C20.2286 12.9333 21.5568 11.605 21.5568 9.96663C21.5568 8.3282 20.2286 7 18.5902 7C16.9517 7 15.6235 8.3282 15.6235 9.96663C15.6235 11.605 16.9517 12.9333 18.5902 12.9333Z" fill="white"/>
</svg>
