<svg width="24" height="24" viewBox="0 0 24 24" fill="none" xmlns="http://www.w3.org/2000/svg">
<rect width="24" height="24" rx="4" fill="#E0E8FF" fill-opacity="0.1"/>
<g clip-path="url(#clip0_3619_3158)">
<path d="M9.3335 9.33301V7.46634C9.3335 6.7196 9.3335 6.34624 9.47882 6.06102C9.60665 5.81014 9.81063 5.60616 10.0615 5.47833C10.3467 5.33301 10.7201 5.33301 11.4668 5.33301H16.5335C17.2802 5.33301 17.6536 5.33301 17.9388 5.47833C18.1897 5.60616 18.3937 5.81014 18.5215 6.06102C18.6668 6.34624 18.6668 6.7196 18.6668 7.46634V12.533C18.6668 13.2797 18.6668 13.6531 18.5215 13.9383C18.3937 14.1892 18.1897 14.3932 17.9388 14.521C17.6536 14.6663 17.2802 14.6663 16.5335 14.6663H14.6668M7.46683 18.6663H12.5335C13.2802 18.6663 13.6536 18.6663 13.9388 18.521C14.1897 18.3932 14.3937 18.1892 14.5215 17.9383C14.6668 17.6531 14.6668 17.2797 14.6668 16.533V11.4663C14.6668 10.7196 14.6668 10.3462 14.5215 10.061C14.3937 9.81014 14.1897 9.60616 13.9388 9.47833C13.6536 9.33301 13.2802 9.33301 12.5335 9.33301H7.46683C6.72009 9.33301 6.34672 9.33301 6.06151 9.47833C5.81063 9.60616 5.60665 9.81014 5.47882 10.061C5.3335 10.3462 5.3335 10.7196 5.3335 11.4663V16.533C5.3335 17.2797 5.3335 17.6531 5.47882 17.9383C5.60665 18.1892 5.81063 18.3932 6.06151 18.521C6.34672 18.6663 6.72009 18.6663 7.46683 18.6663Z" stroke="white" stroke-width="1.5" stroke-linecap="round" stroke-linejoin="round"/>
</g>
<defs>
<clipPath id="clip0_3619_3158">
<rect width="16" height="16" fill="white" transform="translate(4 4)"/>
</clipPath>
</defs>
</svg>
