<svg width="16" height="16" viewBox="0 0 16 16" fill="none" xmlns="http://www.w3.org/2000/svg">
<path d="M5.3335 10.666H3.46683C2.72009 10.666 2.34672 10.666 2.06151 10.5207C1.81063 10.3929 1.60665 10.1889 1.47882 9.938C1.3335 9.65279 1.3335 9.27942 1.3335 8.53268L1.3335 3.46602C1.3335 2.71928 1.3335 2.34591 1.47882 2.06069C1.60665 1.80981 1.81063 1.60584 2.06151 1.47801C2.34672 1.33268 2.72009 1.33268 3.46683 1.33268H8.5335C9.28023 1.33268 9.6536 1.33268 9.93882 1.47801C10.1897 1.60584 10.3937 1.80981 10.5215 2.06069C10.6668 2.34591 10.6668 2.71928 10.6668 3.46602V5.33268M14.6668 12.5327V7.46602C14.6668 6.71928 14.6668 6.34591 14.5215 6.06069C14.3937 5.80981 14.1897 5.60584 13.9388 5.47801C13.6536 5.33268 13.2802 5.33268 12.5335 5.33268H7.46683C6.72009 5.33268 6.34672 5.33268 6.06151 5.47801C5.81063 5.60584 5.60665 5.80981 5.47882 6.06069C5.3335 6.34591 5.3335 6.71928 5.3335 7.46602V12.5327C5.3335 13.2794 5.3335 13.6528 5.47882 13.938C5.60665 14.1889 5.81063 14.3929 6.06151 14.5207C6.34672 14.666 6.72009 14.666 7.46683 14.666H12.5335C13.2802 14.666 13.6536 14.666 13.9388 14.5207C14.1897 14.3929 14.3937 14.1889 14.5215 13.938C14.6668 13.6528 14.6668 13.2794 14.6668 12.5327Z" stroke="#757575" stroke-width="1.5" stroke-linecap="round" stroke-linejoin="round"/>
</svg>
