<svg width="86" height="86" viewBox="0 0 86 86" fill="none" xmlns="http://www.w3.org/2000/svg">
<path d="M49.0655 77.9053C48.1849 77.9053 47.3219 77.5921 46.5706 76.9986L9.65115 47.8359C8.61853 47.0201 8.02951 45.6023 8.07578 44.0416C8.12205 42.4819 8.79332 41.1257 9.87148 40.4139L34.9518 23.8569C35.6223 23.4139 36.3751 23.1802 37.1287 23.1802C37.8822 23.1802 38.6908 23.4319 39.3819 23.908L76.1817 49.2944C77.2283 50.0165 77.8797 51.3605 77.9245 52.8899C77.9693 54.4194 77.3972 55.822 76.3954 56.6435L51.6287 76.9437C50.8619 77.5722 49.9755 77.9044 49.0662 77.9044L49.0655 77.9053Z" fill="#2B50FF"/>
<path d="M49.0658 77.9999C48.1713 77.9999 47.2951 77.6819 46.5327 77.079L9.61253 47.9173C8.55714 47.0835 7.9549 45.6335 8.00264 44.0388C8.04964 42.444 8.73634 41.0575 9.838 40.3306L34.9183 23.7735C35.5991 23.324 36.3637 23.0864 37.1282 23.0864C37.8928 23.0864 38.7146 23.342 39.416 23.8256L76.2158 49.212C77.2858 49.9502 77.952 51.3245 77.9975 52.887C78.0431 54.4496 77.4592 55.8844 76.4346 56.7239L51.6679 77.0241C50.8887 77.663 49.989 77.9999 49.0665 77.9999H49.0658ZM37.1282 23.2757C36.3865 23.2757 35.6454 23.5057 34.9852 23.942L9.90483 40.4991C8.85092 41.1947 8.19433 42.5207 8.14879 44.0463C8.10326 45.572 8.67979 46.9585 9.68891 47.7564L46.6091 76.9181C47.3487 77.5021 48.1977 77.8106 49.0658 77.8106C49.9339 77.8106 50.8329 77.4832 51.5886 76.8642L76.3553 56.564C77.3351 55.7614 77.894 54.389 77.8499 52.8937C77.8066 51.3983 77.1691 50.0846 76.146 49.3786L39.3463 23.9922C38.6662 23.5227 37.8987 23.2748 37.1275 23.2748L37.1282 23.2757Z" fill="#0A0A0A"/>
<path d="M49.0655 76.6749C48.1849 76.6749 47.3219 76.3616 46.5706 75.7682L9.65115 46.6055C8.61853 45.7896 8.02951 44.3719 8.07578 42.8112C8.12205 41.2514 8.79332 39.8952 9.87148 39.1835L34.9518 22.6264C35.6223 22.1835 36.3751 21.9497 37.1287 21.9497C37.8822 21.9497 38.6908 22.2015 39.3819 22.6775L76.1817 48.0639C77.2283 48.7861 77.8797 50.13 77.9245 51.6595C77.9693 53.1889 77.3972 54.5915 76.3954 55.413L51.6287 75.7133C50.8619 76.3417 49.9755 76.6739 49.0662 76.6739L49.0655 76.6749Z" fill="white"/>
<path d="M49.0658 76.7695C48.1713 76.7695 47.2951 76.4514 46.5327 75.8486L9.61253 46.6868C8.55714 45.852 7.9549 44.403 8.00264 42.8083C8.05038 41.2135 8.73634 39.827 9.838 39.1001L34.9183 22.5431C35.5991 22.0935 36.363 21.856 37.1282 21.856C37.8935 21.856 38.7146 22.1115 39.416 22.5951L76.2158 47.9815C77.2858 48.7198 77.952 50.094 77.9975 51.6566C78.0431 53.2191 77.4592 54.6539 76.4346 55.4934L51.6679 75.7937C50.8894 76.4325 49.9897 76.7695 49.0665 76.7695H49.0658ZM37.1282 22.0452C36.3865 22.0452 35.6454 22.2752 34.9852 22.7115L9.90483 39.2686C8.85092 39.9642 8.19433 41.2902 8.14879 42.8159C8.10326 44.3415 8.67979 45.7281 9.68891 46.5259L46.6091 75.6886C47.3487 76.2726 48.1977 76.5811 49.0658 76.5811C49.9339 76.5811 50.8336 76.2536 51.5886 75.6347L76.3553 55.3344C77.3351 54.5319 77.894 53.1595 77.8499 51.6641C77.8066 50.1688 77.1691 48.8551 76.146 48.1491L39.3463 22.7617C38.6662 22.2923 37.8994 22.0443 37.1275 22.0443L37.1282 22.0452Z" fill="#0A0A0A"/>
<path d="M39.0342 23.5131L75.834 48.8995C77.568 50.0958 77.6598 53.255 76.0007 54.6151L51.234 74.9153C49.9318 75.9829 48.2712 76.0009 46.9551 74.9607L10.0349 45.799C8.32444 44.4484 8.42065 41.2049 10.2061 40.0266L35.2864 23.4696C36.4659 22.6906 37.8665 22.7077 39.0342 23.5131Z" fill="#1ADEAD"/>
<path d="M49.0652 75.8173C48.3183 75.8173 47.5713 75.5589 46.9162 75.0421L9.99675 45.8794C9.1705 45.2264 8.69899 44.0925 8.73645 42.8442C8.77317 41.5958 9.31078 40.5112 10.173 39.9414L35.2533 23.3844C36.4541 22.5913 37.8804 22.6083 39.0695 23.4289L75.8692 48.8153C76.7065 49.3926 77.2279 50.4678 77.2632 51.6915C77.2992 52.9143 76.8416 54.0377 76.0403 54.6946L51.2736 74.9948C50.6053 75.5428 49.8356 75.8173 49.0659 75.8173H49.0652ZM37.1284 22.9916C36.5085 22.9916 35.8879 23.179 35.3202 23.5538L10.2398 40.1108C9.42535 40.6484 8.91786 41.6734 8.88334 42.8517C8.84808 44.0301 9.29315 45.1014 10.0739 45.7185L46.9941 74.8803C48.2771 75.8939 49.9259 75.8759 51.195 74.8348L75.9618 54.5346C76.719 53.9138 77.1508 52.8537 77.117 51.6991C77.0833 50.5435 76.5912 49.5289 75.8002 48.9828L38.9997 23.5964C38.4158 23.1932 37.7717 22.9916 37.1276 22.9916H37.1284Z" fill="#0A0A0A"/>
<path d="M14.7908 44.761C16.4713 44.761 17.8336 43.7326 17.8336 42.464C17.8336 41.1954 16.4713 40.167 14.7908 40.167C13.1103 40.167 11.748 41.1954 11.748 42.464C11.748 43.7326 13.1103 44.761 14.7908 44.761Z" fill="#0A0A0A"/>
<path d="M65.2074 65.4644L63.9911 66.4686C63.9081 66.5377 63.8406 66.4903 63.8398 66.3626C63.8398 66.2357 63.9067 66.0767 63.9904 66.0086L65.2066 65.0044C65.2896 64.9353 65.3572 64.9827 65.3579 65.1104C65.3579 65.2372 65.2911 65.3962 65.2074 65.4644Z" fill="#0A0A0A"/>
<path d="M66.0818 64.5114C66.0818 64.5927 66.0385 64.694 65.9856 64.7385C65.9327 64.783 65.8894 64.7517 65.8887 64.6713C65.8879 64.5909 65.932 64.4886 65.9849 64.4442C66.0378 64.3997 66.0811 64.4309 66.0818 64.5114Z" fill="#0A0A0A"/>
<path d="M66.4197 64.233C66.4197 64.3144 66.3764 64.4157 66.3235 64.4602C66.2706 64.5047 66.2273 64.4734 66.2266 64.393C66.2258 64.3125 66.2699 64.2103 66.3228 64.1658C66.3757 64.1214 66.419 64.1526 66.4197 64.233Z" fill="#0A0A0A"/>
<path d="M66.7566 63.9547C66.7566 64.0361 66.7133 64.1374 66.6604 64.1819C66.6075 64.2254 66.5642 64.1951 66.5635 64.1147C66.5628 64.0342 66.6068 63.932 66.6597 63.8875C66.7126 63.843 66.7559 63.8743 66.7566 63.9547Z" fill="#0A0A0A"/>
<path d="M67.0945 63.6764C67.0945 63.7578 67.0512 63.8591 66.9983 63.9035C66.9454 63.948 66.9021 63.9168 66.9014 63.8363C66.9006 63.7559 66.9447 63.6537 66.9976 63.6092C67.0505 63.5647 67.0938 63.5959 67.0945 63.6764Z" fill="#0A0A0A"/>
<path d="M67.4314 63.3971C67.4314 63.4785 67.3881 63.5798 67.3352 63.6242C67.2824 63.6687 67.239 63.6375 67.2383 63.557C67.2376 63.4766 67.2816 63.3744 67.3345 63.3299C67.3874 63.2854 67.4307 63.3166 67.4314 63.3971Z" fill="#0A0A0A"/>
<path d="M61.6863 68.1407C61.6863 68.2221 61.643 68.3234 61.5901 68.3679C61.5372 68.4124 61.4939 68.3811 61.4932 68.3007C61.4924 68.2202 61.5365 68.118 61.5894 68.0736C61.6423 68.0291 61.6856 68.0603 61.6863 68.1407Z" fill="#0A0A0A"/>
<path d="M62.0232 67.8615C62.0232 67.9428 61.9799 68.0441 61.927 68.0886C61.8742 68.1321 61.8308 68.1019 61.8301 68.0214C61.8294 67.941 61.8734 67.8387 61.9263 67.7943C61.9792 67.7498 62.0225 67.781 62.0232 67.8615Z" fill="#0A0A0A"/>
<path d="M62.3611 67.5836C62.3611 67.665 62.3178 67.7663 62.2649 67.8108C62.212 67.8552 62.1687 67.824 62.168 67.7436C62.1672 67.6631 62.2113 67.5609 62.2642 67.5164C62.3171 67.4719 62.3604 67.5032 62.3611 67.5836Z" fill="#0A0A0A"/>
<path d="M62.698 67.3053C62.698 67.3867 62.6547 67.488 62.6018 67.5324C62.549 67.5769 62.5056 67.5457 62.5049 67.4653C62.5042 67.3848 62.5482 67.2826 62.6011 67.2381C62.654 67.1936 62.6973 67.2249 62.698 67.3053Z" fill="#0A0A0A"/>
<path d="M63.0359 67.027C63.0359 67.1084 62.9926 67.2096 62.9397 67.2541C62.8868 67.2986 62.8435 67.2674 62.8428 67.1869C62.8428 67.1055 62.8861 67.0043 62.939 66.9598C62.9919 66.9153 63.0352 66.9465 63.0359 67.027Z" fill="#0A0A0A"/>
<path d="M60.9516 28.189H25.0391V48.8583C24.8988 50.0328 25.2976 51.3039 26.2509 51.9371L39.1946 60.5383C40.4211 61.3532 41.8702 61.4024 43.1283 60.6718L59.6318 51.0881C60.4 50.6423 60.8422 49.7801 60.9523 48.8583V28.189H60.9516Z" fill="#2B50FF"/>
<path d="M41.2664 61.284C40.5444 61.284 39.824 61.0626 39.16 60.6215L26.2163 52.0203C25.3005 51.4117 24.8098 50.1681 24.9648 48.8497V28.1879C24.9648 28.1624 24.9722 28.1387 24.9861 28.1207C25.0001 28.1027 25.0184 28.0933 25.0383 28.0933H60.9515C60.9919 28.0933 61.025 28.1359 61.025 28.1879V48.8572C61.025 48.8648 61.025 48.8724 61.0228 48.879C60.8979 49.9068 60.4022 50.7435 59.6611 51.1732L43.1576 60.7569C42.5524 61.108 41.909 61.2831 41.2664 61.2831V61.284ZM25.1117 28.2835V48.8582C25.1117 48.8629 25.1117 48.8677 25.1117 48.8724C24.9641 50.1113 25.4238 51.2811 26.2846 51.8527L39.2283 60.454C40.4424 61.2604 41.8532 61.3086 43.0981 60.5856L59.6016 51.0019C60.2972 50.5978 60.7628 49.8141 60.8788 48.8487V28.2835H25.1117Z" fill="#0A0A0A"/>
<path d="M43.1282 60.6718L59.6317 51.0881C60.4 50.6423 60.8421 49.7801 60.9523 48.8583V28.189H41.4375V61.1819C42.0148 61.1545 42.5891 60.9851 43.1289 60.6718H43.1282Z" fill="#0A0A0A"/>
<path d="M59.6309 30.4185L43.1274 40.0022C41.8693 40.7329 40.4203 40.6836 39.1937 39.8688L26.25 31.2675C24.5483 30.1365 24.6129 26.9725 26.3587 25.9589L42.8623 16.3752C44.1203 15.6446 45.5694 15.6938 46.7959 16.5087L59.7396 25.1099C61.4413 26.2409 61.3767 29.4049 59.6309 30.4185Z" fill="#F67BE8"/>
<path d="M41.2671 40.6157C40.5452 40.6157 39.8247 40.3942 39.1608 39.9532L26.217 31.3519C25.404 30.8115 24.9141 29.7448 24.9384 28.5665C24.9626 27.3891 25.4951 26.3566 26.3287 25.872L42.8322 16.2883C44.1182 15.5416 45.5753 15.5908 46.8298 16.4246L59.7735 25.0259C60.5865 25.5663 61.0764 26.6329 61.0521 27.8113C61.0279 28.9886 60.4954 30.0212 59.6619 30.5058L43.1583 40.0894C42.5531 40.4406 41.9098 40.6166 41.2671 40.6166V40.6157ZM44.7234 15.9514C44.102 15.9514 43.4792 16.1208 42.8932 16.4615L26.3896 26.0452C25.6082 26.4995 25.108 27.4677 25.0852 28.5722C25.0625 29.6767 25.5222 30.678 26.2838 31.1844L39.2276 39.7856C40.4416 40.592 41.8525 40.6403 43.0973 39.9172L59.6009 30.3335C60.3823 29.8792 60.8825 28.911 60.9053 27.8065C60.928 26.702 60.4683 25.7007 59.7067 25.1943L46.7629 16.5931C46.1203 16.1662 45.4226 15.9514 44.7234 15.9514Z" fill="#0A0A0A"/>
<path d="M40.8684 61.227C40.828 61.227 40.7949 61.1845 40.7949 61.1324V40.517C40.7949 40.465 40.828 40.4224 40.8684 40.4224C40.9088 40.4224 40.9418 40.465 40.9418 40.517V61.1324C40.9418 61.1845 40.9088 61.227 40.8684 61.227Z" fill="#0A0A0A"/>
<path d="M34.9056 24.9038L27.8432 29.2101C27.3497 29.5111 26.6799 29.2886 26.3472 28.7132C26.0145 28.1378 26.1452 27.427 26.6387 27.126L33.7011 22.8197C34.1946 22.5187 34.8644 22.7412 35.1971 23.3166C35.5298 23.892 35.3991 24.6028 34.9056 24.9038Z" fill="white"/>
<path d="M27.8873 28.4093L27.6978 28.0809C27.631 27.9654 27.4966 27.9209 27.3974 27.9806C27.2983 28.0411 27.2718 28.184 27.3387 28.2995L27.5282 28.6279C27.595 28.7434 27.7294 28.7879 27.8286 28.7282C27.9277 28.6686 27.9541 28.5248 27.8873 28.4093Z" fill="#F67BE8"/>
<path d="M28.1361 27.5311L27.9495 27.6446C27.7725 27.7525 27.7263 28.0071 27.8453 28.2134C27.9642 28.4198 28.2044 28.4993 28.3814 28.3914L28.5679 28.2778C28.7449 28.1699 28.7912 27.9153 28.6722 27.709C28.5533 27.5027 28.3131 27.4232 28.1361 27.5311Z" fill="#2B50FF"/>
<path d="M26.9669 27.7855L26.9691 27.7893C27.0565 27.9398 27.2313 27.9985 27.3606 27.9199L27.5773 27.7874C27.7065 27.7088 27.7403 27.5224 27.6536 27.3719L27.6514 27.3681C27.564 27.2176 27.3892 27.159 27.26 27.2375L27.0433 27.37C26.9141 27.4486 26.8803 27.635 26.9669 27.7855Z" fill="#1ADEAD"/>
<path d="M28.1009 27.4685C28.2309 27.389 28.2654 27.2016 28.178 27.0502C28.0906 26.8988 27.9136 26.8401 27.7836 26.9186C27.6536 26.9981 27.6191 27.1855 27.7065 27.337C27.7939 27.4884 27.9709 27.5471 28.1009 27.4685Z" fill="#C7EE1A"/>
<path d="M29.0373 27.4998L28.7479 26.9992C28.6774 26.878 28.7053 26.7275 28.8096 26.6641L28.9918 26.5534C29.1181 26.4767 29.2224 26.4975 29.2878 26.6102C29.3392 26.6991 29.3296 26.7777 29.2312 26.8496L29.2496 26.8818C29.3693 26.8222 29.4567 26.8439 29.5132 26.9405C29.5837 27.0626 29.5646 27.1799 29.4258 27.2642L29.0373 27.5008V27.4998ZM28.9242 26.9812L29.1409 26.8487C29.1915 26.8174 29.2011 26.7843 29.1725 26.7351C29.1438 26.6859 29.1093 26.6774 29.0579 26.7095L28.8434 26.8402L28.9249 26.9812H28.9242ZM29.0917 27.2708L29.3252 27.1288C29.3818 27.0947 29.3928 27.0597 29.359 27.002C29.3252 26.9443 29.2914 26.9386 29.2349 26.9727L29.0013 27.1146L29.0917 27.2708Z" fill="#0A0A0A"/>
<path d="M29.51 26.8487C29.4108 26.6764 29.452 26.5042 29.604 26.4114C29.756 26.3187 29.9095 26.3509 30.0065 26.5193C30.0175 26.5383 30.0241 26.5534 30.0329 26.5733L29.6569 26.8023C29.7083 26.8828 29.7619 26.8979 29.8515 26.844C29.9338 26.7938 29.9477 26.7521 29.9213 26.7058L29.9154 26.6954L30.0535 26.6111L30.0601 26.6225C30.1276 26.7398 30.0777 26.8809 29.9308 26.9708C29.7766 27.0645 29.6209 27.0408 29.51 26.8496V26.8487ZM29.6099 26.7162L29.8552 26.5666C29.8104 26.4976 29.7553 26.489 29.6745 26.5383C29.5937 26.5875 29.5761 26.6424 29.6099 26.7162Z" fill="#0A0A0A"/>
<path d="M30.2323 26.7709L29.9209 26.2324L30.0494 26.1538L30.1449 26.3194L30.1721 26.3024C30.1317 26.2049 30.1185 26.097 30.2396 26.0232C30.3601 25.9494 30.4805 26.0043 30.5496 26.1235L30.7435 26.4586L30.6054 26.5428L30.4556 26.2835C30.4056 26.1974 30.3542 26.1794 30.2698 26.2314C30.1853 26.2835 30.1743 26.345 30.2272 26.4359L30.3718 26.6857L30.2338 26.77L30.2323 26.7709Z" fill="#0A0A0A"/>
<path d="M31.0242 26.2883C30.9163 26.3546 30.8171 26.3347 30.7385 26.1994L30.6166 25.9883L30.5439 26.0328L30.4668 25.8993L30.5395 25.8548L30.4793 25.7507L30.6174 25.6665L30.6776 25.7706L30.8267 25.6798L30.9038 25.8132L30.7547 25.9041L30.8656 26.0962C30.8964 26.1501 30.9221 26.153 30.9714 26.1236L31.0543 26.0735L31.1381 26.2183L31.0235 26.2883H31.0242Z" fill="#0A0A0A"/>
<path d="M31.018 25.9296C30.9189 25.7574 30.9615 25.5842 31.1194 25.4886C31.2773 25.392 31.4462 25.4365 31.5454 25.6088C31.6445 25.781 31.6012 25.9533 31.4433 26.0489C31.2854 26.1445 31.1165 26.1 31.018 25.9306V25.9296ZM31.408 25.6911C31.3537 25.5965 31.2949 25.5728 31.2017 25.6296C31.1084 25.6864 31.101 25.7508 31.1554 25.8454C31.2097 25.94 31.2663 25.9618 31.361 25.905C31.4558 25.8482 31.4631 25.7858 31.4088 25.6911H31.408Z" fill="#0A0A0A"/>
<path d="M31.8957 25.7571L31.6063 25.2565C31.5358 25.1353 31.5637 24.9848 31.668 24.9214L31.8502 24.8107C31.9765 24.734 32.0808 24.7549 32.1462 24.8675C32.1976 24.9565 32.188 25.035 32.0896 25.1069L32.108 25.1391C32.2277 25.0795 32.3151 25.1013 32.3716 25.1978C32.4421 25.3199 32.4223 25.4372 32.2842 25.5215L31.8957 25.7581V25.7571ZM31.7826 25.2385L31.9993 25.106C32.0499 25.0748 32.0595 25.0416 32.0309 24.9924C32.0022 24.9432 31.9677 24.9347 31.9163 24.9669L31.7011 25.0975L31.7826 25.2385ZM31.9501 25.5272L32.1836 25.3852C32.2402 25.3511 32.2512 25.3161 32.2174 25.2584C32.1836 25.2006 32.1498 25.195 32.0933 25.229L31.8597 25.371L31.9501 25.5272Z" fill="#0A0A0A"/>
<path d="M32.4434 25.2436C32.3971 25.1641 32.4192 25.0836 32.511 25.0117L32.6953 24.8669L32.6836 24.8461C32.6432 24.776 32.605 24.7732 32.5315 24.8177C32.4581 24.8622 32.4456 24.8991 32.4809 24.9606L32.4831 24.9653L32.3435 25.0505L32.3413 25.0477C32.2642 24.9142 32.3068 24.7637 32.4588 24.671C32.6109 24.5782 32.7394 24.6256 32.8202 24.7656L33.003 25.0817L32.8738 25.1603L32.8025 25.0363L32.7761 25.0524C32.8033 25.1489 32.7871 25.2275 32.6843 25.29C32.5822 25.3524 32.4941 25.3335 32.4412 25.2436H32.4434ZM32.6593 25.1518C32.7533 25.094 32.7893 25.0382 32.7489 24.9587L32.6006 25.078C32.569 25.1016 32.5609 25.1215 32.5756 25.147C32.5925 25.1764 32.6189 25.1764 32.6593 25.1518Z" fill="#0A0A0A"/>
<path d="M33.286 24.9104C33.178 24.9766 33.0788 24.9568 33.0003 24.8214L32.8783 24.6104L32.8056 24.6548L32.7285 24.5214L32.8012 24.4769L32.741 24.3728L32.8791 24.2886L32.9393 24.3927L33.0884 24.3018L33.1655 24.4353L33.0164 24.5261L33.1273 24.7183C33.1582 24.7722 33.1839 24.775 33.2331 24.7457L33.3161 24.6955L33.3998 24.8403L33.2852 24.9104H33.286Z" fill="#0A0A0A"/>
<path d="M33.282 24.5487C33.1829 24.3765 33.2211 24.2061 33.3797 24.1096C33.5281 24.0187 33.683 24.0499 33.7638 24.1891L33.7727 24.2042L33.6353 24.2875L33.6302 24.279C33.5905 24.2099 33.5325 24.2118 33.4605 24.2553C33.3783 24.3055 33.3614 24.3642 33.4187 24.4635C33.4759 24.5629 33.534 24.5752 33.6162 24.5251C33.6882 24.4815 33.7168 24.4304 33.6772 24.3613L33.672 24.3528L33.8094 24.2695L33.8182 24.2847C33.8982 24.4238 33.8512 24.579 33.7029 24.6689C33.5442 24.7655 33.3797 24.7181 33.2813 24.5478L33.282 24.5487Z" fill="#0A0A0A"/>
<path d="M34.0072 24.469L33.5908 23.7488L33.7289 23.6646L33.9294 24.0109L33.9558 23.9949C33.9176 23.8945 33.9052 23.7885 34.0227 23.7166C34.1468 23.6409 34.2628 23.6986 34.3348 23.8226L34.5258 24.1529L34.3877 24.2371L34.2379 23.9778C34.1857 23.8879 34.1336 23.8756 34.0469 23.9286C33.9536 23.9854 33.9507 24.0469 34.0028 24.1368L34.1461 24.3848L34.008 24.469H34.0072Z" fill="#0A0A0A"/>
<path d="M39.1942 39.8687C40.4207 40.6836 41.8698 40.7328 43.1279 40.0022L59.6314 30.4185C61.3772 29.4049 61.4418 26.2409 59.7401 25.1099L57.2027 23.4233L34.5166 36.7596L39.1942 39.8678V39.8687Z" fill="#1ADEAD"/>
<path d="M41.2668 40.6157C40.5449 40.6157 39.8244 40.3942 39.1604 39.9532L34.4821 36.845C34.4571 36.828 34.4417 36.7949 34.4424 36.7589C34.4424 36.723 34.46 36.6898 34.485 36.6747L57.1711 23.3384C57.1916 23.327 57.2151 23.327 57.235 23.3403L59.7724 25.0268C60.5855 25.5672 61.0753 26.6339 61.0511 27.8122C61.0269 28.9896 60.4944 30.0221 59.6608 30.5067L43.1572 40.0904C42.5521 40.4415 41.9087 40.6176 41.2661 40.6176L41.2668 40.6157ZM39.2273 39.7847C40.4413 40.5911 41.8522 40.6393 43.097 39.9162L59.6006 30.3326C60.382 29.8783 60.8822 28.9101 60.9049 27.8056C60.9277 26.7011 60.468 25.6997 59.7063 25.1934L57.2004 23.5286L34.6848 36.7655L39.228 39.7847H39.2273Z" fill="#0A0A0A"/>
<path d="M50.2731 18.8188C50.2731 18.8188 50.0675 23.729 48.5333 24.4549C46.056 25.6275 47.5836 6.51886 44.51 8.19785C41.4364 9.87684 42.4888 25.6635 40.4868 26.9118C38.4847 28.1611 38.8269 21.7253 36.4657 22.8705C34.1045 24.0157 31.791 34.9471 31.791 34.9471L34.5165 36.7577L57.2026 23.4214L50.2739 18.8169L50.2731 18.8188Z" fill="white"/>
<path d="M34.516 36.8543C34.5042 36.8543 34.4932 36.8505 34.4822 36.8439L31.7567 35.0334C31.7259 35.0125 31.7104 34.9671 31.7193 34.9245C31.814 34.4759 34.0702 23.9335 36.4388 22.7836C37.7203 22.1617 38.2513 23.677 38.7192 25.0143C39.0254 25.8888 39.3148 26.7151 39.7687 26.928C39.9707 27.0227 40.1947 26.9895 40.4532 26.8277C41.3088 26.2939 41.5982 22.8006 41.9052 19.1028C42.2952 14.3971 42.7373 9.06394 44.4801 8.11182C44.7739 7.95187 45.0427 7.96323 45.2814 8.14778C46.3177 8.94847 46.5975 12.9708 46.8685 16.8598C47.1028 20.231 47.3459 23.7177 48.0877 24.3234C48.214 24.4266 48.3513 24.4408 48.507 24.3679C49.9789 23.6713 50.197 18.8634 50.1992 18.8151C50.2007 18.7829 50.2146 18.7536 50.2359 18.7385C50.2572 18.7224 50.2844 18.7214 50.3064 18.7366L57.2351 23.341C57.2601 23.358 57.2755 23.3912 57.2748 23.4271C57.2748 23.4631 57.2571 23.4962 57.2322 23.5114L34.5461 36.8477C34.5366 36.8534 34.5263 36.8562 34.5153 36.8562L34.516 36.8543ZM31.8779 34.8999L34.5182 36.6546L57.0339 23.4177L50.3395 18.9694C50.2917 19.8089 49.9884 23.8672 48.5584 24.5439C48.3602 24.6376 48.1758 24.6168 48.0098 24.4824C47.2064 23.8265 46.9713 20.4506 46.7224 16.8759C46.4675 13.2131 46.1789 9.0611 45.2057 8.30962C45.0074 8.1563 44.7893 8.14873 44.5381 8.28596C42.8746 9.19455 42.4376 14.4691 42.0521 19.1227C41.7274 23.0372 41.4476 26.4188 40.5186 26.9981C40.2218 27.1836 39.9604 27.2186 39.7195 27.105C39.2076 26.8656 38.9057 26.0043 38.5863 25.0919C38.1228 23.7688 37.644 22.4021 36.4909 22.9605C34.292 24.0272 32.0857 33.9402 31.8772 34.8999H31.8779Z" fill="#0A0A0A"/>
<path d="M50.9838 35.5343C50.972 35.5343 50.9596 35.5305 50.9485 35.5229L44.4737 30.9677C44.4502 30.9506 44.4355 30.9194 44.4355 30.8844V8.19914C44.4355 8.14708 44.4686 8.10449 44.509 8.10449C44.5494 8.10449 44.5824 8.14708 44.5824 8.19914V30.8286L51.019 35.3563C51.0543 35.3809 51.0675 35.4387 51.0484 35.4851C51.0352 35.5163 51.0102 35.5343 50.9838 35.5343Z" fill="#0A0A0A"/>
<path d="M46.9613 37.8775C46.9496 37.8775 46.9371 37.8737 46.9261 37.8662L40.4513 33.3109C40.4278 33.2939 40.4131 33.2627 40.4131 33.2277V26.913C40.4131 26.8609 40.4461 26.8184 40.4865 26.8184C40.5269 26.8184 40.56 26.8609 40.56 26.913V33.1718L46.9966 37.6996C47.0318 37.7242 47.0451 37.7819 47.026 37.8283C47.0127 37.8595 46.9878 37.8775 46.9613 37.8775Z" fill="#0A0A0A"/>
<path d="M42.9379 40.2207C42.9261 40.2207 42.9137 40.2169 42.9026 40.2094L36.4278 35.6541C36.4043 35.6371 36.3896 35.6059 36.3896 35.5709V22.8715C36.3896 22.8194 36.4227 22.7769 36.4631 22.7769C36.5035 22.7769 36.5365 22.8194 36.5365 22.8715V35.5141L42.9732 40.0418C43.0084 40.0665 43.0216 40.1242 43.0025 40.1706C42.9893 40.2018 42.9643 40.2198 42.9379 40.2198V40.2207Z" fill="#0A0A0A"/>
<path d="M55.0072 33.1916C54.9955 33.1916 54.983 33.1878 54.972 33.1803L48.4972 28.625C48.4737 28.608 48.459 28.5768 48.459 28.5418V24.456C48.459 24.4039 48.492 24.3613 48.5324 24.3613C48.5728 24.3613 48.6059 24.4039 48.6059 24.456V28.4859L55.0425 33.0137C55.0777 33.0383 55.091 33.096 55.0719 33.1424C55.0586 33.1736 55.0337 33.1916 55.0072 33.1916Z" fill="#0A0A0A"/>
<path d="M59.0307 30.8483C59.0189 30.8483 59.0064 30.8446 58.9954 30.837L52.5206 26.2818C52.4971 26.2647 52.4824 26.2335 52.4824 26.1985V20.4394C52.4824 20.3873 52.5155 20.3447 52.5559 20.3447C52.5963 20.3447 52.6293 20.3873 52.6293 20.4394V26.1417L59.0659 30.6695C59.1012 30.6941 59.1144 30.7518 59.0953 30.7982C59.0821 30.8294 59.0571 30.8474 59.0307 30.8474V30.8483Z" fill="#0A0A0A"/>
<path d="M67.4826 43.2739L46.6201 50.5123L46.6363 60.467C46.6363 60.4765 46.6363 60.4869 46.6363 60.4963C46.6341 61.0027 46.8302 61.5005 47.229 61.7494L50.9173 64.0464C51.4277 64.3644 52.03 64.3531 52.5522 64.0152L66.8576 54.7779C67.3012 54.4912 67.5163 53.9205 67.4973 53.3725H67.4987L67.4826 43.2739Z" fill="#F67BE8"/>
<path d="M51.7031 64.3729C51.4226 64.3729 51.1435 64.2925 50.885 64.1316L47.1966 61.8346C46.7971 61.5856 46.5599 61.0859 46.5621 60.4963V60.4641L46.5459 50.4394L46.6002 50.4205L67.5552 43.1499L67.5721 53.4462C67.5714 54.051 67.3143 54.5886 66.8906 54.8621L52.5852 64.0994C52.3032 64.2811 52.002 64.372 51.7031 64.372V64.3729ZM46.6935 50.5851L46.7097 60.467V60.483V60.4972C46.7075 61.0112 46.9139 61.4475 47.2612 61.6642L50.9496 63.9612C51.4424 64.2679 52.0145 64.2574 52.5198 63.9309L66.8252 54.6937C67.2145 54.4428 67.4436 53.9384 67.4245 53.3772L67.4216 53.2986H67.4252L67.4091 43.3979L46.6935 50.5851Z" fill="#0A0A0A"/>
<path d="M51.6453 64.2755C51.9531 64.2878 52.2645 64.2017 52.5524 64.0162L66.8577 54.7789C67.3013 54.4921 67.5165 53.9214 67.4974 53.3734H67.4989L67.4827 43.2749L51.6211 48.7785L51.6461 64.2764L51.6453 64.2755Z" fill="#2B50FF"/>
<path d="M51.7033 64.3714C51.6835 64.3714 51.6637 64.3714 51.6431 64.3705C51.6034 64.3686 51.5718 64.3269 51.5718 64.2758L51.5469 48.7778C51.5469 48.7352 51.5689 48.6974 51.6012 48.686L67.4629 43.1825C67.4849 43.1749 67.5084 43.1806 67.5268 43.1986C67.5451 43.2165 67.5554 43.244 67.5554 43.2733L67.5716 53.3719C67.5716 53.3719 67.5716 53.3813 67.5708 53.3861C67.5877 54.0154 67.3277 54.5805 66.89 54.8634L52.5846 64.1007C52.3092 64.2787 52.0052 64.3714 51.7026 64.3714H51.7033ZM51.6938 48.8507L51.7187 64.1821C51.9941 64.1793 52.2696 64.0932 52.5193 63.9313L66.8247 54.694C67.2139 54.4423 67.443 53.9378 67.424 53.3775C67.424 53.37 67.424 53.3633 67.4254 53.3567L67.4093 43.3983L51.6938 48.8507Z" fill="#0A0A0A"/>
<path d="M66.8411 44.7174L52.5357 53.9547C52.0136 54.2925 51.4113 54.3039 50.9009 53.9859L47.2125 51.6889C46.3995 51.1825 46.4282 49.6436 47.2603 49.106L61.5657 39.8688C62.0878 39.5309 62.6901 39.5195 63.2005 39.8375L66.8889 42.1345C67.7019 42.6409 67.6732 44.1798 66.8411 44.7174Z" fill="white"/>
<path d="M51.687 54.3123C51.4064 54.3123 51.1274 54.2318 50.8688 54.0709L47.1805 51.7739C46.7861 51.5288 46.5489 51.0357 46.5459 50.4565C46.5423 49.8451 46.8037 49.2952 47.2275 49.0217L61.5329 39.7844C62.0793 39.4314 62.6984 39.42 63.2331 39.7532L66.9214 42.0502C67.3158 42.2953 67.5531 42.7884 67.556 43.3676C67.5597 43.979 67.2982 44.5289 66.8744 44.8024L52.5691 54.0397C52.2878 54.2214 51.9859 54.3123 51.687 54.3123ZM62.4142 39.7002C62.1381 39.7002 61.859 39.7844 61.5982 39.9529L47.2929 49.1901C46.9198 49.4315 46.6899 49.9161 46.6928 50.4546C46.6958 50.96 46.9021 51.3897 47.2444 51.6026L50.9327 53.8996C51.4255 54.2063 51.9977 54.1959 52.503 53.8694L66.8083 44.6311C67.1814 44.3898 67.4113 43.9062 67.4084 43.3676C67.4054 42.8622 67.1991 42.4326 66.8568 42.2187L63.1685 39.9216C62.9305 39.7731 62.6735 39.6992 62.4142 39.6992V39.7002Z" fill="#0A0A0A"/>
<path d="M51.1609 64.2263C51.1205 64.2263 51.0874 64.1837 51.0874 64.1316L51.0713 54.1088C51.0713 54.0568 51.1043 54.0142 51.1447 54.0142C51.1851 54.0142 51.2182 54.0568 51.2182 54.1088L51.2343 64.1316C51.2343 64.1837 51.2013 64.2263 51.1609 64.2263Z" fill="#0A0A0A"/>
<path d="M52.4558 50.55L51.7882 50.232C51.5531 50.1204 51.2094 50.1251 51.0207 50.2434C50.8319 50.3617 50.8694 50.5482 51.1044 50.6608L51.772 50.9788C52.007 51.0905 52.3507 51.0857 52.5395 50.9674C52.7282 50.8491 52.6908 50.6627 52.4558 50.55Z" fill="#F67BE8"/>
<path d="M52.4294 49.3604L52.074 49.5829C51.7369 49.7939 51.8044 50.1271 52.2238 50.3268C52.6432 50.5265 53.2564 50.5179 53.5935 50.3069L53.949 50.0845C54.2861 49.8734 54.2185 49.5403 53.7992 49.3406C53.3798 49.1409 52.7666 49.1494 52.4294 49.3604Z" fill="#2B50FF"/>
<path d="M49.8862 50.1927L49.8935 50.1965C50.2005 50.3432 50.6485 50.3366 50.8946 50.1823L51.3073 49.9239C51.5534 49.7696 51.5042 49.5264 51.1979 49.3797L51.1906 49.3759C50.8836 49.2292 50.4356 49.2358 50.1895 49.3901L49.7768 49.6485C49.5307 49.8028 49.5799 50.046 49.8862 50.1927Z" fill="#1ADEAD"/>
<path d="M52.3028 49.3011C52.5503 49.1459 52.5011 48.9008 52.1927 48.7541C51.8842 48.6064 51.4325 48.613 51.185 48.7683C50.9375 48.9235 50.9867 49.1686 51.2952 49.3153C51.6036 49.463 52.0553 49.4563 52.3028 49.3011Z" fill="#C7EE1A"/>
<path d="M54.5024 48.9231L53.4845 48.4376C53.237 48.3193 53.1973 48.1234 53.3963 47.9994L53.743 47.7827C53.9839 47.6322 54.2402 47.6114 54.4701 47.7211C54.6515 47.8073 54.6831 47.9076 54.5039 48.0391L54.5685 48.0704C54.8057 47.9436 55.0246 47.9312 55.2214 48.0249C55.4704 48.1442 55.5056 48.2956 55.242 48.4613L54.5024 48.9241V48.9231ZM53.8818 48.3363L54.2946 48.0779C54.3908 48.0174 54.39 47.9719 54.2894 47.9246C54.1888 47.8764 54.1029 47.882 54.0045 47.9436L53.5954 48.2L53.8818 48.3363ZM54.4708 48.6174L54.9152 48.3392C55.0224 48.272 55.0246 48.2246 54.9063 48.1688C54.7881 48.113 54.7051 48.1215 54.5979 48.1887L54.1535 48.4669L54.4708 48.6184V48.6174Z" fill="#0A0A0A"/>
<path d="M55.1521 47.9137C54.8018 47.7471 54.7798 47.5171 55.0691 47.3354C55.3585 47.1537 55.7367 47.1253 56.0805 47.289C56.1201 47.3079 56.1451 47.3231 56.1781 47.3439L55.4613 47.7925C55.6369 47.8682 55.772 47.8635 55.9424 47.7566C56.0988 47.6591 56.1025 47.6004 56.0085 47.5559L55.9865 47.5455L56.2501 47.3808L56.2744 47.3922C56.5131 47.5058 56.4932 47.7017 56.2134 47.8768C55.9204 48.0604 55.5407 48.1001 55.1514 47.9146L55.1521 47.9137ZM55.2924 47.7083L55.7595 47.4158C55.6082 47.3515 55.4746 47.3647 55.3196 47.4622C55.1654 47.5588 55.1624 47.6335 55.2924 47.7083Z" fill="#0A0A0A"/>
<path d="M56.7784 47.4988L55.6826 46.9764L55.9265 46.824L56.2636 46.9849L56.3157 46.9527C56.1549 46.8505 56.0491 46.7237 56.279 46.5798C56.5089 46.4359 56.8261 46.4492 57.0692 46.5656L57.7515 46.8912L57.4879 47.0559L56.9598 46.8041C56.785 46.7208 56.6528 46.7218 56.4912 46.823C56.3297 46.9243 56.348 47.0047 56.5338 47.0928L57.0428 47.3351L56.7791 47.4997L56.7784 47.4988Z" fill="#0A0A0A"/>
<path d="M58.287 46.5542C58.0813 46.6829 57.8368 46.7038 57.5606 46.5722L57.1317 46.3678L56.9929 46.4549L56.7219 46.3252L56.8607 46.2381L56.6484 46.1368L56.9121 45.9722L57.1244 46.0734L57.4086 45.8955L57.6796 46.0252L57.3954 46.2031L57.7868 46.3896C57.8962 46.4416 57.9579 46.434 58.0512 46.3763L58.2091 46.2769L58.5044 46.4179L58.2862 46.5542H58.287Z" fill="#0A0A0A"/>
<path d="M58.0234 46.1163C57.6731 45.9497 57.6547 45.7178 57.9551 45.5295C58.2555 45.3411 58.6785 45.3203 59.0281 45.4869C59.3777 45.6535 59.3946 45.8844 59.0942 46.0727C58.7938 46.2611 58.3686 46.281 58.0234 46.1163ZM58.7666 45.6516C58.5742 45.5598 58.4215 45.5569 58.2437 45.6677C58.066 45.7784 58.0924 45.8607 58.2848 45.9525C58.4773 46.0443 58.6242 46.0462 58.8034 45.9346C58.9826 45.8229 58.9591 45.7434 58.7659 45.6516H58.7666Z" fill="#0A0A0A"/>
<path d="M59.9467 45.5154L58.9288 45.0299C58.6813 44.9116 58.6416 44.7157 58.8407 44.5917L59.1873 44.3749C59.4282 44.2245 59.6845 44.2036 59.9144 44.3134C60.0958 44.3996 60.1274 44.4999 59.9482 44.6314L60.0128 44.6627C60.2501 44.5358 60.4689 44.5235 60.6658 44.6172C60.9147 44.7365 60.95 44.8879 60.6863 45.0535L59.9467 45.5163V45.5154ZM59.3269 44.9296L59.7396 44.6712C59.8358 44.6106 59.8351 44.5652 59.7345 44.5179C59.6339 44.4696 59.5479 44.4753 59.4495 44.5368L59.0404 44.7933L59.3269 44.9296ZM59.9152 45.2097L60.3595 44.9315C60.4667 44.8643 60.4689 44.8169 60.3507 44.7611C60.2324 44.7053 60.1494 44.7138 60.0422 44.781L59.5979 45.0592L59.9152 45.2107V45.2097Z" fill="#0A0A0A"/>
<path d="M60.865 44.6419C60.7034 44.5643 60.699 44.4564 60.8628 44.3267L61.1925 44.0674L61.1507 44.0475C61.0082 43.9794 60.9179 43.9926 60.7776 44.0806C60.6373 44.1686 60.6336 44.2188 60.7578 44.2784L60.7666 44.2822L60.5014 44.4478L60.4948 44.445C60.2238 44.3153 60.2179 44.1119 60.5081 43.9301C60.7974 43.7484 61.1279 43.7494 61.4143 43.8857L62.0577 44.1923L61.8117 44.3466L61.5605 44.2264L61.5106 44.2576C61.6406 44.3646 61.6567 44.4677 61.4621 44.5898C61.2675 44.7119 61.0486 44.728 60.865 44.64V44.6419ZM61.3056 44.4336C61.4849 44.322 61.5289 44.2358 61.3806 44.1573L61.1191 44.3693C61.0626 44.4119 61.0559 44.4403 61.1088 44.4649C61.1683 44.4933 61.2285 44.481 61.3064 44.4327L61.3056 44.4336Z" fill="#0A0A0A"/>
<path d="M62.5936 43.8589C62.388 43.9876 62.1434 44.0085 61.8672 43.8769L61.4383 43.6725L61.2995 43.7595L61.0285 43.6299L61.1673 43.5428L60.9551 43.4415L61.2187 43.2769L61.431 43.3781L61.7152 43.2002L61.9862 43.3299L61.702 43.5078L62.0935 43.6942C62.2029 43.7463 62.2646 43.7387 62.3579 43.681L62.5158 43.5816L62.811 43.7226L62.5929 43.8589H62.5936Z" fill="#0A0A0A"/>
<path d="M62.3366 43.4171C61.9863 43.2505 61.9591 43.0243 62.261 42.835C62.5438 42.658 62.9249 42.6268 63.2092 42.7621L63.24 42.7763L62.9785 42.9401L62.9609 42.9316C62.8206 42.8644 62.6877 42.8928 62.5511 42.9779C62.3947 43.0754 62.3954 43.1549 62.5981 43.2524C62.8015 43.3489 62.9433 43.3376 63.0997 43.2401C63.2371 43.154 63.2686 43.0783 63.1291 43.012L63.1115 43.0035L63.3729 42.8398L63.4038 42.854C63.6858 42.9883 63.6829 43.2003 63.4001 43.3773C63.0983 43.5666 62.6818 43.5808 62.3359 43.4161L62.3366 43.4171Z" fill="#0A0A0A"/>
<path d="M63.9679 42.9979L62.502 42.2984L62.7656 42.1338L63.4699 42.4697L63.5199 42.4385C63.362 42.3325 63.2592 42.2085 63.4839 42.0675C63.7211 41.9189 64.0296 41.9388 64.283 42.059L64.9542 42.3789L64.6906 42.5436L64.1625 42.2918C63.9789 42.2038 63.8497 42.2123 63.6851 42.3155C63.5074 42.4262 63.5434 42.5038 63.727 42.5909L64.2316 42.8313L63.9679 42.996V42.9979Z" fill="#0A0A0A"/>
</svg>
