<svg width="25" height="24" viewBox="0 0 25 24" fill="none" xmlns="http://www.w3.org/2000/svg">
<rect width="24" height="24" rx="12" fill="#22242B"/>
<path d="M12.5002 12.5832C12.8223 12.5832 13.0835 12.322 13.0835 11.9998C13.0835 11.6777 12.8223 11.4165 12.5002 11.4165C12.178 11.4165 11.9168 11.6777 11.9168 11.9998C11.9168 12.322 12.178 12.5832 12.5002 12.5832Z" fill="white"/>
<path d="M16.5835 12.5832C16.9057 12.5832 17.1668 12.322 17.1668 11.9998C17.1668 11.6777 16.9057 11.4165 16.5835 11.4165C16.2613 11.4165 16.0002 11.6777 16.0002 11.9998C16.0002 12.322 16.2613 12.5832 16.5835 12.5832Z" fill="white"/>
<path d="M8.41683 12.5832C8.739 12.5832 9.00016 12.322 9.00016 11.9998C9.00016 11.6777 8.739 11.4165 8.41683 11.4165C8.09466 11.4165 7.8335 11.6777 7.8335 11.9998C7.8335 12.322 8.09466 12.5832 8.41683 12.5832Z" fill="white"/>
<path d="M12.5002 12.5832C12.8223 12.5832 13.0835 12.322 13.0835 11.9998C13.0835 11.6777 12.8223 11.4165 12.5002 11.4165C12.178 11.4165 11.9168 11.6777 11.9168 11.9998C11.9168 12.322 12.178 12.5832 12.5002 12.5832Z" stroke="white" stroke-width="0.5" stroke-linecap="round" stroke-linejoin="round"/>
<path d="M16.5835 12.5832C16.9057 12.5832 17.1668 12.322 17.1668 11.9998C17.1668 11.6777 16.9057 11.4165 16.5835 11.4165C16.2613 11.4165 16.0002 11.6777 16.0002 11.9998C16.0002 12.322 16.2613 12.5832 16.5835 12.5832Z" stroke="white" stroke-width="0.5" stroke-linecap="round" stroke-linejoin="round"/>
<path d="M8.41683 12.5832C8.739 12.5832 9.00016 12.322 9.00016 11.9998C9.00016 11.6777 8.739 11.4165 8.41683 11.4165C8.09466 11.4165 7.8335 11.6777 7.8335 11.9998C7.8335 12.322 8.09466 12.5832 8.41683 12.5832Z" stroke="white" stroke-width="0.5" stroke-linecap="round" stroke-linejoin="round"/>
</svg>
