<svg width="24" height="24" viewBox="0 0 24 24" fill="none" xmlns="http://www.w3.org/2000/svg">
<rect width="24" height="24" rx="12" fill="#E0E8FF" fill-opacity="0.2"/>
<path d="M7.73077 6.04102H16.1154V17.9577H14.8846V12.4991H14.8725C14.7365 10.9904 13.4679 9.80822 11.9231 9.80822C10.3782 9.80822 9.10963 10.9904 8.97361 12.4991H8.96154V17.9577H7.73077V6.04102Z" fill="white"/>
<path d="M5.5 7.73241L6 9.42381H6.42308V16.2663C6.21066 16.2663 6.03846 16.4384 6.03846 16.6507V17.112H5.96154C5.74912 17.112 5.57692 17.2841 5.57692 17.4964V17.9577H9.88461V17.4964C9.88461 17.2841 9.71242 17.112 9.5 17.112H9.42308V16.6507C9.42308 16.4384 9.25088 16.2663 9.03846 16.2663H8.57692V7.73241H5.5Z" fill="white"/>
<path d="M14.9615 16.2663C14.7491 16.2663 14.5769 16.4384 14.5769 16.6507V17.112H14.5C14.2876 17.112 14.1154 17.2841 14.1154 17.4964V17.9577H18.4231V17.4964C18.4231 17.2841 18.2509 17.112 18.0385 17.112H17.9615V16.6507C17.9615 16.4384 17.7893 16.2663 17.5769 16.2663V9.42381H18L18.5 7.73241H15.4231V16.2663H14.9615Z" fill="white"/>
</svg>
