<svg width="16" height="16" viewBox="0 0 16 16" fill="none" xmlns="http://www.w3.org/2000/svg">
<path d="M13.9168 7.99967C13.9168 11.2674 11.2678 13.9163 8.00016 13.9163C4.73248 13.9163 2.0835 11.2674 2.0835 7.99967C2.0835 4.73199 4.73248 2.08301 8.00016 2.08301C11.2678 2.08301 13.9168 4.73199 13.9168 7.99967Z" stroke="#757575" stroke-width="1.5" stroke-linecap="round" stroke-linejoin="round"/>
<path d="M6.22217 6.51996C6.36555 6.12421 6.64856 5.79049 7.02107 5.57793C7.39358 5.36536 7.83156 5.28766 8.25742 5.35858C8.68328 5.42951 9.06955 5.64448 9.34781 5.96543C9.62607 6.28638 9.77836 6.69259 9.77772 7.11211C9.77772 8.29641 7.94811 8.88856 7.94811 8.88856" stroke="#757575" stroke-width="1.5" stroke-linecap="round" stroke-linejoin="round"/>
<path d="M8 11.333H8.0063" stroke="#757575" stroke-width="1.5" stroke-linecap="round" stroke-linejoin="round"/>
</svg>
