<svg width="16" height="16" viewBox="0 0 16 16" fill="none" xmlns="http://www.w3.org/2000/svg">
<g clip-path="url(#clip0_10150_82307)">
<path d="M2.99967 14.6654V11.332M2.99967 4.66536V1.33203M1.33301 2.9987H4.66634M1.33301 12.9987H4.66634M8.66634 1.9987L7.51022 5.00461C7.32221 5.49343 7.22821 5.73784 7.08203 5.94342C6.95247 6.12563 6.79327 6.28482 6.61106 6.41438C6.40548 6.56057 6.16107 6.65457 5.67225 6.84258L2.66634 7.9987L5.67225 9.15482C6.16107 9.34282 6.40548 9.43683 6.61107 9.58301C6.79327 9.71257 6.95247 9.87177 7.08203 10.054C7.22821 10.2596 7.32221 10.504 7.51022 10.9928L8.66634 13.9987L9.82246 10.9928C10.0105 10.504 10.1045 10.2596 10.2507 10.054C10.3802 9.87177 10.5394 9.71257 10.7216 9.58301C10.9272 9.43683 11.1716 9.34282 11.6604 9.15482L14.6663 7.9987L11.6604 6.84258C11.1716 6.65457 10.9272 6.56057 10.7216 6.41438C10.5394 6.28482 10.3802 6.12563 10.2507 5.94342C10.1045 5.73784 10.0105 5.49343 9.82246 5.00461L8.66634 1.9987Z" stroke="#1ADEAD" stroke-width="1.5" stroke-linecap="round" stroke-linejoin="round"/>
</g>
<defs>
<clipPath id="clip0_10150_82307">
<rect width="16" height="16" fill="white"/>
</clipPath>
</defs>
</svg>
