<svg width="86" height="87" viewBox="0 0 86 87" fill="none" xmlns="http://www.w3.org/2000/svg">
<path d="M69.8333 72.6663C70.65 72.6663 71.0584 72.6663 71.3703 72.5074C71.6447 72.3676 71.8678 72.1445 72.0076 71.8701C72.1666 71.5581 72.1666 71.1497 72.1666 70.333V39.9997C72.1666 39.1829 72.1666 38.7746 72.0076 38.4626C71.8678 38.1882 71.6447 37.9651 71.3703 37.8253C71.0584 37.6663 70.65 37.6663 69.8333 37.6663L62.8332 37.6663C62.0165 37.6663 61.6081 37.6663 61.2962 37.8253C61.0218 37.9651 60.7987 38.1882 60.6589 38.4626C60.4999 38.7746 60.4999 39.1829 60.4999 39.9997V46.9997C60.4999 47.8164 60.4999 48.2248 60.341 48.5367C60.2012 48.8111 59.9781 49.0342 59.7037 49.1741C59.3917 49.333 58.9833 49.333 58.1666 49.333H51.1666C50.3498 49.333 49.9415 49.333 49.6295 49.492C49.3551 49.6318 49.132 49.8549 48.9922 50.1293C48.8333 50.4412 48.8333 50.8496 48.8333 51.6663V58.6663C48.8333 59.4831 48.8332 59.8915 48.6743 60.2034C48.5345 60.4778 48.3114 60.7009 48.037 60.8407C47.725 60.9997 47.3167 60.9997 46.4999 60.9997H39.4999C38.6832 60.9997 38.2748 60.9997 37.9628 61.1586C37.6884 61.2984 37.4653 61.5215 37.3255 61.7959C37.1666 62.1079 37.1666 62.5163 37.1666 63.333V70.333C37.1666 71.1497 37.1666 71.5581 37.3255 71.8701C37.4653 72.1445 37.6884 72.3676 37.9628 72.5074C38.2748 72.6663 38.6832 72.6663 39.4999 72.6663L69.8333 72.6663Z" stroke="#2B50FF" stroke-width="4.5" stroke-linecap="round" stroke-linejoin="round"/>
<path d="M37.1666 28.333C37.1666 27.5163 37.1666 27.1079 37.3255 26.7959C37.4653 26.5215 37.6884 26.2984 37.9628 26.1586C38.2748 25.9997 38.6832 25.9997 39.4999 25.9997H46.4999C47.3167 25.9997 47.725 25.9997 48.037 26.1586C48.3114 26.2984 48.5345 26.5215 48.6743 26.7959C48.8332 27.1079 48.8333 27.5163 48.8333 28.333V35.333C48.8333 36.1497 48.8332 36.5581 48.6743 36.8701C48.5345 37.1445 48.3114 37.3676 48.037 37.5074C47.725 37.6663 47.3167 37.6663 46.4999 37.6663H39.4999C38.6832 37.6663 38.2748 37.6663 37.9628 37.5074C37.6884 37.3676 37.4653 37.1445 37.3255 36.8701C37.1666 36.5581 37.1666 36.1497 37.1666 35.333V28.333Z" stroke="#2B50FF" stroke-width="4.5" stroke-linecap="round" stroke-linejoin="round"/>
<path d="M16.7499 45.833C16.7499 45.0163 16.7499 44.6079 16.9089 44.2959C17.0487 44.0215 17.2718 43.7984 17.5462 43.6586C17.8581 43.4997 18.2665 43.4997 19.0833 43.4997H26.0833C26.9 43.4997 27.3084 43.4997 27.6203 43.6586C27.8947 43.7984 28.1178 44.0215 28.2576 44.2959C28.4166 44.6079 28.4166 45.0163 28.4166 45.833V52.833C28.4166 53.6497 28.4166 54.0581 28.2576 54.3701C28.1178 54.6445 27.8947 54.8676 27.6203 55.0074C27.3084 55.1663 26.9 55.1663 26.0833 55.1663H19.0833C18.2665 55.1663 17.8581 55.1663 17.5462 55.0074C17.2718 54.8676 17.0487 54.6445 16.9089 54.3701C16.7499 54.0581 16.7499 53.6497 16.7499 52.833V45.833Z" stroke="#2B50FF" stroke-width="4.5" stroke-linecap="round" stroke-linejoin="round"/>
<path d="M13.8333 16.6663C13.8333 15.8496 13.8333 15.4412 13.9922 15.1293C14.132 14.8549 14.3551 14.6318 14.6295 14.492C14.9415 14.333 15.3498 14.333 16.1666 14.333H23.1666C23.9833 14.333 24.3917 14.333 24.7037 14.492C24.9781 14.6318 25.2012 14.8549 25.341 15.1293C25.4999 15.4412 25.4999 15.8496 25.4999 16.6663V23.6663C25.4999 24.4831 25.4999 24.8915 25.341 25.2034C25.2012 25.4778 24.9781 25.7009 24.7037 25.8407C24.3917 25.9997 23.9833 25.9997 23.1666 25.9997H16.1666C15.3498 25.9997 14.9415 25.9997 14.6295 25.8407C14.3551 25.7009 14.132 25.4778 13.9922 25.2034C13.8333 24.8915 13.8333 24.4831 13.8333 23.6663V16.6663Z" stroke="#2B50FF" stroke-width="4.5" stroke-linecap="round" stroke-linejoin="round"/>
</svg>
