<svg width="494" height="466" viewBox="0 0 494 466" fill="none" xmlns="http://www.w3.org/2000/svg">
<line x1="246.347" y1="119.688" x2="246.347" y2="173.548" stroke="white" stroke-width="2" stroke-dasharray="8 8"/>
<path d="M172.609 358.955L200.731 309.483" stroke="white" stroke-width="2" stroke-dasharray="8 8"/>
<line y1="-1" x2="53.9114" y2="-1" transform="matrix(-0.501436 -0.865195 -0.866852 0.498566 315.934 359.33)" stroke="white" stroke-width="2" stroke-dasharray="8 8"/>
<line y1="-1" x2="54.0525" y2="-1" transform="matrix(0.966173 0.257896 -0.259745 0.965677 119.193 227.408)" stroke="white" stroke-width="2" stroke-dasharray="8 8"/>
<path d="M378.26 225.912L323.243 241.028" stroke="white" stroke-width="2" stroke-dasharray="8 8"/>
<g filter="url(#filter0_d_111_8058)">
<rect x="170.255" y="173.548" width="150" height="150" rx="75" fill="#0A0A0A"/>
<rect x="171.255" y="174.548" width="148" height="148" rx="74" stroke="white" stroke-width="2"/>
<path d="M227.939 279.667V258.788C227.939 251.433 221.977 245.47 214.621 245.47C207.266 245.47 201.304 251.433 201.304 258.788V279.667C201.304 287.023 207.266 292.985 214.621 292.985C221.977 292.985 227.939 287.023 227.939 279.667Z" fill="#F67BE8"/>
<path d="M269.495 245.476H255.658C242.536 245.476 231.898 256.112 231.898 269.233C231.898 282.354 242.536 292.991 255.658 292.991H269.495C282.617 292.991 293.255 282.354 293.255 269.233C293.255 256.112 282.617 245.476 269.495 245.476Z" fill="#2B50FF"/>
<path d="M197.255 223.915V224.151C197.255 233.743 205.03 241.518 214.622 241.518H230.691C240.282 241.518 248.058 233.743 248.058 224.151V223.915C248.058 214.323 240.282 206.548 230.691 206.548H214.622C205.03 206.548 197.255 214.323 197.255 223.915Z" fill="#1ADEAD"/>
<path d="M269.495 241.518C279.151 241.518 286.98 233.689 286.98 224.033C286.98 214.376 279.151 206.548 269.495 206.548C259.838 206.548 252.01 214.376 252.01 224.033C252.01 233.689 259.838 241.518 269.495 241.518Z" fill="#C7EE1A"/>
</g>
<g filter="url(#filter1_d_111_8058)">
<rect x="185.274" width="120" height="120" rx="60" fill="#9896FF"/>
<rect x="186.274" y="1" width="118" height="118" rx="59" stroke="white" stroke-width="2"/>
<g clip-path="url(#clip0_111_8058)">
<path d="M234.352 79.0443C239.004 79.0443 242.775 75.271 242.775 70.6183C242.775 65.9655 239.001 62.1953 234.352 62.1953C229.702 62.1953 225.929 65.9655 225.929 70.6183C225.929 75.271 229.699 79.0443 234.352 79.0443Z" fill="white"/>
<path d="M256.371 79.0443C261.024 79.0443 264.794 75.271 264.794 70.6183C264.794 65.9655 261.021 62.1953 256.371 62.1953C251.721 62.1953 247.948 65.9655 247.948 70.6183C247.948 75.271 251.721 79.0443 256.371 79.0443Z" fill="white"/>
<path d="M245.347 35.8442C222.473 35.8442 203.928 54.7421 203.934 78.0494H214.515C214.515 60.583 228.211 46.422 245.347 46.422C262.483 46.422 276.179 60.583 276.179 78.0494H286.76C286.764 54.7452 268.218 35.8442 245.347 35.8442Z" fill="white"/>
</g>
</g>
<g filter="url(#filter2_d_111_8058)">
<rect x="71.1338" y="341.112" width="120" height="120" rx="60" fill="#0A0A0A"/>
<rect x="72.1338" y="342.112" width="118" height="118" rx="59" stroke="white" stroke-width="2"/>
<path d="M173.092 406.347L169.915 393.95C169.824 393.586 169.531 393.302 169.166 393.211L156.894 390.183C156.803 390.163 156.702 390.152 156.611 390.152C156.317 390.122 156.014 390.213 155.791 390.436L135.08 411.168L132.338 400.453C132.247 400.088 131.954 399.804 131.59 399.713L121.047 397.11L141.748 376.388C141.869 376.267 141.94 376.115 141.991 375.963C142.082 375.76 142.112 375.528 142.051 375.305L138.874 362.908C138.783 362.543 138.49 362.26 138.126 362.169L125.853 359.14C125.61 359.08 125.367 359.12 125.155 359.221H125.145C125.084 359.252 125.034 359.292 124.973 359.333C124.922 359.373 124.851 359.394 124.811 359.444L89.4805 394.791C89.4805 394.791 89.4197 394.892 89.3792 394.943C89.1566 395.206 89.0757 395.551 89.1769 395.885L92.6067 407.866C92.708 408.211 92.971 408.474 93.3048 408.565L104.798 411.867L108.097 423.362C108.198 423.707 108.461 423.97 108.795 424.061L120.329 427.373L123.637 438.919C123.738 439.263 124.002 439.526 124.335 439.618L136.355 443.071C136.446 443.102 136.547 443.112 136.638 443.112C136.659 443.112 136.679 443.102 136.709 443.102C136.709 443.102 136.719 443.102 136.729 443.102C136.993 443.102 137.256 443 137.458 442.798L172.799 407.421C172.92 407.299 172.991 407.147 173.042 406.995C173.133 406.793 173.163 406.56 173.102 406.337L173.092 406.347ZM157.248 420.091L154.668 410.014L160.384 404.301L170.209 407.127L157.258 420.101L157.248 420.091ZM137.205 440.154L134.625 430.077L144.965 419.726L154.789 422.552L137.205 440.154ZM145.178 416.617L142.709 408.008L151.582 410.196L145.178 416.607V416.617ZM152.988 411.695L155.255 420.537L146.624 418.055L152.988 411.685V411.695ZM153.282 408.504L143.225 406.023L156.145 393.089L158.938 402.843L153.282 408.504ZM140.726 408.515L143.518 418.268L133.229 428.568L123.172 426.087L140.726 408.515ZM168.084 395.034L170.664 405.111L160.911 402.306L158.118 392.573L168.084 395.034ZM121.654 424.588L119.074 414.51L122.798 410.783L132.622 413.609L121.654 424.588ZM123.01 407.674L120.541 399.065L129.414 401.253L123.01 407.664V407.674ZM133.087 411.604L124.457 409.122L130.821 402.752L133.087 411.593V411.604ZM121.361 409.335L117.688 413.011L107.631 410.53L118.568 399.582L121.361 409.335ZM109.786 377.361L112.579 387.114L102.198 397.505L92.1413 395.024L109.786 377.361ZM125.114 362.017L127.907 371.77L122.342 377.34L112.285 374.859L125.114 362.017ZM126.308 388.927L123.728 378.86L129.354 373.228L139.178 376.044L126.308 388.927ZM114.238 385.463L111.77 376.854L120.643 379.042L114.238 385.453V385.463ZM122.049 380.541L124.315 389.383L115.695 386.901L122.059 380.531L122.049 380.541ZM114.036 388.562L123.86 391.378L106.184 409.072L103.605 399.004L114.036 388.562ZM137.053 363.982L139.633 374.059L129.88 371.254L127.087 361.52L137.053 363.982ZM91.6354 397.019L100.509 399.207L94.1041 405.618L91.6354 397.009V397.019ZM95.5509 407.076L101.915 400.706L104.181 409.548L95.561 407.066L95.5509 407.076ZM109.908 422.258L107.115 412.525L117.081 414.986L119.661 425.064L109.908 422.258ZM122.666 428.082L131.539 430.269L125.135 436.68L122.666 428.072V428.082ZM126.582 438.139L132.946 431.768L135.212 440.61L126.582 438.129V438.139Z" fill="url(#paint0_linear_111_8058)"/>
</g>
<g filter="url(#filter3_d_111_8058)">
<g clip-path="url(#clip1_111_8058)">
<rect x="299.414" y="341.112" width="120" height="120" rx="60" fill="#282828"/>
<path fill-rule="evenodd" clip-rule="evenodd" d="M328.035 426.026C325.813 424.667 324.454 422.252 324.454 419.651V405.132C324.454 403.408 325.858 402.011 327.582 402.019C328.132 402.019 328.674 402.167 329.15 402.442L361.91 421.546C363.827 422.66 365.009 424.711 365.009 426.933V441.972C365.016 444.038 363.344 445.717 361.279 445.717C360.588 445.717 359.904 445.524 359.317 445.167L328.035 426.026ZM376.868 398.467C378.785 399.582 379.959 401.64 379.966 403.854V434.378C379.966 435.277 379.483 436.109 378.695 436.548L371.525 440.583C371.436 440.635 371.339 440.672 371.235 440.701V423.753C371.235 421.561 370.084 419.525 368.196 418.395L339.426 401.187V382.053C339.426 380.329 340.83 378.932 342.554 378.94C343.104 378.94 343.646 379.089 344.122 379.363L376.868 398.467ZM391.208 375.923C393.133 377.038 394.314 379.096 394.314 381.318V425.9C394.307 426.814 393.801 427.654 392.999 428.092L386.2 431.763V400.726C386.2 398.534 385.048 396.505 383.176 395.376L353.766 377.736V359.591C353.766 359.041 353.915 358.499 354.183 358.023C355.052 356.537 356.962 356.032 358.448 356.894L391.208 375.923Z" fill="#00D395"/>
</g>
<rect x="300.414" y="342.112" width="118" height="118" rx="59" stroke="white" stroke-width="2"/>
</g>
<g filter="url(#filter4_d_111_8058)">
<g clip-path="url(#clip2_111_8058)">
<rect x="0.547272" y="137.642" width="120" height="120" rx="60" fill="white"/>
<g clip-path="url(#clip3_111_8058)">
<mask id="mask0_111_8058" style="mask-type:luminance" maskUnits="userSpaceOnUse" x="-14" y="123" width="149" height="149">
<path d="M134.851 197.642C134.851 156.605 101.584 123.338 60.5473 123.338C19.5103 123.338 -13.7567 156.605 -13.7567 197.642C-13.7567 238.679 19.5103 271.946 60.5473 271.946C101.584 271.946 134.851 238.679 134.851 197.642Z" fill="white"/>
</mask>
<g mask="url(#mask0_111_8058)">
<path d="M134.851 197.642C134.851 156.605 101.584 123.338 60.5473 123.338C19.5103 123.338 -13.7567 156.605 -13.7567 197.642C-13.7567 238.679 19.5103 271.946 60.5473 271.946C101.584 271.946 134.851 238.679 134.851 197.642Z" fill="#FFAA7D"/>
<path fill-rule="evenodd" clip-rule="evenodd" d="M60.6172 152.905L81.7899 184.844L60.6161 196.735L39.4446 184.843L60.6172 152.905ZM45.926 183.333L60.6172 161.172L75.3084 183.333L60.6163 191.584L45.926 183.333Z" fill="white"/>
<path d="M60.5857 203.755L36.0247 189.959L35.3541 190.971C27.7894 202.382 29.4787 217.327 39.4159 226.901C51.1093 238.168 70.0684 238.168 81.762 226.901C91.699 217.327 93.3885 202.382 85.8238 190.971L85.1528 189.959L60.5857 203.755Z" fill="white"/>
</g>
</g>
</g>
<rect x="1.54727" y="138.642" width="118" height="118" rx="59" stroke="white" stroke-width="2"/>
</g>
<g filter="url(#filter5_d_111_8058)">
<rect x="370" y="137.642" width="120" height="120" rx="60" fill="#2470FF"/>
<rect x="371" y="138.642" width="118" height="118" rx="59" stroke="white" stroke-width="2"/>
<path opacity="0.8" d="M402.533 213.345V232.958C402.533 234.165 403.551 234.665 403.865 234.779C404.18 234.915 405.246 235.214 406.194 234.323L420.961 220.066C422.219 218.85 423.434 217.577 424.342 216.084C424.771 215.382 424.95 214.987 424.95 214.987C425.854 213.144 425.854 211.366 424.972 209.588C423.661 206.946 420.319 204.259 415.277 201.709L406.666 206.537C404.114 207.995 402.529 210.567 402.529 213.345H402.533Z" fill="white"/>
<path d="M394.044 169.727V190.296C394.044 192.869 395.761 195.147 398.203 195.875C406.517 198.29 421.005 203.482 424.508 211.111C424.958 212.112 425.229 213.091 425.321 214.118C427.65 209.86 428.711 204.962 428.213 199.997C427.536 192.961 423.827 186.561 418.042 182.483L397.413 167.976C397.05 167.704 396.622 167.568 396.194 167.568C395.831 167.568 395.517 167.638 395.176 167.818C394.499 168.204 394.044 168.911 394.044 169.732V169.727Z" fill="white"/>
<path opacity="0.8" d="M457.454 213.345V232.958C457.454 234.165 456.436 234.665 456.122 234.779C455.807 234.915 454.741 235.214 453.793 234.323L438.685 219.736C437.659 218.744 436.676 217.691 435.898 216.488C435.286 215.536 435.037 214.987 435.037 214.987C434.133 213.144 434.133 211.366 435.016 209.588C436.326 206.946 439.673 204.259 444.71 201.709L453.321 206.537C455.899 207.995 457.458 210.567 457.458 213.345H457.454Z" fill="white"/>
<path d="M465.956 169.727V190.292C465.956 192.864 464.239 195.142 461.797 195.871C453.483 198.285 438.996 203.478 435.492 211.107C435.037 212.108 434.767 213.087 434.679 214.114C432.351 209.856 431.289 204.957 431.787 199.993C432.464 192.956 436.169 186.557 441.958 182.479L462.588 167.972C462.95 167.7 463.378 167.563 463.806 167.563C464.169 167.563 464.484 167.634 464.824 167.814C465.502 168.2 465.956 168.907 465.956 169.727Z" fill="white"/>
</g>
<defs>
<filter id="filter0_d_111_8058" x="170.255" y="173.548" width="158" height="158" filterUnits="userSpaceOnUse" color-interpolation-filters="sRGB">
<feFlood flood-opacity="0" result="BackgroundImageFix"/>
<feColorMatrix in="SourceAlpha" type="matrix" values="0 0 0 0 0 0 0 0 0 0 0 0 0 0 0 0 0 0 127 0" result="hardAlpha"/>
<feOffset dx="8" dy="8"/>
<feComposite in2="hardAlpha" operator="out"/>
<feColorMatrix type="matrix" values="0 0 0 0 1 0 0 0 0 1 0 0 0 0 1 0 0 0 1 0"/>
<feBlend mode="normal" in2="BackgroundImageFix" result="effect1_dropShadow_111_8058"/>
<feBlend mode="normal" in="SourceGraphic" in2="effect1_dropShadow_111_8058" result="shape"/>
</filter>
<filter id="filter1_d_111_8058" x="185.274" y="0" width="124" height="124" filterUnits="userSpaceOnUse" color-interpolation-filters="sRGB">
<feFlood flood-opacity="0" result="BackgroundImageFix"/>
<feColorMatrix in="SourceAlpha" type="matrix" values="0 0 0 0 0 0 0 0 0 0 0 0 0 0 0 0 0 0 127 0" result="hardAlpha"/>
<feOffset dx="4" dy="4"/>
<feComposite in2="hardAlpha" operator="out"/>
<feColorMatrix type="matrix" values="0 0 0 0 1 0 0 0 0 1 0 0 0 0 1 0 0 0 1 0"/>
<feBlend mode="normal" in2="BackgroundImageFix" result="effect1_dropShadow_111_8058"/>
<feBlend mode="normal" in="SourceGraphic" in2="effect1_dropShadow_111_8058" result="shape"/>
</filter>
<filter id="filter2_d_111_8058" x="71.1338" y="341.112" width="124" height="124" filterUnits="userSpaceOnUse" color-interpolation-filters="sRGB">
<feFlood flood-opacity="0" result="BackgroundImageFix"/>
<feColorMatrix in="SourceAlpha" type="matrix" values="0 0 0 0 0 0 0 0 0 0 0 0 0 0 0 0 0 0 127 0" result="hardAlpha"/>
<feOffset dx="4" dy="4"/>
<feComposite in2="hardAlpha" operator="out"/>
<feColorMatrix type="matrix" values="0 0 0 0 1 0 0 0 0 1 0 0 0 0 1 0 0 0 1 0"/>
<feBlend mode="normal" in2="BackgroundImageFix" result="effect1_dropShadow_111_8058"/>
<feBlend mode="normal" in="SourceGraphic" in2="effect1_dropShadow_111_8058" result="shape"/>
</filter>
<filter id="filter3_d_111_8058" x="299.414" y="341.112" width="124" height="124" filterUnits="userSpaceOnUse" color-interpolation-filters="sRGB">
<feFlood flood-opacity="0" result="BackgroundImageFix"/>
<feColorMatrix in="SourceAlpha" type="matrix" values="0 0 0 0 0 0 0 0 0 0 0 0 0 0 0 0 0 0 127 0" result="hardAlpha"/>
<feOffset dx="4" dy="4"/>
<feComposite in2="hardAlpha" operator="out"/>
<feColorMatrix type="matrix" values="0 0 0 0 1 0 0 0 0 1 0 0 0 0 1 0 0 0 1 0"/>
<feBlend mode="normal" in2="BackgroundImageFix" result="effect1_dropShadow_111_8058"/>
<feBlend mode="normal" in="SourceGraphic" in2="effect1_dropShadow_111_8058" result="shape"/>
</filter>
<filter id="filter4_d_111_8058" x="0.547272" y="137.642" width="124" height="124" filterUnits="userSpaceOnUse" color-interpolation-filters="sRGB">
<feFlood flood-opacity="0" result="BackgroundImageFix"/>
<feColorMatrix in="SourceAlpha" type="matrix" values="0 0 0 0 0 0 0 0 0 0 0 0 0 0 0 0 0 0 127 0" result="hardAlpha"/>
<feOffset dx="4" dy="4"/>
<feComposite in2="hardAlpha" operator="out"/>
<feColorMatrix type="matrix" values="0 0 0 0 1 0 0 0 0 1 0 0 0 0 1 0 0 0 1 0"/>
<feBlend mode="normal" in2="BackgroundImageFix" result="effect1_dropShadow_111_8058"/>
<feBlend mode="normal" in="SourceGraphic" in2="effect1_dropShadow_111_8058" result="shape"/>
</filter>
<filter id="filter5_d_111_8058" x="370" y="137.642" width="124" height="124" filterUnits="userSpaceOnUse" color-interpolation-filters="sRGB">
<feFlood flood-opacity="0" result="BackgroundImageFix"/>
<feColorMatrix in="SourceAlpha" type="matrix" values="0 0 0 0 0 0 0 0 0 0 0 0 0 0 0 0 0 0 127 0" result="hardAlpha"/>
<feOffset dx="4" dy="4"/>
<feComposite in2="hardAlpha" operator="out"/>
<feColorMatrix type="matrix" values="0 0 0 0 1 0 0 0 0 1 0 0 0 0 1 0 0 0 1 0"/>
<feBlend mode="normal" in2="BackgroundImageFix" result="effect1_dropShadow_111_8058"/>
<feBlend mode="normal" in="SourceGraphic" in2="effect1_dropShadow_111_8058" result="shape"/>
</filter>
<linearGradient id="paint0_linear_111_8058" x1="94.9541" y1="414.298" x2="167.707" y2="387.841" gradientUnits="userSpaceOnUse">
<stop stop-color="#29BCFA"/>
<stop offset="0.43" stop-color="#6464E4"/>
<stop offset="1" stop-color="#B45AFA"/>
</linearGradient>
<clipPath id="clip0_111_8058">
<rect width="82.8262" height="43.2" fill="white" transform="translate(203.934 35.8442)"/>
</clipPath>
<clipPath id="clip1_111_8058">
<rect x="299.414" y="341.112" width="120" height="120" rx="60" fill="white"/>
</clipPath>
<clipPath id="clip2_111_8058">
<rect x="0.547272" y="137.642" width="120" height="120" rx="60" fill="white"/>
</clipPath>
<clipPath id="clip3_111_8058">
<rect width="148.608" height="148.608" fill="white" transform="translate(-13.7567 123.338)"/>
</clipPath>
</defs>
</svg>
