<svg width="24" height="24" viewBox="0 0 24 24" fill="none" xmlns="http://www.w3.org/2000/svg">
<rect width="24" height="24" rx="12" fill="#E0E8FF" fill-opacity="0.2"/>
<path fill-rule="evenodd" clip-rule="evenodd" d="M14.875 6.23438H6V14.7344H9.5V18.2344H18V9.35938H17.125V17.3594H10.5V14.7344L11.5625 14.75C12.6863 14.7736 13.6937 14.6963 14.5796 13.9331C14.9481 13.5213 15.1405 13.1709 15.1767 12.6079C15.1974 11.628 15.1716 10.9967 14.5 10.2344C13.5928 9.52875 12.8003 9.45647 11.6853 9.46252L11.1953 9.46875L9.625 9.48438V13.1094H10.5V10.3594L11.8438 10.3984L12.2656 10.4063L12.5996 10.4204C12.7729 10.4213 12.8572 10.4219 12.9407 10.4303C13.0197 10.4385 13.0981 10.4528 13.25 10.4844C13.6824 10.7582 13.923 10.9906 14.125 11.4844C14.1924 12.1237 14.2125 12.6724 13.875 13.2344C13.2699 13.7205 12.5942 13.7948 11.8419 13.8101L11.4649 13.8107C11.2213 13.8146 10.9777 13.8185 10.7342 13.8223L9.8125 13.8281L6.875 13.8594V7.10938H14.875V6.23438ZM18 6.23438H15.75V7.10938H17.125V8.48438H18V6.23438Z" fill="white"/>
</svg>