<svg width="17" height="17" viewBox="0 0 17 17" fill="none" xmlns="http://www.w3.org/2000/svg">
<g id="share-07">
<path id="Icon" d="M6.22667 9.50732L10.78 12.1607M10.7733 4.84065L6.22667 7.49398M14.5 3.83398C14.5 4.93855 13.6046 5.83398 12.5 5.83398C11.3954 5.83398 10.5 4.93855 10.5 3.83398C10.5 2.72941 11.3954 1.83398 12.5 1.83398C13.6046 1.83398 14.5 2.72941 14.5 3.83398ZM6.5 8.50065C6.5 9.60522 5.60457 10.5007 4.5 10.5007C3.39543 10.5007 2.5 9.60522 2.5 8.50065C2.5 7.39608 3.39543 6.50065 4.5 6.50065C5.60457 6.50065 6.5 7.39608 6.5 8.50065ZM14.5 13.1673C14.5 14.2719 13.6046 15.1673 12.5 15.1673C11.3954 15.1673 10.5 14.2719 10.5 13.1673C10.5 12.0627 11.3954 11.1673 12.5 11.1673C13.6046 11.1673 14.5 12.0627 14.5 13.1673Z" stroke="white" stroke-width="1.5" stroke-linecap="round" stroke-linejoin="round"/>
</g>
</svg>
