<svg width="24" height="24" viewBox="0 0 24 24" fill="none" xmlns="http://www.w3.org/2000/svg">
<rect width="24" height="24" rx="12" fill="#E0E8FF" fill-opacity="0.2"/>
<g clip-path="url(#clip0_3331_14677)">
<path fill-rule="evenodd" clip-rule="evenodd" d="M15.724 17.2424C15.9118 17.37 16.1539 17.402 16.3697 17.3236C16.5856 17.2446 16.7442 17.0676 16.792 16.8532C17.299 14.5661 18.5286 8.77738 18.99 6.69698C19.025 6.54018 18.9667 6.37722 18.8383 6.2725C18.71 6.16778 18.5321 6.13754 18.3734 6.1941C15.9276 7.06322 8.39515 9.77642 5.31639 10.8701C5.12098 10.9395 4.99382 11.1199 5.00023 11.3175C5.00723 11.5158 5.14606 11.6877 5.34614 11.7454C6.72686 12.1419 8.53923 12.6935 8.53923 12.6935C8.53923 12.6935 9.38622 15.1491 9.82779 16.3979C9.8832 16.5547 10.011 16.6779 10.1795 16.7204C10.3475 16.7624 10.5272 16.7182 10.6526 16.6045C11.3619 15.9616 12.4586 14.9676 12.4586 14.9676C12.4586 14.9676 14.5422 16.4343 15.724 17.2424ZM9.30163 12.3832L10.281 15.4845L10.4986 13.5206C10.4986 13.5206 14.2826 10.244 16.4397 8.37642C16.5027 8.32154 16.5115 8.2297 16.459 8.1653C16.4071 8.1009 16.3114 8.08578 16.2396 8.12946C13.7395 9.66218 9.30163 12.3832 9.30163 12.3832Z" fill="white"/>
</g>
<defs>
<clipPath id="clip0_3331_14677">
<rect width="14" height="14" fill="white" transform="translate(5 5)"/>
</clipPath>
</defs>
</svg>
