<svg width="86" height="86" viewBox="0 0 86 86" fill="none" xmlns="http://www.w3.org/2000/svg">
<path d="M76.1089 52.7902C80.4103 40.0513 76.9887 25.286 65.8204 17.18C54.457 8.93276 38.8282 10.1676 27.6014 17.9725C16.1056 25.9638 9.3486 40.5386 12.3483 54.4274C15.2176 67.7142 26.7545 77.2259 40.3229 77.8607C54.3349 78.516 67.7267 70.0025 74.0341 57.6843C74.8431 56.1055 75.534 54.4684 76.1089 52.7902Z" fill="#2B50FF"/>
<path d="M41.85 77.999C41.3387 77.999 40.8285 77.9867 40.3183 77.9631C36.9686 77.8065 33.6968 77.1102 30.5934 75.8949C27.5578 74.7062 24.7531 73.0475 22.2575 70.967C19.7536 68.8793 17.6265 66.42 15.9337 63.6586C14.1947 60.8194 12.9535 57.7212 12.2472 54.4489C10.7966 47.7323 11.5563 40.643 14.4441 33.948C17.2067 27.5426 21.8582 21.8397 27.5424 17.8886C33.1466 13.9927 39.9344 11.7075 46.6555 11.4546C53.7759 11.1873 60.4251 13.1378 65.8805 17.0971C71.2577 21.0001 75.0561 26.5751 76.864 33.22C78.5794 39.5219 78.3453 46.4842 76.2049 52.822C75.6249 54.5155 74.9247 56.1659 74.124 57.7294C70.9775 63.8747 66.134 69.0595 60.1192 72.724C54.4319 76.1877 48.1461 77.9979 41.849 77.9979L41.85 77.999ZM47.9449 11.6358C47.5199 11.6358 47.0928 11.644 46.6637 11.6604C39.9816 11.9122 33.2328 14.1842 27.6604 18.0575C22.008 21.9871 17.3812 27.6593 14.633 34.0299C11.7627 40.6861 11.0071 47.7323 12.4484 54.4069C13.1506 57.6557 14.3815 60.7334 16.1092 63.5532C17.7898 66.2961 19.9025 68.7381 22.3889 70.8114C24.8681 72.8786 27.6533 74.525 30.6684 75.7055C33.7502 76.9126 37.0004 77.6037 40.3276 77.7594C47.0928 78.0758 53.9001 76.2748 60.0135 72.5509C65.9954 68.907 70.8122 63.7498 73.9423 57.6383C74.7379 56.084 75.4349 54.4417 76.0119 52.7575C78.139 46.4576 78.372 39.5383 76.6668 33.2743C74.8703 26.6744 71.0996 21.1383 65.7603 17.263C60.6705 13.5688 54.5346 11.6348 47.9449 11.6348V11.6358Z" fill="#0A0A0A"/>
<path d="M63.7762 70.0649L35.5049 13.9742L29.4829 16.9936L58.094 73.758C60.0918 72.7014 61.9961 71.4625 63.7762 70.0649Z" fill="#0A0A0A"/>
<path d="M58.0939 73.8605C58.0837 73.8605 58.0724 73.8584 58.0631 73.8554C58.0364 73.8472 58.0149 73.8287 58.0026 73.8042L29.3915 17.0398C29.3791 17.0152 29.3771 16.9876 29.3853 16.962C29.3935 16.9364 29.412 16.9149 29.4366 16.9026L35.4586 13.8832C35.5099 13.8576 35.5715 13.8781 35.5962 13.9282L63.8675 70.0189C63.889 70.0619 63.8777 70.1152 63.8387 70.1459C62.0545 71.5465 60.1368 72.7926 58.1412 73.8492C58.1258 73.8574 58.1093 73.8615 58.0929 73.8615L58.0939 73.8605ZM29.6204 17.0398L58.1381 73.6188C60.066 72.5919 61.918 71.3868 63.6468 70.0363L35.4596 14.1125L29.6204 17.0398Z" fill="#0A0A0A"/>
<path d="M25.9682 19.1776C15.4754 27.3727 9.49343 41.2103 12.3484 54.4274C15.2177 67.7142 26.7545 77.2259 40.323 77.8607C45.1603 78.087 49.9237 77.2198 54.3473 75.4813L25.9682 19.1776Z" fill="#0A0A0A"/>
<path d="M41.8586 78C41.3453 78 40.832 77.9877 40.3187 77.9642C36.9689 77.8075 33.6972 77.1113 30.5938 75.897C27.5582 74.7083 24.7535 73.0496 22.2579 70.9691C19.754 68.8814 17.6269 66.4221 15.9341 63.6607C14.195 60.8215 12.9539 57.7233 12.2476 54.451C10.8689 48.0672 11.4951 41.3004 14.0575 34.8828C16.5367 28.673 20.6338 23.2148 25.9054 19.0978C25.93 19.0783 25.9608 19.0712 25.9906 19.0783C26.0203 19.0855 26.046 19.105 26.0593 19.1326L54.4384 75.4362C54.4518 75.4618 54.4528 75.4915 54.4425 75.5192C54.4323 75.5458 54.4107 75.5673 54.384 75.5775C50.289 77.1871 46.082 78 41.8576 78H41.8586ZM25.9331 19.3353C20.7385 23.4206 16.6989 28.8194 14.2484 34.9575C11.7004 41.3373 11.0783 48.0631 12.4488 54.406C13.151 57.6547 14.3819 60.7325 16.1096 63.5522C17.7901 66.2951 19.9029 68.7371 22.3893 70.8104C24.8685 72.8776 27.6536 74.524 30.6687 75.7045C33.7506 76.9116 37.0008 77.6028 40.3279 77.7584C45.003 77.9765 49.672 77.1932 54.2054 75.427L25.9331 19.3353Z" fill="#0A0A0A"/>
<path d="M72.9107 48.6057C68.6657 62.0215 56.6197 72.5079 42.5421 74.312C29.0434 76.0413 15.6269 68.9879 10.4057 56.2755C5.02221 43.1689 9.50636 27.8447 19.5659 18.2653C29.5403 8.7669 44.8519 4.99702 57.6186 11.001C69.8782 16.7664 76.1619 30.3255 74.1128 43.4648C73.8418 45.2054 73.4332 46.9225 72.9097 48.6047L72.9107 48.6057Z" fill="#2B50FF"/>
<path d="M38.5354 74.6703C33.2166 74.6703 27.9317 73.3403 23.3203 70.8001C17.3507 67.5124 12.8521 62.5036 10.3113 56.3154C7.71816 50.0022 7.29829 42.9508 9.09585 35.923C10.8031 29.2494 14.4967 22.9526 19.4952 18.1926C24.4639 13.4613 30.8668 10.0979 37.5242 8.72077C44.5605 7.26585 51.5238 8.02249 57.6629 10.9098C63.6089 13.706 68.3322 18.3789 71.3237 24.4239C74.1982 30.2323 75.2248 37.0011 74.2146 43.4822C73.9487 45.1849 73.5432 46.9183 73.0084 48.6363C68.6936 62.2733 56.4556 72.6328 42.5545 74.4143C41.2199 74.5853 39.8761 74.6703 38.5344 74.6703H38.5354ZM44.4588 8.20576C42.187 8.20576 39.8813 8.44329 37.5663 8.92247C30.9458 10.2914 24.5779 13.6364 19.6369 18.3421C14.6651 23.0764 10.992 29.3384 9.29398 35.9752C7.50669 42.96 7.92451 49.9663 10.5002 56.2386C13.0236 62.3828 17.4913 67.3568 23.4188 70.6219C29.1554 73.7816 35.9412 75.0573 42.5278 74.2126C56.3499 72.4413 68.5201 62.1381 72.8113 48.577C73.343 46.8681 73.7465 45.1439 74.0103 43.4515C75.0143 37.0113 73.9949 30.2865 71.1389 24.516C68.168 18.5131 63.4775 13.8729 57.5746 11.0972C53.4949 9.17844 49.0477 8.20678 44.4578 8.20678L44.4588 8.20576Z" fill="#0A0A0A"/>
<path d="M56.2628 13.5269C44.5576 8.02254 30.521 11.4791 21.3772 20.1861C12.1553 28.9678 8.04382 43.0164 12.9797 55.0325C17.7667 66.6872 30.0663 73.153 42.4408 71.567C55.3461 69.9135 66.3902 60.2993 70.282 47.9995C70.7624 46.4576 71.1361 44.8829 71.3845 43.2877C73.2632 31.2419 67.503 18.8121 56.2628 13.5258V13.5269ZM68.0183 43.0686C67.7976 44.4856 67.465 45.8842 67.039 47.2531C63.5834 58.1758 53.7754 66.7139 42.3145 68.1821C31.3249 69.5899 20.4019 63.848 16.1508 53.4977C11.7683 42.827 15.4189 30.3511 23.609 22.5523C31.7293 14.819 44.1952 11.7494 54.5895 16.6384C64.571 21.3318 69.6865 32.3712 68.0183 43.0686Z" fill="#1A1B1F"/>
<path d="M38.7673 71.9038C33.8899 71.9038 29.0434 70.6844 24.8149 68.3551C19.3411 65.3398 15.2152 60.7467 12.8849 55.0714C10.5073 49.2824 10.1213 42.8157 11.77 36.3715C13.3355 30.2518 16.7222 24.4782 21.307 20.1124C25.863 15.7743 31.7341 12.6893 37.8392 11.4269C44.2914 10.0928 50.6778 10.787 56.3076 13.4337C61.7598 15.9975 66.0921 20.2834 68.8361 25.8266C71.4724 31.1538 72.4138 37.3605 71.4868 43.3031C71.2435 44.8634 70.8708 46.4545 70.3801 48.0303C66.4236 60.5358 55.201 70.0353 42.4538 71.6684C41.2301 71.825 39.9971 71.9028 38.7673 71.9028V71.9038ZM44.1969 10.9713C42.115 10.9713 40.0012 11.1894 37.8803 11.6276C31.8121 12.8828 25.9759 15.9483 21.4477 20.2609C16.8906 24.6 13.5244 30.3398 11.9681 36.4226C10.3307 42.8239 10.7126 49.2456 13.0737 54.9946C15.3867 60.6259 19.4807 65.1842 24.9134 68.1759C30.1706 71.0714 36.3907 72.2407 42.4271 71.4666C55.0962 69.8428 66.2502 60.4007 70.183 47.9709C70.6707 46.4054 71.0402 44.8245 71.2825 43.2734C72.2034 37.3707 71.2681 31.2081 68.6503 25.9188C65.9278 20.4175 61.6284 16.1643 56.2183 13.62C52.4795 11.862 48.4039 10.9713 44.1969 10.9713ZM39.0003 68.4964C28.952 68.4964 19.8061 62.6696 16.055 53.5366C13.9422 48.3927 13.6004 42.6478 15.0643 36.9233C16.4553 31.4866 19.4643 26.357 23.5368 22.4786C27.5846 18.6247 32.8007 15.8838 38.2242 14.7627C43.9567 13.577 49.6307 14.1944 54.6322 16.5463C59.4767 18.8244 63.3254 22.6321 65.7636 27.5569C68.1062 32.2893 68.9419 37.8038 68.1185 43.0839C67.9019 44.4713 67.5714 45.8842 67.1361 47.2828C63.6211 58.3928 53.6508 66.8316 42.3265 68.2834C41.2116 68.4268 40.0998 68.4964 39.0003 68.4964ZM43.8735 14.3808C42.0257 14.3808 40.1491 14.5743 38.2663 14.9633C32.8798 16.0773 27.6986 18.7988 23.6784 22.627C19.6337 26.4788 16.6453 31.5746 15.2635 36.9735C13.8098 42.656 14.1496 48.3569 16.2449 53.4588C20.3708 63.505 31.0843 69.5172 42.2998 68.0797C53.5461 66.6381 63.4476 58.2567 66.939 47.2214C67.3712 45.832 67.6997 44.4293 67.9153 43.0522C68.7325 37.8131 67.903 32.3425 65.5788 27.647C63.1622 22.7632 59.3463 18.9892 54.5439 16.7305C51.225 15.1702 47.6073 14.3797 43.8725 14.3797L43.8735 14.3808Z" fill="#0A0A0A"/>
<path d="M38.3184 74.5967C37.8133 74.5967 37.3083 74.5844 36.8042 74.5619C33.4606 74.4062 30.194 73.7121 27.0967 72.4988C24.0662 71.3121 21.2667 69.6575 18.7762 67.5801C16.2775 65.4965 14.1535 63.0423 12.4647 60.285C10.7288 57.451 9.49069 54.3578 8.78645 51.0927C8.05347 47.6965 7.88613 44.1816 8.28855 40.6431C8.67558 37.2398 9.58308 33.8671 10.9844 30.6194C12.3621 27.428 14.1843 24.4281 16.4017 21.7036C18.6356 18.9596 21.2144 16.5617 24.0693 14.5774C26.8668 12.6321 29.9373 11.0901 33.1937 9.99355C36.45 8.89699 39.8029 8.27652 43.1578 8.14956C46.5999 8.01953 49.961 8.41269 53.1486 9.31984C56.486 10.27 59.5822 11.77 62.3509 13.7798C65.0755 15.7569 67.4089 18.1804 69.2855 20.9838C71.0831 23.6673 72.4372 26.6581 73.3118 29.874C74.167 33.0173 74.5437 36.3009 74.4329 39.6336C74.321 42.9755 73.7215 46.2764 72.6507 49.4474C72.0707 51.1388 71.3716 52.7883 70.5719 54.3497C69.0084 57.4018 67.0004 60.2471 64.6043 62.8048C62.2339 65.3348 59.535 67.5299 56.5825 69.3278C53.592 71.1493 50.4065 72.5254 47.1142 73.4151C44.208 74.2015 41.2555 74.5977 38.3205 74.5977L38.3184 74.5967ZM44.4369 8.15161C44.0119 8.15161 43.5848 8.1598 43.1567 8.17618C39.8039 8.30314 36.4541 8.92258 33.1998 10.0191C29.9455 11.1147 26.8781 12.6566 24.0827 14.5999C21.2298 16.5832 18.652 18.979 16.4202 21.721C14.2038 24.4434 12.3826 27.4413 11.0059 30.6307C9.60567 33.8763 8.69919 37.2469 8.31217 40.6472C7.90974 44.1826 8.07708 47.6955 8.81006 51.0886C9.5143 54.3517 10.7513 57.4417 12.4853 60.2738C14.173 63.028 16.2939 65.4801 18.7906 67.5627C21.2801 69.6381 24.0765 71.2916 27.1039 72.4773C30.1981 73.6885 33.4616 74.3827 36.8032 74.5383C40.233 74.698 43.6988 74.3131 47.104 73.3916C50.3942 72.5018 53.5777 71.1278 56.5661 69.3074C59.5165 67.5105 62.2134 65.3163 64.5827 62.7884C66.9778 60.2318 68.9848 57.3895 70.5462 54.3384C71.3449 52.778 72.044 51.1306 72.624 49.4402C73.6937 46.2723 74.2933 42.9734 74.4052 39.6336C74.516 36.3039 74.1393 33.0224 73.2851 29.8812C72.4115 26.6683 71.0574 23.6806 69.2619 20.9991C67.3863 18.1988 65.055 15.7774 62.3335 13.8013C59.5668 11.7935 56.4737 10.2946 53.1393 9.34544C50.3511 8.55194 47.4294 8.15161 44.4369 8.15161Z" fill="#0A0A0A"/>
<path d="M55.1013 20.393C52.7823 18.9472 50.1963 17.993 47.5097 17.4985C37.3064 15.7548 26.9881 20.9315 21.4877 29.53C19.9858 31.8777 18.8575 34.4517 18.142 37.1435C16.5179 43.3563 17.253 50.1763 20.7403 55.6479C23.9361 60.6956 29.1337 64.0876 34.9966 65.1903C41.153 66.2879 47.521 64.8289 52.7587 61.4757C58.4696 57.8533 62.7115 52.052 64.4269 45.5249C66.8671 36.0776 63.5902 25.6853 55.1024 20.393H55.1013Z" fill="#1A1B1F"/>
<path d="M39.098 65.6552C37.7142 65.6552 36.3385 65.5344 34.9783 65.2917C29.023 64.1716 23.8018 60.6771 20.6532 55.7031C17.2881 50.422 16.3364 43.6471 18.0426 37.1179C18.7643 34.4026 19.8946 31.8316 21.4016 29.4747C27.1074 20.5547 37.6064 15.7005 47.5274 17.3971C50.3176 17.9101 52.8831 18.8889 55.156 20.3059C59.2541 22.8615 62.298 26.6856 63.958 31.3668C65.5369 35.8165 65.7381 40.854 64.5246 45.5504C62.8051 52.095 58.5365 57.9311 52.8122 61.5617C50.1595 63.2603 47.2758 64.4521 44.2423 65.1023C42.5248 65.4709 40.8042 65.6552 39.097 65.6552H39.098ZM43.5555 17.2671C34.9711 17.2671 26.4853 21.9083 21.5751 29.5852C20.0794 31.9238 18.9583 34.4752 18.2418 37.1701C16.5489 43.644 17.4913 50.3596 20.8267 55.5936C23.9455 60.5194 29.1165 63.9811 35.0153 65.09C38.0252 65.6265 41.1153 65.563 44.2002 64.9016C47.2091 64.2566 50.0702 63.074 52.7024 61.3887C58.3836 57.7847 62.6203 51.9937 64.3265 45.4982C65.5297 40.8417 65.3295 35.8462 63.765 31.4344C62.1204 26.7983 59.1063 23.01 55.0471 20.4789C52.7969 19.0762 50.255 18.1066 47.4914 17.5978C46.1856 17.3746 44.8685 17.266 43.5555 17.266V17.2671Z" fill="#0A0A0A"/>
<path d="M69.134 20.1001C69.1083 20.1001 69.0837 20.0909 69.0632 20.0725L66.2523 17.4248C66.2113 17.3859 66.2092 17.3213 66.2482 17.2804C66.2872 17.2394 66.3519 17.2374 66.393 17.2763L69.2038 19.924C69.2449 19.9629 69.2469 20.0274 69.2079 20.0684C69.1874 20.0899 69.1607 20.1001 69.133 20.1001H69.134Z" fill="#0A0A0A"/>
<path d="M20.5687 69.4067C20.5441 69.4067 20.5184 69.3974 20.4989 69.379L17.7754 66.8716C17.7333 66.8337 17.7312 66.7682 17.7692 66.7272C17.8072 66.6862 17.8729 66.6832 17.914 66.721L20.6375 69.2285C20.6796 69.2664 20.6817 69.3319 20.6437 69.3729C20.6231 69.3944 20.5964 69.4056 20.5687 69.4056V69.4067Z" fill="#0A0A0A"/>
<path d="M17.0602 31.6739C18.6525 28.2736 20.8771 25.1529 23.6078 22.5533C30.0261 16.4418 39.1576 13.2443 47.8364 14.5845L48.6813 11.217C38.902 9.69859 28.6083 13.2985 21.376 20.1861C18.2767 23.1369 15.7564 26.6836 13.9609 30.5466L17.0592 31.6739H17.0602Z" fill="#C7EE1A"/>
<path d="M17.0599 31.7763C17.0486 31.7763 17.0363 31.7742 17.025 31.7701L13.9268 30.6429C13.9001 30.6326 13.8785 30.6121 13.8672 30.5855C13.8559 30.5589 13.857 30.5292 13.8693 30.5036C15.674 26.6201 18.2457 23.0263 21.3059 20.1124C24.9072 16.6824 29.3113 14.0336 34.0418 12.4528C38.8689 10.8392 43.9371 10.3774 48.6985 11.1166C48.7272 11.1207 48.7518 11.1371 48.7683 11.1617C48.7847 11.1863 48.7898 11.2149 48.7826 11.2436L47.9378 14.6111C47.9254 14.6623 47.8751 14.6951 47.8228 14.6879C43.6281 14.0398 39.1625 14.4503 34.9093 15.8735C30.7393 17.2691 26.8567 19.6055 23.6804 22.629C21.001 25.1805 18.7446 28.3238 17.1544 31.7189C17.1369 31.7558 17.1 31.7783 17.061 31.7783L17.0599 31.7763ZM14.1023 30.4893L17.0076 31.5459C18.606 28.16 20.8624 25.0269 23.5377 22.4795C26.7345 19.4345 30.6438 17.0827 34.8426 15.678C39.0957 14.2548 43.5604 13.8371 47.7602 14.4698L48.5558 11.302C43.8591 10.5914 38.8658 11.0562 34.1075 12.6473C29.4057 14.219 25.0283 16.8524 21.4476 20.2608C18.4315 23.1328 15.8937 26.6672 14.1023 30.4893Z" fill="#0A0A0A"/>
<path d="M65.5683 50.983C63.9761 54.3833 61.7515 57.5041 59.0207 60.1037C52.6025 66.2151 43.471 69.4127 34.7921 68.0725L33.9473 71.44C43.7266 72.9584 54.0202 69.3584 61.2525 62.4709C64.3518 59.5201 66.8721 55.9734 68.6676 52.1103L65.5694 50.983H65.5683Z" fill="#1ADEAD"/>
<path d="M38.4265 71.8844C36.9092 71.8844 35.4053 71.7707 33.9311 71.5414C33.9023 71.5373 33.8777 71.5209 33.8613 71.4963C33.8449 71.4717 33.8397 71.4431 33.8469 71.4144L34.6918 68.0469C34.7041 67.9957 34.7544 67.9629 34.8068 67.9701C39.0014 68.6182 43.4671 68.2087 47.7203 66.7845C51.8903 65.3889 55.7729 63.0524 58.9491 60.029C61.6285 57.4775 63.885 54.3342 65.4752 50.939C65.4978 50.8909 65.5532 50.8684 65.6035 50.8858L68.7018 52.0131C68.7285 52.0233 68.75 52.0438 68.7613 52.0704C68.7726 52.097 68.7716 52.1267 68.7592 52.1523C66.9545 56.0359 64.3829 59.6297 61.3226 62.5436C57.7213 65.9736 53.3173 68.6223 48.5867 70.2032C45.2544 71.3171 41.8071 71.8823 38.4255 71.8823L38.4265 71.8844ZM34.0738 71.356C38.7704 72.0666 43.7638 71.6018 48.522 70.0107C53.2238 68.439 57.6012 65.8056 61.182 62.3972C64.1981 59.5252 66.7358 55.9908 68.5272 52.1687L65.622 51.1121C64.0236 54.498 61.7671 57.6311 59.0918 60.1795C55.895 63.2245 51.9858 65.5763 47.787 66.981C43.5338 68.4042 39.0692 68.8219 34.8694 68.1892L34.0738 71.3571V71.356Z" fill="#0A0A0A"/>
<path d="M33.4751 53.041C33.1897 53.041 32.9023 52.9991 32.623 52.9141C31.771 52.655 31.0832 52.0233 30.7547 51.197L26.7612 41.1447C26.1658 39.6468 26.9019 37.9502 28.4038 37.3564C29.9067 36.7625 31.6067 37.4966 32.2021 38.9946L34.8425 45.6415L53.7431 32.6722C55.0746 31.7589 56.8968 32.0947 57.8125 33.4227C58.7282 34.7506 58.3915 36.568 57.06 37.4813L35.1331 52.527C34.6393 52.8659 34.0603 53.041 33.4741 53.041H33.4751Z" fill="#2B50FF"/>
<path d="M33.4751 53.1434C33.1763 53.1434 32.8797 53.0994 32.5932 53.0124C31.7063 52.7431 31.001 52.095 30.6591 51.2349L26.6657 41.1826C26.368 40.4321 26.3803 39.6119 26.7016 38.8707C27.023 38.1304 27.6143 37.5581 28.3657 37.2611C29.1182 36.9642 29.9416 36.9765 30.6838 37.297C31.426 37.6174 31.9988 38.2072 32.2976 38.9567L34.8908 45.4839L53.6856 32.5872C55.0612 31.6432 56.9512 31.9913 57.8977 33.3633C58.3566 34.0278 58.528 34.8315 58.3812 35.625C58.2344 36.4185 57.7858 37.1076 57.1195 37.5652L35.1926 52.611C34.6854 52.9591 34.0921 53.1434 33.4761 53.1434H33.4751ZM29.4837 37.2519C29.1316 37.2519 28.7794 37.3185 28.4427 37.4516C27.7416 37.729 27.1903 38.2615 26.8915 38.9516C26.5928 39.6416 26.5805 40.4075 26.8577 41.1068L30.8511 51.1592C31.1694 51.9608 31.8264 52.5649 32.6538 52.8158C32.9207 52.8967 33.1969 52.9376 33.4761 52.9376C34.05 52.9376 34.6033 52.7666 35.0766 52.4421L57.0035 37.3963C57.6246 36.9704 58.0424 36.3274 58.18 35.5881C58.3165 34.8489 58.1574 34.0994 57.7293 33.48C56.8475 32.2012 55.0859 31.8756 53.8026 32.7561L34.902 45.7255C34.8764 45.7429 34.8435 45.748 34.8138 45.7388C34.784 45.7296 34.7593 45.707 34.7481 45.6784L32.1077 39.0314C31.8295 38.3321 31.2956 37.7823 30.6037 37.4833C30.2444 37.3277 29.8635 37.2509 29.4837 37.2509V37.2519Z" fill="#0A0A0A"/>
</svg>
