<svg width="86" height="86" viewBox="0 0 86 86" fill="none" xmlns="http://www.w3.org/2000/svg">
<path d="M76.1088 52.7902C80.4103 40.0512 76.9886 25.286 65.8202 17.18C54.4567 8.93273 38.8276 10.1675 27.6007 17.9725C16.1047 25.9638 9.34759 40.5386 12.3473 54.4274C15.2167 67.7141 26.7537 77.2259 40.3224 77.8607C54.3345 78.516 67.7266 70.0025 74.0341 57.6843C74.843 56.1055 75.5339 54.4683 76.1088 52.7902Z" fill="#F67BE8"/>
<path d="M41.8499 77.9989C41.3387 77.9989 40.8285 77.9867 40.3182 77.9631C36.9684 77.8065 33.6966 77.1102 30.5932 75.8949C27.5575 74.7062 24.7528 73.0475 22.2572 70.967C19.7533 68.8793 17.6261 66.42 15.9333 63.6586C14.1942 60.8194 12.953 57.7212 12.2467 54.4489C10.7961 47.7323 11.5558 40.643 14.4437 33.948C17.2063 27.5426 21.8578 21.8397 27.5421 17.8886C33.1464 13.9927 39.9343 11.7075 46.6555 11.4546C53.7781 11.1873 60.4254 13.1378 65.8807 17.0971C71.2581 21.0001 75.0565 26.5751 76.8644 33.22C78.5799 39.5219 78.3458 46.4842 76.2053 52.822C75.6253 54.5155 74.9251 56.1659 74.1244 57.7294C70.9778 63.8747 66.1343 69.0606 60.1194 72.724C54.432 76.1877 48.1461 77.9979 41.8489 77.9979L41.8499 77.9989ZM47.9449 11.6358C47.5199 11.6358 47.0928 11.644 46.6637 11.6604C39.9815 11.9122 33.2326 14.1842 27.6602 18.0575C22.0077 21.9871 17.3808 27.6593 14.6326 34.0299C11.7622 40.686 11.0066 47.7323 12.4479 54.4069C13.1501 57.6557 14.381 60.7334 16.1088 63.5532C17.7894 66.2961 19.9021 68.738 22.3886 70.8114C24.8678 72.8786 27.653 74.525 30.6681 75.7055C33.75 76.9126 37.0003 77.6037 40.3275 77.7594C47.0918 78.0747 53.9002 76.2747 60.0137 72.5509C65.9967 68.907 70.8126 63.7497 73.9427 57.6383C74.7383 56.084 75.4354 54.4417 76.0123 52.7575C78.1395 46.4576 78.3725 39.5383 76.6673 33.2743C74.8707 26.6744 71.1 21.1383 65.7606 17.263C60.6707 13.5688 54.5347 11.6348 47.9449 11.6348V11.6358Z" fill="#0A0A0A"/>
<path d="M63.7757 70.0649L35.504 13.9742L29.4819 16.9936L58.0935 73.758C60.0912 72.7014 61.9956 71.4625 63.7757 70.0649Z" fill="#0A0A0A"/>
<path d="M58.0939 73.8605C58.0836 73.8605 58.0723 73.8584 58.0631 73.8554C58.0364 73.8472 58.0148 73.8287 58.0025 73.8042L29.391 17.0408C29.3787 17.0162 29.3766 16.9886 29.3848 16.963C29.393 16.9374 29.4115 16.9159 29.4361 16.9036L35.4582 13.8842C35.5095 13.8586 35.5701 13.8791 35.5958 13.9293L63.8675 70.0199C63.889 70.0629 63.8778 70.1162 63.8387 70.1469C62.0545 71.5476 60.1368 72.7936 58.1411 73.8502C58.1257 73.8584 58.1093 73.8625 58.0928 73.8625L58.0939 73.8605ZM29.6199 17.0398L58.138 73.6188C60.066 72.5919 61.918 71.3868 63.6468 70.0363L35.4592 14.1125L29.6199 17.0398Z" fill="#0A0A0A"/>
<path d="M25.9669 19.1776C15.474 27.3726 9.49194 41.2102 12.3469 54.4274C15.2163 67.7142 26.7533 77.2259 40.3219 77.8607C45.1593 78.087 49.9228 77.2198 54.3464 75.4812L25.9669 19.1776Z" fill="#0A0A0A"/>
<path d="M41.858 78C41.3447 78 40.8314 77.9877 40.3181 77.9642C36.9683 77.8075 33.6965 77.1113 30.5931 75.897C27.5574 74.7082 24.7527 73.0496 22.257 70.9691C19.7532 68.8814 17.626 66.4221 15.9332 63.6607C14.1941 60.8215 12.9529 57.7233 12.2466 54.451C10.8679 48.0672 11.4941 41.3004 14.0565 34.8828C16.5358 28.673 20.633 23.2147 25.9046 19.0978C25.9292 19.0783 25.96 19.0711 25.9898 19.0783C26.0196 19.0855 26.0452 19.1049 26.0586 19.1326L54.4381 75.4362C54.4514 75.4618 54.4524 75.4915 54.4422 75.5192C54.4319 75.5458 54.4104 75.5673 54.3837 75.5775C50.2885 77.187 46.0815 78 41.857 78H41.858ZM25.9323 19.3353C20.7377 23.4205 16.698 28.8194 14.2475 34.9575C11.6994 41.3373 11.0773 48.0631 12.4478 54.4059C13.15 57.6547 14.3809 60.7324 16.1087 63.5522C17.7893 66.2951 19.902 68.737 22.3885 70.8104C24.8677 72.8776 27.6529 74.524 30.668 75.7045C33.7499 76.9116 37.0001 77.6027 40.3274 77.7584C45.0025 77.9764 49.6715 77.1932 54.205 75.427L25.9323 19.3353Z" fill="#0A0A0A"/>
<path d="M72.9116 48.6057C68.6666 62.0215 56.6204 72.5079 42.5426 74.312C29.0437 76.0413 15.627 68.9879 10.4057 56.2755C5.02217 43.1689 9.50638 27.8447 19.5661 18.2653C29.5406 8.7669 44.8524 4.99702 57.6193 11.001C69.879 16.7664 76.1629 30.3255 74.1138 43.4648C73.8428 45.2054 73.4342 46.9225 72.9106 48.6047L72.9116 48.6057Z" fill="#F67BE8"/>
<path d="M38.5359 74.6703C33.217 74.6703 27.932 73.3403 23.3205 70.8001C17.3508 67.5124 12.8522 62.5036 10.3114 56.3154C7.71816 50.0022 7.29828 42.9508 9.09587 35.923C10.8031 29.2494 14.4968 22.9526 19.4954 18.1926C24.4642 13.4613 30.8671 10.0979 37.5246 8.72077C44.561 7.26585 51.5245 8.02249 57.6636 10.9098C63.6087 13.706 68.3331 18.3789 71.3246 24.4239C74.1991 30.2323 75.2257 37.0011 74.2156 43.4822C73.9497 45.1849 73.5442 46.9193 73.0093 48.6363C68.6945 62.2733 56.4563 72.6328 42.555 74.4143C41.2204 74.5853 39.8766 74.6703 38.5348 74.6703H38.5359ZM44.4583 8.20576C42.1865 8.20576 39.8807 8.44329 37.5657 8.92247C30.9451 10.2914 24.5771 13.6364 19.636 18.3421C14.6642 23.0764 10.991 29.3384 9.29297 35.9752C7.50565 42.96 7.92348 49.9663 10.4992 56.2386C13.0226 62.3828 17.4904 67.3568 23.418 70.6219C29.1547 73.7816 35.9406 75.0573 42.5273 74.2126C56.3495 72.4413 68.5199 62.1381 72.8112 48.577C73.3429 46.8691 73.7464 45.1449 74.0102 43.4515C75.0143 37.0113 73.9948 30.2865 71.1388 24.516C68.1678 18.5131 63.4773 13.8729 57.5743 11.0972C53.4945 9.17844 49.0473 8.20678 44.4573 8.20678L44.4583 8.20576Z" fill="#0A0A0A"/>
<path d="M56.2625 13.5268C44.5571 8.02251 30.5203 11.4791 21.3764 20.1861C12.1544 28.9688 8.0428 43.0163 12.9787 55.0325C17.7658 66.6872 30.0656 73.1529 42.4403 71.567C55.3457 69.9134 66.39 60.2993 70.2818 47.9995C70.7623 46.4576 71.136 44.8829 71.3844 43.2877C73.2631 31.2418 67.5028 18.8121 56.2625 13.5258V13.5268ZM68.0182 43.0686C67.7974 44.4856 67.4648 45.8842 67.0388 47.2531C63.5832 58.1758 53.775 66.7138 42.314 68.182C31.3242 69.5899 20.4011 63.848 16.1499 53.4977C11.7673 42.8269 15.4179 30.3511 23.6082 22.5523C31.7287 14.819 44.1947 11.7494 54.5891 16.6384C64.5708 21.3318 69.6864 32.3712 68.0182 43.0686Z" fill="#0A0A0A"/>
<path d="M38.7667 71.9038C33.8893 71.9038 29.0427 70.6844 24.8141 68.3551C19.3402 65.3398 15.2143 60.7467 12.8839 55.0714C10.5063 49.2824 10.1203 42.8157 11.769 36.3715C13.3346 30.2518 16.7214 24.4782 21.3062 20.1124C25.8623 15.7743 31.7334 12.6893 37.8387 11.4269C44.2909 10.0928 50.6774 10.787 56.3063 13.4337C61.7586 15.9975 66.0909 20.2834 68.835 25.8266C71.4713 31.1538 72.4127 37.3605 71.4857 43.3031C71.2424 44.8634 70.8697 46.4545 70.379 48.0303C66.4225 60.5358 55.1996 70.0353 42.4522 71.6684C41.2285 71.825 39.9956 71.9028 38.7657 71.9028L38.7667 71.9038ZM44.1964 10.9713C42.1145 10.9713 40.0007 11.1894 37.8797 11.6276C31.8114 12.8828 25.9752 15.9483 21.4468 20.2609C16.8897 24.6 13.5235 30.3398 11.9671 36.4226C10.3297 42.8239 10.7116 49.2456 13.0728 54.9946C15.3857 60.6259 19.4799 65.1842 24.9127 68.1759C30.1699 71.0714 36.3891 72.2407 42.4266 71.4666C55.0949 69.8428 66.25 60.4007 70.1829 47.9709C70.6705 46.4054 71.0401 44.8245 71.2824 43.2734C72.2033 37.3707 71.268 31.2081 68.6502 25.9188C65.9276 20.4175 61.6282 16.1643 56.218 13.62C52.4791 11.862 48.4035 10.9713 44.1964 10.9713ZM39.0008 68.4964C28.9523 68.4964 19.8063 62.6696 16.0551 53.5366C13.9423 48.3927 13.6005 42.6478 15.0644 36.9233C16.4555 31.4866 19.4645 26.357 23.537 22.4786C27.5849 18.6247 32.8011 15.8838 38.2247 14.7627C43.9572 13.577 49.6313 14.1944 54.6329 16.5463C59.4775 18.8244 63.3262 22.6321 65.7644 27.5569C68.1071 32.2893 68.9428 37.8038 68.1194 43.0839C67.9028 44.4713 67.5723 45.8842 67.137 47.2828C63.6219 58.3928 53.6515 66.8316 42.327 68.2834C41.2121 68.4268 40.1003 68.4964 39.0008 68.4964ZM43.8741 14.3808C42.0262 14.3808 40.1495 14.5743 38.2667 14.9633C32.8801 16.0773 27.6989 18.7988 23.6787 22.627C19.6338 26.4788 16.6454 31.5746 15.2636 36.9735C13.8099 42.656 14.1487 48.3569 16.245 53.4588C20.3709 63.505 31.0846 69.5172 42.3003 68.0797C53.5468 66.6381 63.4484 58.2567 66.9399 47.2214C67.3721 45.832 67.7006 44.4293 67.9151 43.0522C68.7323 37.8131 67.9028 32.3425 65.5786 27.647C63.1619 22.7632 59.3461 18.9892 54.5436 16.7305C51.2246 15.1702 47.6068 14.3797 43.872 14.3797L43.8741 14.3808Z" fill="#0A0A0A"/>
<path d="M38.3183 74.5967C37.8133 74.5967 37.3082 74.5844 36.8041 74.5619C33.4604 74.4062 30.1938 73.712 27.0965 72.4988C24.066 71.3121 21.2664 69.6575 18.7759 67.5801C16.2771 65.4965 14.1531 63.0423 12.4643 60.285C10.7283 57.4509 9.49022 54.3578 8.78597 51.0927C8.05297 47.6965 7.88564 44.1816 8.28807 40.6431C8.6751 37.2397 9.58262 33.8671 10.9839 30.6194C12.3616 27.428 14.1839 24.428 16.4013 21.7035C18.6352 18.9596 21.2141 16.5617 24.0691 14.5774C26.8666 12.632 29.9371 11.0901 33.1935 9.99352C36.4499 8.89696 39.8028 8.27649 43.1578 8.14953C46.6 8.0195 49.9611 8.41266 53.1487 9.31981C56.4862 10.27 59.5824 11.7699 62.3512 13.7798C65.0758 15.7569 67.4093 18.1804 69.2859 20.9837C71.0835 23.6673 72.4386 26.658 73.3123 29.874C74.1674 33.0173 74.5442 36.3008 74.4333 39.6335C74.3214 42.9755 73.7219 46.2764 72.6511 49.4473C72.0711 51.1388 71.372 52.7872 70.5723 54.3496C69.0087 57.4018 67.0007 60.2471 64.6036 62.8047C62.2331 65.3347 59.5342 67.5299 56.5817 69.3278C53.5912 71.1493 50.4056 72.5254 47.1133 73.4151C44.207 74.2014 41.2544 74.5977 38.3194 74.5977L38.3183 74.5967ZM44.4369 8.15158C44.0119 8.15158 43.5848 8.15977 43.1567 8.17615C39.8039 8.30311 36.454 8.92255 33.1997 10.0191C29.9454 11.1147 26.8779 12.6566 24.0824 14.5999C21.2295 16.5831 18.6517 18.979 16.4198 21.7209C14.2034 24.4434 12.3822 27.4413 11.0055 30.6306C9.6052 33.8763 8.69871 37.2469 8.31168 40.6472C7.90925 44.1826 8.07659 47.6955 8.80958 51.0886C9.51383 54.3517 10.7509 57.4417 12.4848 60.2737C14.1726 63.028 16.2935 65.4801 18.7902 67.5627C21.2798 69.6381 24.0762 71.2916 27.1037 72.4772C30.1979 73.6885 33.4615 74.3827 36.8031 74.5383C40.233 74.698 43.6988 74.313 47.104 73.3916C50.3943 72.5018 53.5778 71.1278 56.5663 69.3073C59.5167 67.5105 62.2136 65.3163 64.582 62.7884C66.9771 60.2318 68.9841 57.3895 70.5466 54.3384C71.3463 52.778 72.0444 51.1296 72.6245 49.4402C73.6942 46.2723 74.2937 42.9734 74.4056 39.6335C74.5165 36.3039 74.1397 33.0224 73.2856 29.8812C72.4119 26.6683 71.0578 23.6806 69.2623 20.9991C67.3867 18.1988 65.0553 15.7774 62.3338 13.8013C59.567 11.7935 56.4739 10.2945 53.1395 9.34541C50.3512 8.55191 47.4295 8.15158 44.4369 8.15158Z" fill="#0A0A0A"/>
<path d="M55.1009 20.393C52.7818 18.9473 50.1958 17.993 47.5092 17.4985C37.3057 15.7549 26.9873 20.9315 21.4867 29.53C19.9848 31.8777 18.8566 34.4517 18.141 37.1435C16.5169 43.3563 17.252 50.1763 20.7394 55.6479C23.9352 60.6956 29.1329 64.0877 34.9959 65.1904C41.1524 66.288 47.5205 64.829 52.7582 61.4758C58.4692 57.8533 62.7111 52.0521 64.4266 45.5249C66.8669 36.0777 63.5899 25.6854 55.1019 20.393H55.1009Z" fill="#0A0A0A"/>
<path d="M39.0976 65.6552C37.7137 65.6552 36.3381 65.5344 34.9778 65.2917C29.0225 64.1716 23.8011 60.6771 20.6525 55.7031C17.2863 50.421 16.3357 43.6471 18.0419 37.1179C18.7636 34.4026 19.8939 31.8316 21.4009 29.4747C27.1068 20.5547 37.6059 15.7005 47.527 17.3971C50.3173 17.9101 52.8828 18.8889 55.1557 20.3059C59.254 22.8615 62.2978 26.6856 63.9579 31.3668C65.5368 35.8165 65.738 40.854 64.5246 45.5504C62.805 52.095 58.5364 57.9311 52.812 61.5617C50.1593 63.2603 47.2755 64.4521 44.2419 65.1023C42.5244 65.4709 40.8038 65.6552 39.0965 65.6552H39.0976ZM43.5551 17.2671C34.9706 17.2671 26.4847 21.9083 21.5744 29.5852C20.0787 31.9238 18.9576 34.4752 18.241 37.1701C16.5482 43.644 17.4906 50.3596 20.826 55.5936C23.9449 60.5194 29.1159 63.9811 35.0148 65.09C38.0248 65.6265 41.1149 65.563 44.1998 64.9016C47.2088 64.2566 50.0699 63.074 52.7022 61.3887C58.3834 57.7847 62.6202 51.9937 64.3264 45.4982C65.5296 40.8417 65.3294 35.8462 63.7649 31.4344C62.1202 26.7983 59.1061 23.01 55.0469 20.4789C52.7966 19.0762 50.2547 18.1066 47.4911 17.5978C46.1853 17.3746 44.8681 17.266 43.5551 17.266V17.2671Z" fill="#0A0A0A"/>
<path d="M69.134 20.1001C69.1084 20.1001 69.0837 20.0909 69.0632 20.0725L66.2523 17.4247C66.2113 17.3858 66.2092 17.3213 66.2482 17.2804C66.2872 17.2394 66.3519 17.2374 66.393 17.2763L69.2038 19.924C69.2449 19.9629 69.2469 20.0274 69.2079 20.0684C69.1874 20.0899 69.1607 20.1001 69.133 20.1001H69.134Z" fill="#0A0A0A"/>
<path d="M20.5683 69.4067C20.5436 69.4067 20.518 69.3974 20.4985 69.379L17.7749 66.8716C17.7328 66.8337 17.7307 66.7682 17.7687 66.7272C17.8067 66.6862 17.8724 66.6832 17.9135 66.721L20.6371 69.2285C20.6792 69.2664 20.6812 69.3319 20.6432 69.3729C20.6227 69.3944 20.596 69.4056 20.5683 69.4056V69.4067Z" fill="#0A0A0A"/>
<path d="M17.0603 31.6739C18.6525 28.2736 20.8772 25.1529 23.608 22.5533C30.0263 16.4418 39.158 13.2443 47.8369 14.5845L48.6818 11.217C38.9023 9.69859 28.6086 13.2985 21.3761 20.1861C18.2768 23.1369 15.7565 26.6836 13.9609 30.5466L17.0592 31.6739H17.0603Z" fill="#C7EE1A"/>
<path d="M17.0605 31.7763C17.0492 31.7763 17.0369 31.7743 17.0256 31.7702L13.9273 30.6429C13.9006 30.6326 13.879 30.6122 13.8677 30.5855C13.8564 30.5589 13.8575 30.5292 13.8698 30.5036C15.6746 26.6201 18.2462 23.0263 21.3065 20.1124C24.9079 16.6824 29.312 14.0337 34.0426 12.4528C38.8697 10.8392 43.9381 10.3774 48.6995 11.1167C48.7282 11.1208 48.7528 11.1371 48.7693 11.1617C48.7857 11.1863 48.7908 11.215 48.7836 11.2436L47.9387 14.6111C47.9264 14.6623 47.8761 14.6951 47.8238 14.6879C43.629 14.0398 39.1633 14.4504 34.9101 15.8736C30.74 17.2691 26.8574 19.6056 23.6811 22.6291C21.0016 25.1805 18.7451 28.3238 17.1549 31.719C17.1375 31.7558 17.1005 31.7784 17.0615 31.7784L17.0605 31.7763ZM14.1018 30.4893L17.0071 31.5459C18.6055 28.16 20.862 25.027 23.5373 22.4796C26.7342 19.4346 30.6435 17.0828 34.8423 15.678C39.0956 14.2548 43.5603 13.8371 47.7601 14.4698L48.5557 11.302C43.859 10.5914 38.8656 11.0562 34.1073 12.6473C29.4054 14.219 25.028 16.8524 21.4472 20.2608C18.431 23.1328 15.8932 26.6672 14.1018 30.4893Z" fill="#0A0A0A"/>
<path d="M65.5693 50.9831C63.977 54.3833 61.7524 57.5041 59.0216 60.1037C52.6032 66.2152 43.4716 69.4127 34.7927 68.0725L33.9478 71.44C43.7272 72.9584 54.021 69.3585 61.2534 62.4709C64.3528 59.5201 66.8731 55.9734 68.6686 52.1103L65.5703 50.9831H65.5693Z" fill="#1ADEAD"/>
<path d="M38.4271 71.8844C36.9098 71.8844 35.4058 71.7707 33.9316 71.5414C33.9028 71.5373 33.8782 71.5209 33.8618 71.4963C33.8454 71.4718 33.8402 71.4431 33.8474 71.4144L34.6923 68.0469C34.7046 67.9957 34.7549 67.963 34.8073 67.9701C39.002 68.6182 43.4677 68.2087 47.721 66.7845C51.891 65.3889 55.7737 63.0525 58.95 60.029C61.6294 57.4775 63.8859 54.3342 65.4761 50.9391C65.4987 50.8909 65.5541 50.8684 65.6044 50.8858L68.7027 52.0131C68.7294 52.0233 68.751 52.0438 68.7623 52.0704C68.7736 52.0971 68.7726 52.1268 68.7602 52.1523C66.9555 56.0359 64.3838 59.6297 61.3235 62.5436C57.7222 65.9736 53.318 68.6223 48.5874 70.2032C45.2551 71.3172 41.8077 71.8823 38.4261 71.8823L38.4271 71.8844ZM34.0743 71.3561C38.771 72.0666 43.7644 71.6018 48.5227 70.0107C53.2246 68.4391 57.6021 65.8057 61.1829 62.3972C64.199 59.5252 66.7368 55.9908 68.5282 52.1687L65.6229 51.1121C64.0245 54.498 61.768 57.6311 59.0927 60.1795C55.8958 63.2245 51.9865 65.5763 47.7877 66.9811C43.5345 68.4042 39.0698 68.822 34.8699 68.1892L34.0743 71.3571V71.3561Z" fill="#0A0A0A"/>
<path d="M56.6929 29.3194C55.6447 27.9843 53.7086 27.7488 52.3688 28.7941L41.9334 36.9421L35.3867 27.9054C34.3899 26.5304 32.465 26.2212 31.0863 27.2143C29.7075 28.2075 29.3975 30.1282 30.3943 31.5033L37.0806 40.7314L26.4583 49.0248C25.1186 50.0702 24.8835 52.0012 25.9317 53.3373C26.5394 54.1114 27.4439 54.5158 28.3586 54.5158C29.0228 54.5158 29.6911 54.3028 30.2547 53.8626L40.6902 45.7146L47.2379 54.7513C47.8405 55.5827 48.7819 56.024 49.7366 56.024C50.3618 56.024 50.9922 55.8346 51.5383 55.4414C52.9171 54.4482 53.2271 52.5275 52.2303 51.1524L45.544 41.9243L56.1663 33.6309C57.506 32.5855 57.7411 30.6545 56.6929 29.3184V29.3194Z" fill="#F67BE8"/>
<path d="M49.7376 56.1263C48.7171 56.1263 47.7521 55.6349 47.1556 54.8117L40.6706 45.861L30.3193 53.9434C29.7536 54.3847 29.0761 54.6182 28.3595 54.6182C27.3729 54.6182 26.4593 54.1748 25.8515 53.4008C25.3279 52.7332 25.0959 51.9018 25.1986 51.0602C25.3012 50.2186 25.7263 49.4671 26.3956 48.9449L36.9399 40.712L30.3111 31.5637C29.2834 30.1446 29.6048 28.1573 31.0266 27.1324C32.4495 26.1075 34.4421 26.4269 35.4698 27.846L41.9548 36.7967L52.3061 28.7143C52.9755 28.1911 53.808 27.9597 54.6529 28.0631C55.4968 28.1655 56.2503 28.5893 56.7739 29.2569C57.2975 29.9245 57.5295 30.7558 57.4268 31.5975C57.3242 32.4391 56.8992 33.1906 56.2298 33.7128L45.6855 41.9457L52.3143 51.094C53.342 52.5131 53.0206 54.5004 51.5988 55.5253C51.0526 55.9185 50.409 56.1274 49.7376 56.1274V56.1263ZM40.6911 45.6122C40.6911 45.6122 40.7003 45.6122 40.7055 45.6122C40.7332 45.6163 40.7578 45.6306 40.7743 45.6532L47.3219 54.6898C47.8804 55.4598 48.7828 55.9205 49.7376 55.9205C50.3658 55.9205 50.9674 55.726 51.4787 55.3574C52.8092 54.398 53.1089 52.5387 52.148 51.2118L45.4617 41.9836C45.4299 41.9386 45.4381 41.8771 45.4812 41.8433L56.1035 33.55C56.7298 33.0606 57.1271 32.3582 57.2236 31.5708C57.3201 30.7835 57.1024 30.0064 56.6127 29.3818C56.123 28.7573 55.4178 28.361 54.6283 28.2648C53.8388 28.1685 53.0586 28.3856 52.4334 28.874L41.998 37.0219C41.9764 37.0393 41.9477 37.0465 41.9199 37.0424C41.8922 37.0383 41.8676 37.024 41.8512 37.0015L35.3035 27.9648C34.3415 26.6378 32.4772 26.3389 31.1467 27.2972C29.8163 28.2566 29.5165 30.1159 30.4774 31.4429L37.1637 40.671C37.1955 40.7161 37.1873 40.7775 37.1442 40.8113L26.5219 49.1057C25.8956 49.5951 25.4983 50.2974 25.4018 51.0848C25.3053 51.8721 25.523 52.6493 26.0127 53.2738C26.5814 53.9977 27.4366 54.4124 28.3595 54.4124C29.0299 54.4124 29.6633 54.1943 30.193 53.7806L40.6285 45.6327C40.647 45.6183 40.6685 45.6112 40.6921 45.6112L40.6911 45.6122Z" fill="#0A0A0A"/>
</svg>
