<svg width="86" height="86" viewBox="0 0 86 86" fill="none" xmlns="http://www.w3.org/2000/svg">
<g clip-path="url(#clip0_393_18446)">
<path d="M23.2261 73.0873C35.6054 82.4217 55.8007 77.502 68.3339 62.0981C80.8672 46.6943 80.9914 26.6402 68.6121 17.3058L62.758 12.8912L17.3721 68.6727L23.2261 73.0873Z" fill="#2B50FF"/>
<path d="M38.0671 78C32.443 78 27.2936 76.3809 23.1103 73.2266L17.2563 68.812C17.2173 68.7834 17.1932 68.7406 17.1858 68.6924C17.1803 68.646 17.1932 68.5978 17.2248 68.5603L62.6126 12.7806C62.6422 12.7431 62.6867 12.7199 62.7368 12.7128C62.785 12.7074 62.8351 12.7199 62.874 12.7502L68.7281 17.1648C74.762 21.7151 78.0552 28.9092 78.0014 37.426C77.9495 45.925 74.5673 54.7256 68.4814 62.2071C62.3956 69.6885 54.3294 74.9564 45.7699 77.0414C43.1387 77.6823 40.5575 77.9982 38.0709 78H38.0671ZM17.6327 68.6424L23.3403 72.9464C27.455 76.0489 32.5283 77.643 38.069 77.643C40.526 77.643 43.0756 77.3306 45.6754 76.6969C54.1551 74.6315 62.1508 69.4082 68.1866 61.9893C74.2224 54.5703 77.5768 45.8464 77.6287 37.426C77.6806 29.0216 74.4375 21.9276 68.4963 17.4469L62.7887 13.143L17.6327 68.6424Z" fill="#0A0A0A"/>
<path d="M63.7019 15.2172C63.1104 14.7709 62.5003 14.3586 61.8754 13.9766L17.3721 68.6727L23.2261 73.0873C23.9919 73.6639 24.7856 74.1852 25.607 74.6547C37.6637 78.2392 53.1286 72.6625 63.4237 60.0095C75.957 44.6057 76.0812 24.5516 63.7019 15.2172Z" fill="#0A0A0A"/>
<path d="M62.4801 57.6848C75.0126 42.2812 75.1364 22.2269 62.7567 12.8921C50.3769 3.55742 30.1816 8.4772 17.6491 23.8808C5.11662 39.2843 4.99278 59.3386 17.3725 68.6734C29.7522 78.0081 49.9476 73.0883 62.4801 57.6848Z" fill="white"/>
<path d="M32.2132 73.5854C26.5891 73.5854 21.4397 71.9663 17.2564 68.812C4.81585 59.4312 4.9271 39.2254 17.503 23.768C30.0807 8.31418 50.4317 3.36939 62.8723 12.7502C68.9062 17.3005 72.1994 24.4963 72.1456 33.0113C72.0937 41.5103 68.7115 50.311 62.6256 57.7924C56.5398 65.2739 48.4736 70.5418 39.9141 72.6268C37.2829 73.2676 34.7017 73.5854 32.215 73.5854H32.2132ZM47.9025 8.35345C37.4905 8.35345 25.9846 13.9248 17.796 23.9893C5.34618 39.2914 5.2071 59.2723 17.4863 68.5317C21.601 71.6343 26.6744 73.2284 32.215 73.2284C34.672 73.2284 37.2217 72.916 39.8214 72.2822C48.3011 70.2169 56.2951 64.9936 62.3327 57.5746C68.3684 50.1557 71.7229 41.4318 71.7748 33.0113C71.8267 24.607 68.5835 17.5129 62.6423 13.0323C58.4423 9.86366 53.3207 8.35345 47.9025 8.35345Z" fill="#0A0A0A"/>
<path d="M20.9893 64.226C15.9104 60.3952 13.3978 54.3489 13.9152 47.1995C14.3973 40.5535 17.3957 33.5344 22.3597 27.4329C27.3237 21.3313 33.6858 16.8471 40.2723 14.8049C47.3594 12.6074 54.059 13.5071 59.138 17.338C64.2169 21.1689 66.7295 27.2151 66.2103 34.3645C65.7282 41.0105 62.7297 48.0296 57.7658 54.1312C52.8018 60.2327 46.4397 64.7169 39.8532 66.7591C32.766 68.9566 26.0664 68.0569 20.9875 64.226H20.9893Z" fill="#1ADEAD"/>
<path d="M32.4456 68.1158C28.1362 68.1158 24.1698 66.8519 20.8766 64.3688C15.7476 60.5004 13.2109 54.4007 13.7319 47.1888C14.2159 40.5071 17.2291 33.4523 22.2154 27.3239C27.2016 21.1956 33.5952 16.6882 40.217 14.6353C47.3634 12.42 54.1242 13.3304 59.2551 17.197C64.3841 21.0653 66.9208 27.1669 66.3997 34.377C65.9158 41.0587 62.9025 48.1135 57.9163 54.2418C52.9301 60.3701 46.5364 64.8776 39.9147 66.9305C37.3576 67.723 34.8487 68.1158 32.4474 68.1158H32.4456ZM21.1046 64.0868C26.1335 67.8801 32.7738 68.7691 39.7997 66.5895C46.351 64.558 52.6816 60.0952 57.6233 54.0222C62.565 47.9492 65.5505 40.9641 66.0289 34.352C66.5425 27.2633 64.0559 21.2706 59.027 17.4772C53.9981 13.6856 47.3579 12.7966 40.3319 14.9745C33.7807 17.0059 27.4501 21.4687 22.5083 27.5417C17.5666 33.6147 14.5812 40.6017 14.1028 47.212C13.5891 54.3007 16.0758 60.2934 21.1046 64.0868Z" fill="#0A0A0A"/>
<path d="M55.772 52.6268C65.8158 40.282 66.9254 24.9719 58.2503 18.4306C49.5753 11.8893 34.4006 16.5939 24.3568 28.9387C14.313 41.2834 13.2034 56.5935 21.8785 63.1348C30.5536 69.6761 45.7282 64.9715 55.772 52.6268Z" fill="#2B50FF"/>
<path d="M31.3103 66.2503C27.737 66.2503 24.4438 65.2935 21.7662 63.2745C13.025 56.6821 14.1227 41.23 24.212 28.827C34.3031 16.4258 49.6234 11.697 58.3664 18.2894C67.1076 24.8819 66.0099 40.3339 55.9206 52.7351C48.9206 61.3377 39.4025 66.2485 31.3121 66.2485L31.3103 66.2503ZM48.8112 15.6653C40.8377 15.6653 31.4327 20.5315 24.505 29.0484C14.5399 41.2961 13.4144 56.5232 21.9943 62.9942C24.6088 64.965 27.8279 65.9004 31.3214 65.9004C39.2949 65.9004 48.7 61.0342 55.6276 52.5174C65.5927 40.2696 66.7182 25.0425 58.1384 18.5715C55.5238 16.6007 52.3047 15.6653 48.8112 15.6653Z" fill="#0A0A0A"/>
<path d="M24.685 64.7723C23.6929 64.3385 22.7528 63.794 21.8794 63.1353C13.2031 56.5928 14.3139 41.2836 24.3586 28.9395C34.4015 16.5954 49.5753 11.8898 58.2516 18.4323C59.125 19.091 59.9001 19.839 60.575 20.6619C51.7022 16.7828 38.5199 21.7062 29.4876 32.8079C20.4553 43.9096 18.6492 57.4104 24.685 64.7741V64.7723Z" fill="#0A0A0A"/>
<path d="M52.3368 61.1128C54.6139 59.2634 56.7445 57.1409 58.6507 54.797C63.6759 48.6223 66.7355 41.5157 67.3011 34.7483L70.7482 35.0696C70.2234 42.369 67.1694 50.1682 61.5972 57.0177C59.4351 59.674 57.0208 62.041 54.4136 64.0761L52.335 61.111L52.3368 61.1128Z" fill="#F67BE8"/>
<path d="M13.839 41.2337L10.2139 41.0498C11.5749 35.2874 14.4139 29.609 18.5341 24.5446C20.0213 22.7184 21.629 21.0332 23.3349 19.4927L25.4359 22.522C24.0396 23.8377 22.7119 25.2551 21.4825 26.767C17.8276 31.2602 15.2149 36.2443 13.8409 41.2337H13.839Z" fill="#F67BE8"/>
<path d="M18.0633 67.823C14.3658 65.0364 11.766 61.1788 10.3994 56.6053L13.6852 55.5878C14.8572 59.4061 17.0916 62.6551 20.2995 65.0739C25.2005 68.7691 31.4995 69.8884 38.2121 68.3157L39.1337 71.5218C31.2066 73.3551 23.7133 72.0823 18.0651 67.8212L18.0633 67.823Z" fill="#C7EE1A"/>
<path d="M64.6822 21.9204C63.4584 19.8282 61.8322 17.9967 59.8314 16.4865C55.42 13.1608 49.8756 11.9184 43.9159 12.8484L43.6934 9.53165C50.6118 8.53556 57.0629 9.96365 62.0658 13.7374C64.5728 15.6278 66.5384 17.986 67.9699 20.669L64.6822 21.9186V21.9204Z" fill="#C7EE1A"/>
<path d="M49.2229 43.5472C51.3832 44.5219 54.5114 43.7061 56.21 41.7228C57.9085 39.7413 57.5339 37.3439 55.3737 36.3674C53.2134 35.3927 50.0852 36.2085 48.3867 38.1918C46.6881 40.1733 47.0627 42.5707 49.2229 43.5472Z" fill="white"/>
<path d="M51.2532 44.1344C50.5078 44.1344 49.7846 43.997 49.1449 43.7096C48.1287 43.2508 47.4445 42.4653 47.2183 41.4978C46.9587 40.3892 47.3332 39.1432 48.2437 38.0793C49.9904 36.0407 53.2244 35.2017 55.4532 36.2085C56.4694 36.6673 57.1536 37.4527 57.3798 38.4203C57.6395 39.5288 57.2649 40.7748 56.3544 41.8388C55.1102 43.2919 53.1075 44.1362 51.2532 44.1362V44.1344ZM53.3338 36.1353C51.5926 36.1353 49.7049 36.9333 48.5293 38.306C47.6911 39.2843 47.3462 40.4178 47.5799 41.4193C47.7801 42.2761 48.392 42.9741 49.3025 43.3865C51.3886 44.3272 54.4241 43.5311 56.0689 41.6103C56.907 40.632 57.2519 39.4985 57.0183 38.497C56.818 37.6402 56.2061 36.9422 55.2956 36.5298C54.7004 36.2621 54.0291 36.1353 53.3338 36.1353Z" fill="#0A0A0A"/>
<path d="M48.5281 44.3593L45.4314 42.9616C42.4961 41.637 38.2442 42.7456 35.9355 45.4393C33.6269 48.1331 34.1369 51.3909 37.0741 52.7155L40.1708 54.1133C43.1061 55.4378 47.3581 54.3293 49.6667 51.6355C51.9753 48.9418 51.4653 45.6839 48.5281 44.3593Z" fill="white"/>
<path d="M42.9295 54.8469C41.9245 54.8469 40.9528 54.6631 40.0906 54.2739L36.9939 52.8762C35.631 52.2621 34.715 51.2106 34.4127 49.9146C34.0641 48.4276 34.5685 46.7532 35.7923 45.3251C38.1473 42.5778 42.5068 41.4442 45.5089 42.7991L48.6056 44.1969C49.9685 44.811 50.8845 45.8624 51.1868 47.1584C51.5354 48.6454 51.031 50.3199 49.8072 51.748C48.1272 53.708 45.4291 54.8469 42.9295 54.8469ZM42.6607 42.5814C40.2742 42.5814 37.6893 43.6739 36.0797 45.5536C34.9282 46.8978 34.4535 48.458 34.7762 49.8379C35.0524 51.0232 35.898 51.9872 37.1534 52.5548L40.2501 53.9526C43.1094 55.2432 47.2705 54.1525 49.5234 51.523C50.675 50.1788 51.1497 48.6186 50.827 47.2387C50.5507 46.0534 49.7052 45.0895 48.4498 44.5218L45.3531 43.124C44.5372 42.7563 43.6138 42.5814 42.6607 42.5814Z" fill="#0A0A0A"/>
<path d="M36.1557 32.6401L36.1149 32.6883C34.4274 34.6573 34.8002 37.0386 36.9456 38.0062L40.5411 39.6288C42.6865 40.5982 45.7943 39.7859 47.4817 37.8169L47.5225 37.7687C49.21 35.7998 48.8372 33.4184 46.6918 32.4509L43.0963 30.8282C40.9509 29.8589 37.8431 30.6711 36.1557 32.6401Z" fill="white"/>
<path d="M42.5568 40.2143C41.815 40.2143 41.0974 40.0786 40.4633 39.7912L36.8678 38.1685C35.8572 37.7133 35.1785 36.9332 34.9541 35.971C34.6964 34.8696 35.0672 33.6307 35.9721 32.5739L36.0129 32.5257C37.7467 30.5014 40.9602 29.6678 43.1743 30.6656L46.7697 32.2883C47.7803 32.7435 48.459 33.5236 48.6834 34.4858C48.9411 35.5872 48.5703 36.8261 47.6654 37.8829L47.6246 37.9311C46.3878 39.3752 44.3999 40.2125 42.5568 40.2125V40.2143ZM36.2985 32.7524L36.2577 32.8006C35.427 33.7717 35.0821 34.8982 35.3139 35.8907C35.5123 36.7422 36.1205 37.4348 37.0235 37.8436L40.619 39.4663C42.6903 40.3999 45.7035 39.6091 47.3372 37.7026L47.378 37.6544C48.2105 36.6833 48.5536 35.5569 48.3218 34.5626C48.1234 33.7111 47.5152 33.0184 46.6121 32.6096L43.0166 30.987C40.9454 30.0533 37.9321 30.8441 36.2985 32.7507V32.7524Z" fill="#0A0A0A"/>
<path d="M33.2151 47.1834L36.8866 42.8974C38.1809 41.3872 37.8953 39.561 36.2487 38.8184C34.6021 38.0758 32.2193 38.697 30.9268 40.2072L27.2553 44.4933C25.961 46.0035 26.2466 47.8297 27.8932 48.5723C29.5398 49.3149 31.9226 48.6937 33.2151 47.1834Z" fill="white"/>
<path d="M29.4373 49.0614C28.8625 49.0614 28.3062 48.9561 27.8148 48.7348C27.0286 48.3795 26.4982 47.7708 26.3221 47.021C26.1218 46.1624 26.4092 45.2002 27.112 44.3808L30.7835 40.0948C32.1261 38.5292 34.6127 37.883 36.3279 38.6577C37.1141 39.013 37.6445 39.6217 37.8206 40.3715C38.0209 41.2301 37.7335 42.1923 37.0307 43.0117L33.3592 47.2977C32.4023 48.4134 30.8651 49.0614 29.4392 49.0614H29.4373ZM34.6943 38.6827C33.3814 38.6827 31.9573 39.2861 31.071 40.3215L27.3994 44.6076C26.7708 45.3412 26.5094 46.1927 26.6855 46.9425C26.8357 47.5816 27.2919 48.1046 27.9724 48.4116C29.543 49.1203 31.8312 48.5188 33.0736 47.071L36.7451 42.7849C37.3737 42.0513 37.6352 41.1998 37.459 40.45C37.3088 39.8109 36.8527 39.2879 36.1722 38.9808C35.7253 38.7791 35.219 38.6827 34.6961 38.6827H34.6943Z" fill="#0A0A0A"/>
<path d="M47.888 41.7548C50.0483 42.7295 53.1765 41.9137 54.875 39.9304C56.5735 37.9489 56.199 35.5515 54.0387 34.5751C51.8784 33.6004 48.7502 34.4162 47.0517 36.3995C45.3532 38.3809 45.7277 40.7784 47.888 41.7548Z" fill="#C7EE1A"/>
<path d="M49.9183 42.3422C49.1728 42.3422 48.4497 42.2047 47.8099 41.9173C46.7938 41.4586 46.1095 40.6731 45.8833 39.7056C45.6237 38.597 45.9983 37.351 46.9087 36.2871C48.6555 34.2485 51.8894 33.4094 54.1183 34.4163C55.1344 34.875 55.8187 35.6605 56.0449 36.628C56.3045 37.7366 55.9299 38.9826 55.0195 40.0465C53.7752 41.4996 51.7726 42.344 49.9183 42.344V42.3422ZM51.9988 34.3431C50.2576 34.3431 48.3699 35.141 47.1943 36.5138C46.3561 37.492 46.0112 38.6256 46.2449 39.627C46.4452 40.4839 47.0571 41.1819 47.9675 41.5942C50.0536 42.535 53.0873 41.7388 54.7339 39.818C55.572 38.8398 55.9169 37.7062 55.6833 36.7048C55.483 35.8479 54.8711 35.1499 53.9606 34.7376C53.3654 34.4698 52.6942 34.3431 51.9988 34.3431Z" fill="#0A0A0A"/>
<path d="M47.1922 42.5671L44.0955 41.1694C41.1601 39.8448 36.9082 40.9534 34.5996 43.6471C32.291 46.3409 32.8009 49.5987 35.7382 50.9233L38.8348 52.321C41.7702 53.6456 46.0221 52.537 48.3307 49.8433C50.6393 47.1495 50.1294 43.8917 47.1922 42.5671Z" fill="#2B50FF"/>
<path d="M41.5946 53.0547C40.5895 53.0547 39.616 52.8708 38.7556 52.4817L35.6589 51.0839C34.296 50.4698 33.38 49.4184 33.0778 48.1224C32.7291 46.6354 33.2335 44.961 34.4574 43.5329C36.8123 40.7856 41.1699 39.652 44.1739 41.0069L47.2706 42.4047C48.6335 43.0187 49.5495 44.0702 49.8518 45.3662C50.2004 46.8532 49.696 48.5276 48.4722 49.9557C46.7922 51.9158 44.0942 53.0547 41.5946 53.0547ZM41.3257 40.7891C38.9392 40.7891 36.3543 41.8816 34.7448 43.7614C33.5932 45.1056 33.1185 46.6657 33.4412 48.0456C33.7175 49.231 34.563 50.1949 35.8184 50.7626L38.9151 52.1604C41.7744 53.451 45.9355 52.3603 48.1885 49.7308C49.34 48.3866 49.8147 46.8264 49.4921 45.4465C49.2158 44.2612 48.3702 43.2972 47.1148 42.7296L44.0181 41.3318C43.2023 40.9641 42.2788 40.7891 41.3257 40.7891Z" fill="#0A0A0A"/>
<path d="M34.8207 30.846L34.7799 30.8942C33.0925 32.8632 33.4652 35.2446 35.6106 36.2121L39.2061 37.8348C41.3516 38.8041 44.4594 37.9919 46.1468 36.0229L46.1876 35.9747C47.875 34.0057 47.5023 31.6243 45.3569 30.6568L41.7614 29.0341C39.6159 28.0648 36.5081 28.877 34.8207 30.846Z" fill="#1ADEAD"/>
<path d="M41.2218 38.4203C40.4801 38.4203 39.7625 38.2846 39.1283 37.9972L35.5328 36.3746C34.5222 35.9194 33.8435 35.1393 33.6192 34.1771C33.3614 33.0757 33.7323 31.8368 34.6372 30.78L34.6798 30.7318C36.4136 28.7075 39.6271 27.8738 41.8411 28.8717L45.4366 30.4944C46.4472 30.9496 47.1259 31.7297 47.3503 32.6919C47.608 33.7933 47.2372 35.0322 46.3323 36.0889L46.2896 36.1371C45.0528 37.5795 43.065 38.4185 41.2218 38.4185V38.4203ZM39.7347 28.8039C38.0046 28.8039 36.1317 29.5965 34.9635 30.9603L34.9227 31.0085C34.092 31.9796 33.7471 33.106 33.9807 34.0985C34.1792 34.95 34.7874 35.6427 35.6904 36.0515L39.2859 37.6741C41.3572 38.6095 44.3704 37.8169 46.0041 35.9104L46.0467 35.8622C46.8774 34.8911 47.2223 33.7647 46.9887 32.7722C46.7903 31.9207 46.1821 31.2281 45.279 30.8193L41.6835 29.1966C41.0939 28.9306 40.4263 28.8039 39.7365 28.8039H39.7347Z" fill="#0A0A0A"/>
<path d="M31.8801 45.3894L35.5516 41.1033C36.8459 39.5931 36.5604 37.7669 34.9137 37.0243C33.2671 36.2817 30.8843 36.9029 29.5919 38.4131L25.9204 42.6992C24.6261 44.2094 24.9116 46.0356 26.5582 46.7782C28.2049 47.5208 30.5876 46.8996 31.8801 45.3894Z" fill="#F67BE8"/>
<path d="M28.1024 47.2673C27.5275 47.2673 26.9712 47.162 26.4798 46.9406C25.6936 46.5854 25.1633 45.9767 24.9871 45.2269C24.7869 44.3683 25.0743 43.4061 25.7771 42.5867L29.4486 38.3006C30.7911 36.7351 33.2777 36.0907 34.993 36.8636C35.7792 37.2189 36.3095 37.8276 36.4857 38.5773C36.6859 39.436 36.3985 40.3982 35.6957 41.2175L32.0242 45.5036C31.0674 46.6193 29.5283 47.2673 28.1042 47.2673H28.1024ZM33.3593 36.8886C32.0465 36.8886 30.6224 37.492 29.736 38.5274L26.0645 42.8134C25.4359 43.5471 25.1744 44.3986 25.3506 45.1484C25.5008 45.7874 25.9569 46.3105 26.6375 46.6175C28.2081 47.3262 30.4963 46.7246 31.7386 45.2769L35.4102 40.9908C36.0388 40.2571 36.3002 39.4056 36.1241 38.6559C35.9739 38.0168 35.5177 37.4938 34.8372 37.1867C34.3903 36.985 33.8841 36.8886 33.3612 36.8886H33.3593Z" fill="#0A0A0A"/>
</g>
<defs>
<clipPath id="clip0_393_18446">
<rect width="70" height="70" fill="white" transform="translate(8 8)"/>
</clipPath>
</defs>
</svg>
