<svg width="28" height="28" viewBox="0 0 28 28" fill="none" xmlns="http://www.w3.org/2000/svg">
<rect width="28" height="28" rx="4" fill="#2B50FF"/>
<path d="M18.9994 17.1974C20.2126 17.8069 21.2528 18.785 22.0121 20.008C22.1624 20.2502 22.2376 20.3713 22.2636 20.539C22.3164 20.8798 22.0834 21.2988 21.766 21.4336C21.6098 21.5 21.4341 21.5 21.0827 21.5M17.3327 13.6102C18.5675 12.9966 19.416 11.7224 19.416 10.25C19.416 8.77762 18.5675 7.50343 17.3327 6.8898M15.666 10.25C15.666 12.3211 13.9871 14 11.916 14C9.84497 14 8.16604 12.3211 8.16604 10.25C8.16604 8.17893 9.84497 6.5 11.916 6.5C13.9871 6.5 15.666 8.17893 15.666 10.25ZM6.13207 19.782C7.46066 17.7871 9.55719 16.5 11.916 16.5C14.2749 16.5 16.3714 17.7871 17.7 19.782C17.9911 20.219 18.1366 20.4375 18.1198 20.7166C18.1068 20.9339 17.9643 21.2 17.7907 21.3313C17.5676 21.5 17.2609 21.5 16.6474 21.5H7.18467C6.57118 21.5 6.26444 21.5 6.04141 21.3313C5.86775 21.2 5.72528 20.9339 5.71224 20.7166C5.69548 20.4375 5.84101 20.219 6.13207 19.782Z" stroke="white" stroke-width="2" stroke-linecap="round" stroke-linejoin="round"/>
</svg>
