<svg width="14" height="14" viewBox="0 0 14 14" fill="none" xmlns="http://www.w3.org/2000/svg">
<path d="M9.66667 4.33322V2.00032C9.66667 1.44583 9.66667 1.16858 9.54986 0.998201C9.44781 0.84934 9.28976 0.748216 9.11184 0.717939C8.90819 0.683285 8.65646 0.799467 8.153 1.03183L2.23934 3.76121C1.79034 3.96845 1.56583 4.07206 1.4014 4.23276C1.25604 4.37483 1.14508 4.54825 1.077 4.73977C1 4.95641 1 5.20367 1 5.69819V8.99988M10 8.66655H10.0067M1 6.46655L1 10.8666C1 11.6133 1 11.9867 1.14532 12.2719C1.27316 12.5228 1.47713 12.7267 1.72801 12.8546C2.01323 12.9999 2.3866 12.9999 3.13333 12.9999H10.8667C11.6134 12.9999 11.9868 12.9999 12.272 12.8546C12.5229 12.7267 12.7268 12.5228 12.8547 12.2719C13 11.9867 13 11.6133 13 10.8666V6.46655C13 5.71982 13 5.34645 12.8547 5.06123C12.7268 4.81035 12.5229 4.60638 12.272 4.47854C11.9868 4.33322 11.6134 4.33322 10.8667 4.33322L3.13333 4.33322C2.3866 4.33322 2.01323 4.33322 1.72801 4.47854C1.47713 4.60637 1.27316 4.81035 1.14532 5.06123C1 5.34645 1 5.71982 1 6.46655ZM10.3333 8.66655C10.3333 8.85065 10.1841 8.99988 10 8.99988C9.81591 8.99988 9.66667 8.85065 9.66667 8.66655C9.66667 8.48246 9.81591 8.33322 10 8.33322C10.1841 8.33322 10.3333 8.48246 10.3333 8.66655Z" stroke="white" stroke-linecap="round" stroke-linejoin="round"/>
</svg>
