<svg width="28" height="28" viewBox="0 0 28 28" fill="none" xmlns="http://www.w3.org/2000/svg">
<rect width="28" height="28" rx="4" fill="#E0E8FF" fill-opacity="0.1"/>
<path d="M17.3333 10.6668V7.75065C17.3333 7.05753 17.3333 6.71097 17.1873 6.498C17.0598 6.31192 16.8622 6.18551 16.6398 6.14767C16.3852 6.10435 16.0706 6.24958 15.4413 6.54003L8.04918 9.95176C7.48792 10.2108 7.20729 10.3403 7.00175 10.5412C6.82005 10.7188 6.68135 10.9356 6.59625 11.175C6.5 11.4458 6.5 11.7548 6.5 12.373V16.5001M17.75 16.0834H17.7583M6.5 13.3334L6.5 18.8334C6.5 19.7669 6.5 20.2336 6.68166 20.5901C6.84144 20.9037 7.09641 21.1587 7.41002 21.3184C7.76654 21.5001 8.23325 21.5001 9.16667 21.5001H18.8333C19.7668 21.5001 20.2335 21.5001 20.59 21.3184C20.9036 21.1587 21.1586 20.9037 21.3183 20.5901C21.5 20.2336 21.5 19.7669 21.5 18.8334V13.3334C21.5 12.4 21.5 11.9333 21.3183 11.5768C21.1586 11.2632 20.9036 11.0082 20.59 10.8484C20.2335 10.6668 19.7668 10.6668 18.8333 10.6668L9.16667 10.6668C8.23325 10.6668 7.76654 10.6668 7.41002 10.8484C7.09641 11.0082 6.84144 11.2632 6.68166 11.5768C6.5 11.9333 6.5 12.4 6.5 13.3334ZM18.1667 16.0834C18.1667 16.3136 17.9801 16.5001 17.75 16.5001C17.5199 16.5001 17.3333 16.3136 17.3333 16.0834C17.3333 15.8533 17.5199 15.6668 17.75 15.6668C17.9801 15.6668 18.1667 15.8533 18.1667 16.0834Z" stroke="white" stroke-width="1.5" stroke-linecap="round" stroke-linejoin="round"/>
</svg>
