<svg width="28" height="28" viewBox="0 0 28 28" fill="none" xmlns="http://www.w3.org/2000/svg">
<rect width="28" height="28" rx="4" fill="#2B50FF"/>
<path d="M17.3333 10.6667V7.75054C17.3333 7.05742 17.3333 6.71087 17.1873 6.49789C17.0598 6.31181 16.8622 6.18541 16.6398 6.14756C16.3852 6.10424 16.0706 6.24947 15.4413 6.53993L8.04918 9.95165C7.48792 10.2107 7.20729 10.3402 7.00175 10.5411C6.82005 10.7187 6.68135 10.9355 6.59625 11.1749C6.5 11.4457 6.5 11.7547 6.5 12.3729V16.5M17.75 16.0833H17.7583M6.5 13.3333L6.5 18.8333C6.5 19.7667 6.5 20.2335 6.68166 20.59C6.84144 20.9036 7.09641 21.1585 7.41002 21.3183C7.76654 21.5 8.23325 21.5 9.16667 21.5H18.8333C19.7668 21.5 20.2335 21.5 20.59 21.3183C20.9036 21.1585 21.1586 20.9036 21.3183 20.59C21.5 20.2335 21.5 19.7667 21.5 18.8333V13.3333C21.5 12.3999 21.5 11.9332 21.3183 11.5767C21.1586 11.2631 20.9036 11.0081 20.59 10.8483C20.2335 10.6667 19.7668 10.6667 18.8333 10.6667L9.16667 10.6667C8.23325 10.6667 7.76654 10.6667 7.41002 10.8483C7.09641 11.0081 6.84144 11.2631 6.68166 11.5767C6.5 11.9332 6.5 12.3999 6.5 13.3333ZM18.1667 16.0833C18.1667 16.3134 17.9801 16.5 17.75 16.5C17.5199 16.5 17.3333 16.3134 17.3333 16.0833C17.3333 15.8532 17.5199 15.6667 17.75 15.6667C17.9801 15.6667 18.1667 15.8532 18.1667 16.0833Z" stroke="white" stroke-width="1.5" stroke-linecap="round" stroke-linejoin="round"/>
</svg>
