<svg width="24" height="24" viewBox="0 0 24 24" fill="none" xmlns="http://www.w3.org/2000/svg">
<g clip-path="url(#clip0_2797_1613)">
<mask id="mask0_2797_1613" style="mask-type:alpha" maskUnits="userSpaceOnUse" x="0" y="0" width="24" height="24">
<path d="M24 0H0V24H24V0Z" fill="#C4C4C4"/>
</mask>
<g mask="url(#mask0_2797_1613)">
<path d="M12 22.9083C18.0249 22.9083 22.9091 18.0241 22.9091 11.9992C22.9091 5.97427 18.0249 1.09009 12 1.09009C5.97507 1.09009 1.09091 5.97427 1.09091 11.9992C1.09091 18.0241 5.97507 22.9083 12 22.9083Z" fill="#ECF3FF"/>
<path d="M9.05456 5.34551L5.23636 3.81825V4.36371L8.50908 7.30915L8.29092 10.3637L7.30908 14.5092L6 16.3637L6.32728 18.9819L7.96364 19.2001L9.27272 18.9819L10.5818 19.2001L12.8727 17.7819L13.3091 15.491L16.0364 12.8728L17.2364 13.7455L18.4364 15.491V18.9819L20.0727 18.5455L21.7091 14.9455L22.1454 10.3637L16.2546 1.74552L15.2727 1.52734L9.05456 5.34551Z" fill="white"/>
<path d="M3.27272 11.6502C3.31636 11.2793 3.33817 10.9084 3.44726 10.5593C3.75272 9.11929 4.34181 7.74473 5.21455 6.63201C5.36727 6.43565 5.49819 6.26109 5.67271 6.08653L4.69091 5.17017C4.51636 5.43201 4.34181 5.69381 4.18908 5.95565C3.38181 7.35201 2.94544 8.92288 2.83636 10.472C2.79272 10.8647 2.81454 11.2574 2.81454 11.6284C2.81454 12.0211 2.85817 12.392 2.92363 12.7847C3.03272 13.5484 3.22908 14.2902 3.4909 14.9884C3.31636 14.2465 3.22908 13.5047 3.20726 12.7411C3.20726 12.392 3.20726 12.0211 3.27272 11.6502Z" fill="#94A6C4"/>
<path d="M7.74545 4.58196C7.20001 4.32015 6.43637 3.97105 5.89093 3.70923C6.39273 3.22923 7.30909 2.72742 8.07273 2.40015C7.52729 2.83651 7.52729 3.75287 7.74545 4.58196Z" fill="#94A6C4"/>
<path d="M5.5418 8.29029C5.23636 9.05393 5.04 9.86121 4.97457 10.6466C4.95272 10.843 4.93093 11.0394 4.95272 11.2358C4.95272 11.4321 4.95272 11.6285 4.97457 11.8249L4.99636 12.1303C4.99636 12.2176 5.01821 12.3266 5.04 12.4139L5.12729 13.003L5.14908 12.4139C5.14908 12.3266 5.14908 12.2176 5.17093 12.1303L5.21457 11.8466C5.23636 11.6503 5.28 11.4539 5.3018 11.2794C5.32364 11.083 5.38908 10.9085 5.43272 10.7339C5.62908 9.99213 5.95636 9.31577 6.34908 8.68301C6.61093 8.26849 6.91636 7.89757 7.24364 7.54849L6.39272 6.74121C6.0218 7.24301 5.76 7.74485 5.5418 8.29029Z" fill="#94A6C4"/>
<path d="M18.1746 4.55936C17.0182 4.14481 16.56 4.27572 16.56 4.27572C16.56 4.27572 15.84 6.21753 13.0909 6.34845C13.1127 6.37024 15.5782 7.81024 18.1746 4.55936Z" fill="#94A6C4"/>
<path d="M18.96 8.42114C18.8509 10.8211 16.9964 11.7157 15.5564 11.5411C14.7709 11.4321 13.6146 11.803 13.6146 11.803L12.1527 14.3339L11.6727 14.5084L12.5018 12.9811C12.5018 12.9811 10.5382 13.7011 10.3854 13.7666C10.2327 13.8321 9.6218 14.7266 9.12 15.6648C9.01093 15.0102 8.59636 14.5521 8.59636 14.5302C8.59636 14.6393 8.81457 16.603 8.57457 17.1484C8.33457 17.7157 7.26544 18.0866 7.26544 18.0866L8.83636 18.6757L8.94544 18.7193L10.1236 17.6066L10.56 15.9484L11.1054 15.5557C11.1054 15.5557 12.4582 15.403 12.2618 16.6248C12.1746 17.2139 11.52 17.1702 10.7782 17.6284C10.3418 17.8902 9.77457 18.3048 9.49093 18.5884L10.2764 19.1557C10.2764 19.1557 11.2146 19.003 12.5454 17.9557C13.8982 16.8648 13.2218 15.6866 13.2218 15.6866L15.4254 13.0466L16.8654 13.1557C16.8654 13.1557 19.3527 13.7884 20.16 16.1448C21.7746 11.6284 19.1782 8.63935 18.96 8.42114Z" fill="#94A6C4"/>
<path d="M21.4909 6.54549C21.8836 6.72005 22.1891 6.9811 22.4727 7.2211C20.5091 0.41383 14.1382 1.17747 14.0073 1.2211C14.16 0.981102 14.7273 0.610194 15.2509 0.41383C15.2509 0.41383 12.5454 -0.54617 10.08 1.15565C10.1236 0.762922 10.6036 0.17383 10.6036 0.17383C7.2 1.63641 6.9818 3.38187 7.63636 4.42837C7.09093 4.16656 6.54544 3.92656 6 3.66474C4.32 2.85747 2.88 2.1811 2.79273 2.15929C2.64 2.11565 2.57455 2.1811 2.57455 2.1811C2.57455 2.1811 2.5091 2.24656 2.64 2.37747C4.62546 4.36292 5.89093 5.56369 8.00728 7.50474C7.65821 8.29018 7.61457 8.68294 7.78908 9.09746C8.02908 9.66474 8.00728 9.94838 7.92 10.3193C7.81093 10.6902 6.93821 13.9847 6.78544 14.3557C6.63272 14.7484 5.47636 16.0575 5.45457 16.4938C5.43272 16.9302 5.7818 18.8502 6.2618 19.1338C6.63272 19.3302 7.52728 19.7447 8.1818 19.832C8.4 19.8757 8.61821 19.8538 8.72728 19.7666C9.16364 19.4829 9.27272 19.4393 9.55636 19.4611L9.6218 19.4829C9.73092 19.5047 9.8618 19.5484 10.0364 19.5702C10.4073 19.6138 10.8873 19.6138 11.28 19.352C11.8473 18.9157 12.8073 18.3702 13.1346 18.0865C13.5273 17.6938 13.7891 17.1484 13.7891 16.5375C13.7891 15.992 14.16 15.5557 14.5746 15.1193C14.9673 14.7265 15.9491 13.7665 16.3418 13.352C17.3454 13.7011 17.7164 15.1411 17.7164 15.9266C17.7164 18.1084 15.9491 21.2938 11.8909 21.5338C11.7382 21.5338 11.5854 21.5557 11.4109 21.5557C6.13093 21.5557 1.81091 16.8865 1.81091 11.4102C1.81091 7.09018 4.40657 4.16484 4.42839 4.14302C2.33384 6.12849 1.09091 8.9011 1.09091 11.9993C1.09091 18.0211 5.97821 22.9091 12 22.9091C18.0218 22.9091 22.9091 18.0211 22.9091 11.9993C22.9091 10.0357 22.4073 8.13825 21.4909 6.54549ZM6.58908 5.14838C6.28364 4.88654 5.97821 4.62474 5.67272 4.36292C6.08729 4.5811 6.5018 4.7993 6.87272 4.99566C8.00728 5.58474 8.94544 6.10838 9.12 6.2393C9.12 6.2393 9.1418 6.2611 9.16364 6.28294C9.27272 6.41382 9.3818 6.63202 9.18544 6.91566C9.07636 7.06838 8.94544 7.02474 8.74908 6.89382C8.57457 6.78474 7.63636 6.04294 6.58908 5.14838ZM12.9382 16.4938C12.9382 16.8647 12.7636 17.192 12.5454 17.432C12.4364 17.5411 12 17.8247 11.6946 18.0211C11.3891 18.2393 11.0618 18.4357 10.8 18.632C10.6909 18.6975 10.5164 18.7411 10.2327 18.6975L9.55636 18.6102C9.97093 18.1957 11.1054 17.3011 11.4764 17.1266C11.9127 16.9084 12.1746 16.6684 11.9782 16.1665C11.8036 15.6429 11.1273 15.6647 11.1273 15.6647C11.1273 15.6647 11.5418 15.5557 11.8691 15.5993C11.4546 15.4247 10.8873 15.4684 10.6036 15.6647C10.2982 15.8829 10.2109 16.7775 10.0146 17.3229C9.81821 17.8902 9.3818 18.1302 8.72728 18.5884C8.35636 18.8284 8.11636 18.8938 7.9418 18.872C7.57093 18.7629 7.13457 18.5665 6.82908 18.4138C6.65457 18.0865 6.43636 17.0611 6.41457 16.6465C6.5018 16.4284 6.85093 15.992 7.02544 15.7302C7.37457 15.2502 7.57093 14.9665 7.65821 14.7047C7.81093 14.3338 8.44364 11.9993 8.68364 11.0175C8.92364 11.432 9.25093 12.1302 9.09821 12.5229C9.88364 11.6938 9.53456 10.712 9.36 10.3193C9.20728 9.92653 9.03272 9.16294 9.3818 8.4211C9.70908 7.6793 10.8436 5.67202 10.8436 5.67202C10.8436 5.67202 11.04 6.19566 11.4546 6.15202C11.8473 6.10838 15.6218 1.87565 15.6218 1.87565C15.6218 1.87565 16.2109 3.83929 15.12 5.0393C14.0291 6.2393 13.1127 6.37018 13.1127 6.37018C13.1127 6.37018 14.3346 6.76294 15.6 6.10838C15.9273 7.28654 16.2109 8.50838 16.2109 8.6611C16.1236 8.81382 14.9018 10.8647 14.7927 10.9957C14.7491 11.0393 14.4 11.0829 14.1818 11.0829C13.7891 11.1484 13.5491 11.1702 13.44 11.2357C13.2654 11.3447 12.2618 13.2429 11.7818 14.1593C11.3454 14.2247 10.9091 14.3775 10.56 14.792C10.7346 14.7047 11.2364 14.7047 11.6073 14.7047C11.9346 14.7265 12.8291 15.3811 12.9382 16.4065C12.9382 16.472 12.9382 16.472 12.9382 16.4938ZM10.3854 17.4102C10.6254 17.1484 10.6691 16.6465 10.7127 16.4938C10.7564 16.3411 10.8436 16.0575 11.04 16.0357C11.2364 16.0138 11.6509 16.1447 11.6073 16.472C11.5636 16.7775 11.2364 16.7993 10.9746 16.952C10.8 17.0611 10.4291 17.3665 10.3854 17.4102ZM19.8764 17.6938C19.6146 14.9011 17.6946 13.592 16.8436 13.1557C17.8254 13.0465 20.3564 12.2829 18.96 8.4211C19.0036 8.59566 19.3964 10.5157 18.2836 11.5193C17.1491 12.5447 15.4909 12.1084 15.2946 12.1084C15.12 12.0865 14.2909 12.8938 13.1564 14.4429C13.0473 14.3775 12.5891 14.2029 12.0218 14.2247C12.5891 13.1557 13.44 11.6284 13.5709 11.4975C13.6146 11.4538 13.9854 11.4102 14.2036 11.3884C14.64 11.3447 14.8582 11.3011 14.9454 11.2138C14.9891 11.1484 15.2946 10.6684 15.6 10.1447C15.7964 10.1665 16.32 10.2102 16.3854 10.1884C16.4291 10.1447 17.0182 9.09746 17.04 8.96654C17.0618 8.8793 16.6473 7.24294 16.3854 6.19566C21.7746 8.74838 22.6254 14.3775 19.8764 17.6938Z" fill="#1C324F"/>
<path d="M14.6837 4.71192C15.2946 4.16646 15.2073 3.22827 15.2073 3.22827L13.3746 5.25735C13.3527 5.25735 13.92 5.36643 14.6837 4.71192Z" fill="#1C324F"/>
<path d="M7.83271 16.2538L8.13819 15.3811C8.13819 15.3811 7.19999 16.5811 7.11271 16.7557C7.02543 16.952 7.06907 17.3229 7.37455 17.3447C7.67999 17.3666 8.09455 16.9738 8.13819 16.6684C8.20363 16.2538 7.83271 16.2538 7.83271 16.2538Z" fill="#1C324F"/>
<path d="M10.7127 10.9739C11.3673 10.9084 12.5455 10.3848 13.0473 9.97022C13.5491 9.53386 13.4618 8.57386 12.6764 8.29022C12.9382 7.85386 13.3746 6.9375 13.3746 6.9375C13.3746 6.9375 10.56 10.2321 10.3418 10.2757C10.1237 10.3193 10.0364 9.49022 10.0364 9.49022C9.38181 11.083 10.4946 11.4757 10.7127 10.9739Z" fill="#1C324F"/>
<path d="M10.9527 10.5594L12.4146 8.70483C12.4146 8.70483 13.0473 9.14119 12.6327 9.64299C12.1091 10.2321 10.9527 10.5594 10.9527 10.5594Z" fill="#FFD925"/>
<path d="M14.8364 2.29028L13.8327 3.38119C13.0254 3.62119 12.24 4.05756 11.4982 4.77755C11.4982 4.36301 12.6982 2.5521 14.8364 2.29028Z" fill="#D82423"/>
<path d="M16.1018 3.22838C16.1237 2.94474 16.1018 2.61747 16.0582 2.31201C17.3673 2.48656 18.9164 3.2502 20.6837 4.97382C19.2218 4.16656 17.6727 3.42474 16.1018 3.22838Z" fill="#D82423"/>
<path d="M16.4946 4.64663C16.4946 4.64663 21.36 6.78481 22.2546 12.7848C22.3854 4.97389 16.8436 4.58118 16.4946 4.64663Z" fill="#D82423"/>
<path d="M9.40363 1.19922C9.33815 1.37377 6.58907 4.31922 10.0146 5.4756C8.13815 3.79558 9.38179 1.22104 9.40363 1.19922Z" fill="#D82423"/>
<path d="M10.8654 5.01739C10.8654 5.01739 11.1491 1.67921 13.1564 0.784668C13.0036 0.828304 8.92364 2.07194 10.8654 5.01739Z" fill="#D82423"/>
</g>
</g>
<defs>
<clipPath id="clip0_2797_1613">
<rect width="24" height="24" fill="white"/>
</clipPath>
</defs>
</svg>
