<svg width="24" height="24" viewBox="0 0 24 24" fill="none" xmlns="http://www.w3.org/2000/svg">
<g clip-path="url(#clip0_2796_1753)">
<mask id="mask0_2796_1753" style="mask-type:luminance" maskUnits="userSpaceOnUse" x="0" y="0" width="24" height="24">
<path d="M24 0H0V24H24V0Z" fill="white"/>
</mask>
<g mask="url(#mask0_2796_1753)">
<path d="M12 23.6401C18.4286 23.6401 23.64 18.4287 23.64 12.0001C23.64 5.57151 18.4286 0.360107 12 0.360107C5.57139 0.360107 0.359985 5.57151 0.359985 12.0001C0.359985 18.4287 5.57139 23.6401 12 23.6401Z" fill="url(#paint0_linear_2796_1753)"/>
<path d="M17.0936 16.6376L13.1566 7.1228C12.9341 6.63113 12.6052 6.39014 12.1699 6.39014H11.8217C11.3864 6.39014 11.0575 6.63113 10.835 7.1228L9.123 11.2681H7.82667C7.64002 11.2689 7.4612 11.3432 7.32899 11.4749C7.19679 11.6067 7.12188 11.7852 7.12053 11.9719V11.9815C7.12188 12.1681 7.19679 12.3467 7.32899 12.4785C7.4612 12.6102 7.64002 12.6845 7.82667 12.6852H8.523L6.88836 16.6376C6.85744 16.7243 6.8411 16.8155 6.84 16.9076C6.84 17.1293 6.90771 17.3028 7.03347 17.4378C7.15923 17.5728 7.33332 17.6401 7.55583 17.6401C7.70191 17.6382 7.8438 17.591 7.962 17.5051C8.08776 17.4184 8.17482 17.2931 8.24253 17.1485L10.0417 12.6851H11.2896C11.4762 12.6844 11.6551 12.6101 11.7873 12.4783C11.9195 12.3466 11.9944 12.168 11.9957 11.9814V11.9621C11.9944 11.7754 11.9195 11.5969 11.7873 11.4651C11.6551 11.3333 11.4762 11.259 11.2896 11.2583H10.6222L11.9958 7.83614L15.7393 17.1485C15.8071 17.2931 15.8941 17.4185 16.0199 17.5052C16.1381 17.5911 16.28 17.6382 16.4262 17.6402C16.6486 17.6402 16.8228 17.5727 16.9485 17.4377C17.0743 17.3027 17.142 17.1292 17.142 16.9075C17.1456 16.8151 17.1291 16.723 17.0936 16.6376Z" fill="white"/>
</g>
</g>
<defs>
<linearGradient id="paint0_linear_2796_1753" x1="21.4749" y1="5.64467" x2="4.15462" y2="20.2179" gradientUnits="userSpaceOnUse">
<stop stop-color="#B6509E"/>
<stop offset="1" stop-color="#2EBAC6"/>
</linearGradient>
<clipPath id="clip0_2796_1753">
<rect width="24" height="24" fill="white"/>
</clipPath>
</defs>
</svg>
