<svg width="24" height="24" viewBox="0 0 16 16" fill="none" xmlns="http://www.w3.org/2000/svg">
<rect width="16" height="16" rx="8" fill="#0A0A0A"/>
<path d="M6.26855 11.1111V9.0232C6.26855 8.28767 5.67229 7.69141 4.93676 7.69141C4.20122 7.69141 3.60496 8.28767 3.60496 9.0232V11.1111C3.60496 11.8466 4.20122 12.4429 4.93676 12.4429C5.67229 12.4429 6.26855 11.8466 6.26855 11.1111Z" fill="#F67BE8"/>
<path d="M10.4238 7.69531H9.0401C7.72785 7.69531 6.66406 8.75897 6.66406 10.0711C6.66406 11.3832 7.72785 12.4468 9.0401 12.4468H10.4238C11.736 12.4468 12.7998 11.3832 12.7998 10.0711C12.7998 8.75897 11.736 7.69531 10.4238 7.69531Z" fill="#2B50FF"/>
<path d="M3.2002 5.53656V5.56024C3.2002 6.51936 3.97771 7.29688 4.93683 7.29688H6.54379C7.50291 7.29688 8.28043 6.51936 8.28043 5.56024V5.53656C8.28043 4.57744 7.50291 3.79992 6.54379 3.79992H4.93683C3.97771 3.79992 3.2002 4.57744 3.2002 5.53656Z" fill="#1ADEAD"/>
<path d="M10.4243 7.29774C11.3899 7.29774 12.1727 6.51492 12.1727 5.54926C12.1727 4.5836 11.3899 3.80078 10.4243 3.80078C9.4586 3.80078 8.67578 4.5836 8.67578 5.54926C8.67578 6.51492 9.4586 7.29774 10.4243 7.29774Z" fill="#C7EE1A"/>
</svg>
