<svg width="24" height="24" viewBox="0 0 24 24" fill="none" xmlns="http://www.w3.org/2000/svg">
<rect width="24" height="24" rx="12" fill="white"/>
<path d="M20.9911 13.1207L20.3103 10.467C20.2908 10.389 20.2279 10.3282 20.1499 10.3087L17.52 9.66049C17.5005 9.65614 17.4788 9.65397 17.4593 9.65397C17.3964 9.64748 17.3314 9.66698 17.2837 9.71467L12.8457 14.1527L12.2581 11.8589C12.2386 11.7808 12.1757 11.7201 12.0977 11.7006L9.8386 11.1434L14.2744 6.70758C14.3004 6.68156 14.3156 6.64905 14.3265 6.61651C14.346 6.57317 14.3525 6.5233 14.3395 6.47561L13.6587 3.8219C13.6392 3.74385 13.5763 3.68315 13.4983 3.66364L10.8684 3.01539C10.8164 3.00238 10.7643 3.01105 10.7188 3.03273H10.7167C10.7036 3.03924 10.6928 3.04791 10.6798 3.05658C10.669 3.06525 10.6538 3.06959 10.6451 3.08043L3.07429 10.6469C3.07429 10.6469 3.06126 10.6686 3.05259 10.6795C3.00489 10.7358 2.98755 10.8096 3.00923 10.8811L3.74418 13.4459C3.76589 13.5196 3.82225 13.576 3.89378 13.5955L6.35669 14.3023L7.06348 16.763C7.08515 16.8367 7.14154 16.8931 7.21308 16.9126L9.68465 17.6216L10.3936 20.0932C10.4153 20.1669 10.4717 20.2232 10.5432 20.2428L13.1189 20.9821C13.1384 20.9885 13.1601 20.9907 13.1796 20.9907C13.1839 20.9907 13.1882 20.9885 13.1947 20.9885C13.1947 20.9885 13.1969 20.9885 13.1991 20.9885C13.2554 20.9885 13.3118 20.9669 13.3552 20.9235L20.9282 13.3505C20.9542 13.3245 20.9694 13.292 20.9802 13.2594C20.9997 13.2161 21.0062 13.1662 20.9932 13.1185L20.9911 13.1207ZM17.5959 16.0627L17.043 13.9055L18.268 12.6827L20.3732 13.2876L17.5981 16.0649L17.5959 16.0627ZM13.301 20.3576L12.7481 18.2005L14.9639 15.9847L17.0691 16.5896L13.301 20.3576ZM15.0094 15.3191L14.4804 13.4762L16.3818 13.9445L15.0094 15.3169V15.3191ZM16.6831 14.2654L17.1688 16.1581L15.3194 15.627L16.6831 14.2633V14.2654ZM16.746 13.5825L14.591 13.0513L17.3596 10.2827L17.958 12.3706L16.746 13.5825ZM14.0554 13.5847L14.6538 15.6725L12.4489 17.8774L10.2939 17.3462L14.0554 13.5847ZM19.9179 10.699L20.4707 12.8562L18.3807 12.2556L17.7823 10.1721L19.9179 10.699ZM9.96866 17.0254L9.41582 14.8681L10.2137 14.0703L12.3189 14.6752L9.96866 17.0254ZM10.2592 13.4047L9.7302 11.5619L11.6316 12.0302L10.2592 13.4025V13.4047ZM12.4186 14.2459L10.5692 13.7147L11.9329 12.351L12.4186 14.2437V14.2459ZM9.90578 13.7603L9.1188 14.5473L6.96375 14.0161L9.30743 11.6724L9.90578 13.7603ZM7.42555 6.91571L8.02395 9.00357L5.7995 11.228L3.64445 10.6968L7.42555 6.91571ZM10.7101 3.63112L11.3085 5.71895L10.1161 6.91139L7.96107 6.38022L10.7101 3.63112ZM10.966 9.39163L10.4131 7.23658L11.6186 6.03116L13.7237 6.63387L10.966 9.39163ZM8.3795 8.65015L7.8505 6.80731L9.75187 7.27561L8.3795 8.64798V8.65015ZM10.0532 7.59648L10.5389 9.48918L8.69171 8.95801L10.0554 7.5943L10.0532 7.59648ZM8.33612 9.3136L10.4413 9.91631L6.65371 13.7039L6.10087 11.5488L8.33612 9.3136ZM13.2685 4.05172L13.8213 6.20892L11.7313 5.60839L11.1329 3.52488L13.2685 4.05172ZM3.53606 11.1239L5.43746 11.5922L4.06505 12.9646L3.53606 11.1217V11.1239ZM4.37509 13.2768L5.7388 11.9131L6.22445 13.8058L4.37726 13.2746L4.37509 13.2768ZM7.45157 16.5267L6.85318 14.4432L8.98873 14.9701L9.54157 17.1272L7.45157 16.5267ZM10.1855 17.7733L12.0869 18.2416L10.7145 19.614L10.1855 17.7712V17.7733ZM11.0245 19.9262L12.3882 18.5625L12.8739 20.4552L11.0245 19.924V19.9262Z" fill="url(#paint0_linear_2636_1879)"/>
<defs>
<linearGradient id="paint0_linear_2636_1879" x1="4.2472" y1="14.8226" x2="19.8333" y2="9.14882" gradientUnits="userSpaceOnUse">
<stop stop-color="#29BCFA"/>
<stop offset="0.43" stop-color="#6464E4"/>
<stop offset="1" stop-color="#B45AFA"/>
</linearGradient>
</defs>
</svg>
