<svg width="24" height="24" viewBox="0 0 24 24" fill="none" xmlns="http://www.w3.org/2000/svg">
<g clip-path="url(#clip0_2797_1624)">
<path d="M12 24C18.6274 24 24 18.6274 24 12C24 5.37259 18.6274 0 12 0C5.37259 0 0 5.37259 0 12C0 18.6274 5.37259 24 12 24Z" fill="#FF0025"/>
<path d="M11.9302 6.06348C11.7009 6.06348 11.515 6.24938 11.515 6.47877V17.5506C11.515 17.7799 11.7009 17.9659 11.9302 17.9659C12.1596 17.9659 12.3455 17.7799 12.3455 17.5506V6.47877C12.3455 6.24938 12.1596 6.06348 11.9302 6.06348Z" fill="white"/>
<path d="M11.9302 6.06348C12.1596 6.06348 12.3455 6.24938 12.3455 6.47877V17.5506C12.3455 17.7799 12.1596 17.9659 11.9302 17.9659C11.7009 17.9659 11.515 17.7799 11.515 17.5506V6.47877C11.515 6.24938 11.7009 6.06348 11.9302 6.06348Z" stroke="white"/>
<path d="M17.9763 11.9956C17.9763 11.7662 17.7903 11.5803 17.561 11.5803H6.48916C6.25982 11.5803 6.07387 11.7662 6.07387 11.9956C6.07387 12.225 6.25982 12.4109 6.48916 12.4109H17.561C17.7903 12.4109 17.9763 12.225 17.9763 11.9956Z" fill="white"/>
<path d="M17.9763 11.9956C17.9763 12.225 17.7903 12.4109 17.561 12.4109H6.48916C6.25982 12.4109 6.07387 12.225 6.07387 11.9956C6.07387 11.7662 6.25982 11.5803 6.48916 11.5803H17.561C17.7903 11.5803 17.9763 11.7662 17.9763 11.9956Z" stroke="white"/>
<path d="M16.2386 16.2442C16.4008 16.082 16.4008 15.8191 16.2386 15.6569L8.40964 7.82794C8.24745 7.66575 7.9845 7.66575 7.82231 7.82794C7.66012 7.99009 7.66012 8.25308 7.82231 8.41522L15.6513 16.2442C15.8134 16.4064 16.0764 16.4064 16.2386 16.2442Z" fill="white"/>
<path d="M16.2386 16.2442C16.0764 16.4064 15.8134 16.4064 15.6513 16.2442L7.82231 8.41522C7.66012 8.25308 7.66012 7.99009 7.82231 7.82794C7.9845 7.66575 8.24745 7.66575 8.40964 7.82794L16.2386 15.6569C16.4008 15.8191 16.4008 16.082 16.2386 16.2442Z" stroke="white"/>
<path d="M6.08337 17.8135C6.24552 17.9757 6.50851 17.9757 6.67066 17.8135L17.7747 6.70946C17.9369 6.54727 17.9369 6.28432 17.7747 6.12213C17.6125 5.95994 17.3496 5.95994 17.1874 6.12213L6.08337 17.2262C5.92118 17.3884 5.92118 17.6513 6.08337 17.8135Z" fill="white"/>
<path d="M6.08337 17.8135C5.92118 17.6513 5.92118 17.3884 6.08337 17.2262L17.1874 6.12213C17.3496 5.95994 17.6125 5.95994 17.7747 6.12213C17.9369 6.28432 17.9369 6.54727 17.7747 6.70946L6.67066 17.8135C6.50851 17.9757 6.24552 17.9757 6.08337 17.8135Z" stroke="white"/>
</g>
<defs>
<clipPath id="clip0_2797_1624">
<rect width="24" height="24" fill="white"/>
</clipPath>
</defs>
</svg>
