<svg width="24" height="24" viewBox="0 0 24 24" fill="none" xmlns="http://www.w3.org/2000/svg">
<g clip-path="url(#clip0_2796_1605)">
<rect width="24" height="24" fill="white"/>
<path d="M12.7217 9.47167C12.7217 9.88483 11.8868 10.7015 10.9615 11.7866H7.38775C8.20492 9.96388 10.0142 8.90189 11.6501 8.90189C12.3989 8.90189 12.7217 9.12863 12.7217 9.47167ZM13.3267 5.46686C10.3378 5.46686 8.37814 7.08295 7.78155 7.08295C7.70803 7.08295 7.6734 7.03149 7.6734 6.986C7.6734 6.27006 9.79614 5 9.79614 5C7.64633 5.69059 5.72388 7.64676 5.72388 9.05405C5.72388 9.2278 5.76022 9.63204 6.2157 9.63204C7.52804 9.63204 10.3978 6.31629 13.4771 6.31629C13.7754 6.31629 15.752 6.35209 15.752 7.84439C15.752 8.85716 13.5895 10.1712 11.9324 11.7866H18.4383C18.5279 11.4226 18.5761 11.0408 18.5761 10.6425C18.5761 7.42601 16.0909 5.46686 13.3267 5.46686ZM6.91202 13.8673C6.91202 12.6957 7.38775 11.7866 7.38775 11.7866H4C4 14.22 5.72388 16.8646 6.99988 16.8646C7.79256 16.8646 6.91115 15.6601 6.91115 13.8673H6.91202ZM18.4383 11.7866C17.6694 14.9554 14.3974 16.7907 12.1867 16.7907C10.6107 16.7907 10.0666 16.0099 10.0666 15.147C10.0666 13.9105 10.9014 12.7904 11.9324 11.7866H10.9615C8.36971 14.1917 8.36971 16.0808 8.36971 16.4797C8.36971 16.6476 8.4694 18.8468 12 18.8468C16.4179 18.8468 20 15.6862 20 11.7866H18.4383Z" fill="#190B6D"/>
</g>
<defs>
<clipPath id="clip0_2796_1605">
<rect width="24" height="24" rx="12" fill="white"/>
</clipPath>
</defs>
</svg>
