<svg width="24" height="24" viewBox="0 0 24 24" fill="none" xmlns="http://www.w3.org/2000/svg">
<rect width="24" height="24" rx="12" fill="white"/>
<path d="M15.3681 6.79913C14.966 6.54245 14.427 6.69324 14.2197 7.11828L12.5752 10.4867C12.549 10.5409 12.5599 10.6076 12.6029 10.651L12.6582 10.7068C12.7024 10.7502 12.7686 10.761 12.824 10.7339L16.2429 9.11413C16.674 8.90913 16.8262 8.37819 16.5664 7.98174C16.2554 7.50796 15.8464 7.10472 15.3655 6.79913H15.3683H15.3681ZM13.7885 9.80647L13.4127 9.96403C13.3712 9.98161 13.3312 9.94094 13.3478 9.90027L13.5068 9.53092C13.5427 9.44811 13.6269 9.39792 13.7168 9.40323C13.8246 9.41001 13.9102 9.49411 13.9171 9.60017C13.9226 9.68977 13.8715 9.77257 13.7871 9.80794L13.7885 9.80665V9.80647Z" fill="url(#paint0_linear_2796_1684)"/>
<path d="M12.9027 10.9156C12.8447 10.9359 12.8047 10.9903 12.8047 11.0513V11.1286C12.8047 11.1896 12.8434 11.244 12.9027 11.2644L16.4834 12.5012C16.9353 12.6573 17.4245 12.3872 17.5254 11.9268C17.6456 11.3756 17.6456 10.8055 17.5254 10.2542C17.4246 9.7925 16.9368 9.52373 16.4834 9.67983L12.9027 10.9167V10.9154V10.9156ZM14.485 11.2252C14.4257 11.2917 14.3288 11.3148 14.2446 11.2809L13.8659 11.1301C13.8244 11.1138 13.8244 11.0568 13.8659 11.0392L14.2446 10.8884C14.3288 10.8545 14.4255 10.8776 14.485 10.9441C14.5568 11.0242 14.5568 11.1436 14.485 11.2224V11.2252Z" fill="url(#paint1_linear_2796_1684)"/>
<path d="M16.2457 13.0675L12.8268 11.4477C12.7716 11.4219 12.7039 11.4327 12.6609 11.4749L12.6057 11.5305C12.5614 11.574 12.5505 11.6392 12.578 11.6949L14.2224 15.0633C14.4298 15.4884 14.9686 15.639 15.3709 15.3825C15.8518 15.0771 16.2608 14.6738 16.5718 14.1999C16.8316 13.8034 16.6796 13.2727 16.2483 13.0677H16.2456L16.2457 13.0675ZM13.9171 12.5734C13.9102 12.6793 13.8244 12.7633 13.7168 12.7701C13.6256 12.7756 13.5412 12.724 13.5068 12.6424L13.3478 12.2731C13.3297 12.2324 13.3712 12.1916 13.4127 12.2093L13.7885 12.3669C13.8715 12.4023 13.9239 12.4851 13.9184 12.5747L13.9171 12.5734Z" fill="url(#paint2_linear_2796_1684)"/>
<path d="M12.3901 11.7697C12.3695 11.7127 12.3141 11.6733 12.252 11.6733H12.1733C12.1112 11.6733 12.0557 11.7113 12.0351 11.7697L10.7803 15.297C10.6213 15.7424 10.895 16.2242 11.3635 16.3233C11.9231 16.4428 12.5023 16.4428 13.0619 16.3233C13.5304 16.2242 13.804 15.7422 13.6451 15.297L12.3903 11.7697H12.3901ZM12.35 13.3283C12.2698 13.3988 12.1482 13.3988 12.0667 13.3283C11.999 13.2685 11.9756 13.1734 12.01 13.0906L12.1619 12.7187C12.1785 12.678 12.2365 12.678 12.2531 12.7187L12.405 13.0906C12.4396 13.1734 12.4162 13.2685 12.3483 13.3283H12.3496H12.35Z" fill="url(#paint3_linear_2796_1684)"/>
<path d="M11.5236 11.2646C11.5817 11.2443 11.6217 11.1899 11.6217 11.1289V11.0515C11.6217 10.9905 11.583 10.9361 11.5236 10.9158L7.94314 9.67896C7.49121 9.52286 7.00208 9.79309 6.90109 10.2533C6.78094 10.8046 6.78094 11.3747 6.90109 11.926C7.00189 12.3877 7.48972 12.6564 7.94314 12.5003L11.5236 11.2635V11.2648V11.2646ZM9.93165 10.9469C9.99117 10.8804 10.0879 10.8573 10.1721 10.8912L10.5495 11.042C10.591 11.0583 10.591 11.1153 10.5495 11.1331L10.1721 11.2839C10.0879 11.3177 9.99117 11.2947 9.93165 11.2282C9.85986 11.1481 9.85986 11.0286 9.93165 10.9499V10.9471V10.9469Z" fill="url(#paint4_linear_2796_1684)"/>
<path d="M11.8222 11.5305L11.767 11.4748C11.7227 11.4314 11.6565 11.4205 11.6011 11.4476L8.18217 13.0674C7.75107 13.2711 7.59893 13.8033 7.85875 14.1996C8.16971 14.6734 8.57869 15.0766 9.05964 15.3822C9.46173 15.6389 10.0007 15.4881 10.2081 15.0631L11.8512 11.6946C11.8789 11.6389 11.8665 11.5737 11.8235 11.5303H11.8222V11.5305ZM11.069 12.2717L10.91 12.6411C10.8741 12.7239 10.7898 12.7741 10.7 12.7687C10.5921 12.762 10.5066 12.6779 10.4997 12.572C10.4941 12.4824 10.5453 12.3996 10.6295 12.3642L11.0054 12.2067C11.0469 12.1891 11.0868 12.2298 11.0703 12.2704L11.069 12.2717Z" fill="url(#paint5_linear_2796_1684)"/>
<path d="M19.4106 11.0962V11.0901C19.4106 10.133 19.2203 9.20454 18.8448 8.3301C18.4822 7.48569 17.9633 6.72758 17.3025 6.07664C16.6417 5.42553 15.8721 4.91439 15.0149 4.55732C14.1272 4.18742 13.1845 4 12.2131 4C11.2417 4 10.2992 4.18742 9.41149 4.55732C8.55431 4.91439 7.78452 5.42553 7.12373 6.07664C6.46294 6.72758 5.94405 7.48569 5.58158 8.3301C5.20608 9.20454 5.01563 10.133 5.01563 11.0901V11.0962L5.01229 11.1553C4.98718 11.5932 5.00057 12.0323 5.05227 12.4678L5.07459 12.656L5.12127 13.4341C5.15066 13.9228 5.39522 14.3746 5.79062 14.6713C6.00971 14.8865 6.16165 15.1591 6.22842 15.4568L6.31472 15.8414C6.40808 16.2571 6.75084 16.5737 7.17785 16.6385C7.54051 16.6937 7.84738 16.9317 7.98688 17.266L8.0317 17.3735L8.10683 17.5309C8.36628 18.0747 8.95974 18.3838 9.56195 18.2889L9.68878 18.2689C10.2999 18.1727 10.888 18.5409 11.0587 19.127C11.2233 19.6918 11.7149 19.9901 12.2131 20C12.7114 19.9901 13.2029 19.6918 13.3675 19.127C13.5382 18.5409 14.1263 18.1727 14.7374 18.2689L14.8643 18.2889C15.4665 18.3838 16.06 18.0747 16.3194 17.5309L16.3945 17.3735L16.4394 17.266C16.5788 16.9317 16.8857 16.6937 17.2484 16.6385C17.6754 16.5737 18.0182 16.2571 18.1115 15.8414L18.1978 15.4568C18.2646 15.1591 18.4165 14.8865 18.6356 14.6713C19.031 14.3746 19.2756 13.9228 19.305 13.4341L19.3516 12.656L19.374 12.4678C19.4257 12.0323 19.439 11.5932 19.4139 11.1553L19.4106 11.0962ZM16.5136 15.3262C15.3648 16.4577 13.8377 17.081 12.2131 17.081C10.5886 17.081 9.06147 16.4577 7.91285 15.3262C6.76423 14.1947 6.13152 12.6902 6.13152 11.0901C6.13152 9.48997 6.76423 7.98531 7.91285 6.85381C9.06147 5.72233 10.5888 5.09924 12.2131 5.09924C13.8375 5.09924 15.3648 5.72233 16.5136 6.85381C17.6622 7.98531 18.2947 9.48979 18.2947 11.0901C18.2947 12.6904 17.6622 14.1947 16.5136 15.3262Z" fill="url(#paint6_linear_2796_1684)"/>
<path d="M12.0363 10.4106C12.0569 10.4675 12.1123 10.5069 12.1744 10.5069H12.2533C12.3154 10.5069 12.3708 10.469 12.3915 10.4106L13.6463 6.88327C13.8053 6.43789 13.5315 5.95606 13.0631 5.85694C12.5034 5.73877 11.9243 5.73877 11.3647 5.85694C10.8962 5.95606 10.6226 6.43808 10.7814 6.88327L12.0363 10.4106ZM12.0667 8.84376C12.1469 8.77322 12.2685 8.77322 12.35 8.84376C12.4177 8.9022 12.4411 8.99857 12.4067 9.08139L12.2548 9.45347C12.2382 9.49414 12.1802 9.49414 12.1636 9.45347L12.0117 9.08139C11.9771 8.99857 12.0007 8.90349 12.0684 8.84376H12.0671H12.0667Z" fill="url(#paint7_linear_2796_1684)"/>
<path d="M8.18064 9.1138L11.5995 10.7335C11.6548 10.7607 11.7225 10.7486 11.7654 10.7064L11.8207 10.6507C11.8649 10.6073 11.8759 10.5421 11.8484 10.4864L10.2052 7.11795C9.99786 6.69291 9.45908 6.54231 9.0568 6.79881C8.57585 7.10422 8.16689 7.50745 7.85592 7.98141C7.59611 8.37787 7.74805 8.9088 8.17935 9.1138H8.18064ZM10.4982 9.59857C10.505 9.49268 10.5908 9.40841 10.6985 9.40162C10.7896 9.39613 10.874 9.4478 10.9084 9.52932L11.0674 9.89866C11.0855 9.93934 11.044 9.9802 11.0025 9.96243L10.6267 9.80486C10.5437 9.76951 10.4913 9.6867 10.4969 9.59711L10.4982 9.59857Z" fill="url(#paint8_linear_2796_1684)"/>
<defs>
<linearGradient id="paint0_linear_2796_1684" x1="21.3016" y1="1.1201" x2="-2.70842" y2="7.6049" gradientUnits="userSpaceOnUse">
<stop stop-color="#D188FF"/>
<stop offset="1" stop-color="#831FD8"/>
</linearGradient>
<linearGradient id="paint1_linear_2796_1684" x1="21.3016" y1="1.12004" x2="-2.70843" y2="7.60484" gradientUnits="userSpaceOnUse">
<stop stop-color="#D188FF"/>
<stop offset="1" stop-color="#831FD8"/>
</linearGradient>
<linearGradient id="paint2_linear_2796_1684" x1="21.3016" y1="1.12002" x2="-2.70842" y2="7.60482" gradientUnits="userSpaceOnUse">
<stop stop-color="#D188FF"/>
<stop offset="1" stop-color="#831FD8"/>
</linearGradient>
<linearGradient id="paint3_linear_2796_1684" x1="21.3016" y1="1.1201" x2="-2.70844" y2="7.6049" gradientUnits="userSpaceOnUse">
<stop stop-color="#D188FF"/>
<stop offset="1" stop-color="#831FD8"/>
</linearGradient>
<linearGradient id="paint4_linear_2796_1684" x1="21.3016" y1="1.1201" x2="-2.70843" y2="7.6049" gradientUnits="userSpaceOnUse">
<stop stop-color="#D188FF"/>
<stop offset="1" stop-color="#831FD8"/>
</linearGradient>
<linearGradient id="paint5_linear_2796_1684" x1="21.3017" y1="1.11993" x2="-2.70838" y2="7.60473" gradientUnits="userSpaceOnUse">
<stop stop-color="#D188FF"/>
<stop offset="1" stop-color="#831FD8"/>
</linearGradient>
<linearGradient id="paint6_linear_2796_1684" x1="21.3016" y1="1.12" x2="-2.70841" y2="7.6048" gradientUnits="userSpaceOnUse">
<stop stop-color="#D188FF"/>
<stop offset="1" stop-color="#831FD8"/>
</linearGradient>
<linearGradient id="paint7_linear_2796_1684" x1="21.3017" y1="1.11996" x2="-2.70839" y2="7.60476" gradientUnits="userSpaceOnUse">
<stop stop-color="#D188FF"/>
<stop offset="1" stop-color="#831FD8"/>
</linearGradient>
<linearGradient id="paint8_linear_2796_1684" x1="21.3016" y1="1.11996" x2="-2.70842" y2="7.60475" gradientUnits="userSpaceOnUse">
<stop stop-color="#D188FF"/>
<stop offset="1" stop-color="#831FD8"/>
</linearGradient>
</defs>
</svg>
