<svg width="24" height="24" viewBox="0 0 24 24" fill="none" xmlns="http://www.w3.org/2000/svg">
<rect width="24" height="24" rx="12" fill="white"/>
<path d="M14.4736 4.09555L11.9692 5.51248C11.0639 6.02465 10.9834 7.29812 11.8169 7.92023L14.374 9.82884C14.8948 10.2176 14.8446 11.0133 14.2791 11.3335L11.9717 12.6402C11.0659 13.1532 10.9867 14.4281 11.822 15.0493L14.2565 16.8596C14.5091 17.0474 14.658 17.3436 14.658 17.6584V17.7329C14.658 17.9621 14.9054 18.1059 15.1045 17.9924L17.6221 16.5575C18.5278 16.0412 18.6021 14.7635 17.7622 14.1459L15.207 12.2666C14.6824 11.8808 14.7284 11.0828 15.2938 10.7598L17.6267 9.42709C18.531 8.91048 18.605 7.63446 17.7665 7.01683L15.3244 5.21815C15.0697 5.03052 14.9193 4.73299 14.9193 4.41661V4.35548C14.9193 4.12674 14.6727 3.98291 14.4736 4.09555Z" fill="#075A5A"/>
<path d="M8.98199 6.34531L6.47756 7.76222C5.5723 8.2744 5.49176 9.54785 6.32528 10.17L8.88235 12.0786C9.40318 12.4673 9.35302 13.263 8.7875 13.5833L6.48005 14.89C5.57425 15.403 5.49503 16.6779 6.33037 17.299L8.7649 19.1093C9.0175 19.2971 9.16639 19.5934 9.16639 19.9081V19.9827C9.16639 20.2118 9.41383 20.3556 9.61293 20.2422L12.1305 18.8072C13.0362 18.291 13.1104 17.0133 12.2706 16.3956L9.71535 14.5164C9.19076 14.1305 9.23674 13.3326 9.80216 13.0096L12.1351 11.6769C13.0394 11.1602 13.1134 9.88423 12.2748 9.26658L9.83282 7.4679C9.57808 7.28029 9.42769 6.98274 9.42769 6.66637V6.60524C9.42769 6.3765 9.18106 6.23267 8.98199 6.34531Z" fill="#075A5A"/>
</svg>
