<svg width="24" height="24" viewBox="0 0 24 24" fill="none" xmlns="http://www.w3.org/2000/svg">
<g clip-path="url(#clip0_2796_1591)">
<path d="M12 24C18.624 24 24 18.624 24 12C24 5.376 18.624 0 12 0C5.376 0 0 5.376 0 12C0 18.624 5.376 24 12 24Z" fill="#31CB9E"/>
<path d="M10.704 13.128L17.76 16.92C18 17.04 18.024 17.352 17.808 17.496L13.032 20.928C12.816 21.096 12.504 20.976 12.432 20.712L10.704 13.128ZM10.488 3.45602C10.776 3.26402 11.16 3.48002 11.088 3.81602L9.192 12L11.064 20.184C11.136 20.496 10.752 20.736 10.464 20.544L5.664 17.112C5.424 16.944 5.28 16.656 5.28 16.368V7.63202C5.28 7.34402 5.424 7.05602 5.664 6.88802L10.488 3.45602ZM18.216 8.13602C18.456 7.99202 18.792 8.16002 18.792 8.44802V15.552C18.792 15.816 18.48 15.984 18.216 15.864L11.04 12L18.216 8.13602ZM12.432 3.28802C12.48 3.02402 12.816 2.92802 13.032 3.07202L17.808 6.48002C18.024 6.62402 18 6.93602 17.76 7.05602L10.704 10.872L12.432 3.28802Z" fill="white"/>
</g>
<defs>
<clipPath id="clip0_2796_1591">
<rect width="24" height="24" fill="white"/>
</clipPath>
</defs>
</svg>
