<svg width="24" height="24" viewBox="0 0 24 24" fill="none" xmlns="http://www.w3.org/2000/svg">
<circle cx="12" cy="12" r="12" fill="white"/>
<g clip-path="url(#clip0_2794_1579)">
<path d="M6.14697 15.0776V19.1775C6.14697 19.4299 6.36057 19.5347 6.42703 19.5585C6.49349 19.5871 6.71657 19.649 6.91592 19.4633L10.0175 16.4826C10.2817 16.2288 10.5366 15.962 10.7281 15.6499C10.8183 15.5031 10.8557 15.4205 10.8557 15.4205C11.0456 15.0347 11.0456 14.6633 10.8604 14.2919C10.5852 13.7395 9.88261 13.1776 8.82406 12.6443L7.01561 13.6538C6.47925 13.9586 6.14697 14.4967 6.14697 15.0776Z" fill="#00378A"/>
<path d="M4.36365 5.95872V10.2587C4.36365 10.7967 4.7244 11.2729 5.23705 11.4253C6.98383 11.9301 10.0264 13.0157 10.7622 14.611C10.857 14.8205 10.914 15.0253 10.9331 15.2395C11.422 14.3491 11.6451 13.3253 11.5407 12.2872C11.3982 10.8158 10.6197 9.47772 9.40464 8.62536L5.07091 5.59206C4.99495 5.53492 4.90477 5.50635 4.81459 5.50635C4.73863 5.50635 4.67218 5.52063 4.60098 5.55873C4.45857 5.63968 4.36365 5.7873 4.36365 5.95872Z" fill="#2470FF"/>
<path d="M17.6829 15.0776V19.1775C17.6829 19.4299 17.4694 19.5347 17.4029 19.5585C17.3365 19.5871 17.1133 19.649 16.914 19.4633L13.7402 16.4133C13.5242 16.2056 13.3179 15.986 13.1551 15.7344C13.0262 15.5352 12.9743 15.4205 12.9743 15.4205C12.7844 15.0347 12.7844 14.6633 12.9694 14.2919C13.2448 13.7395 13.9474 13.1776 15.0057 12.6443L16.8143 13.6538C17.3554 13.9586 17.6829 14.4967 17.6829 15.0776Z" fill="#00378A"/>
<path d="M19.4692 5.95824V10.2582C19.4692 10.7962 19.1083 11.2724 18.5957 11.4248C16.849 11.9296 13.8064 13.0153 13.0706 14.6105C12.9756 14.82 12.9186 15.0248 12.8997 15.2391C12.4108 14.3486 12.1877 13.3248 12.2921 12.2867C12.4344 10.8153 13.2129 9.47724 14.4282 8.62486L18.7619 5.59157C18.8378 5.53443 18.928 5.50586 19.0182 5.50586C19.0941 5.50586 19.1606 5.52015 19.2317 5.55824C19.3741 5.63919 19.4692 5.78681 19.4692 5.95824Z" fill="#2470FF"/>
</g>
<defs>
<clipPath id="clip0_2794_1579">
<rect width="15.2727" height="14.2408" fill="white" transform="translate(4.36365 5.45459)"/>
</clipPath>
</defs>
</svg>
