<svg width="24" height="24" viewBox="0 0 24 24" fill="none" xmlns="http://www.w3.org/2000/svg">
<rect width="24" height="24" rx="12" fill="white"/>
<path d="M9.22352 20.0659C11.2247 20.0659 12.8471 18.4436 12.8471 16.4424C12.8471 14.4412 11.2247 12.8188 9.22352 12.8188C7.22229 12.8188 5.59998 14.4412 5.59998 16.4424C5.59998 18.4436 7.22229 20.0659 9.22352 20.0659Z" fill="#1E4480"/>
<mask id="mask0_2796_1717" style="mask-type:alpha" maskUnits="userSpaceOnUse" x="8" y="3" width="2" height="11">
<path fill-rule="evenodd" clip-rule="evenodd" d="M8.82495 13.6848V3.97363H9.63271V13.6848H8.82495Z" fill="white"/>
</mask>
<g mask="url(#mask0_2796_1717)">
<path d="M18.7733 10.1867C18.7733 13.8244 15.8244 16.7734 12.1867 16.7734C8.54902 16.7734 5.6001 13.8244 5.6001 10.1867C5.6001 6.54905 8.54902 3.6001 12.1867 3.6001C15.8244 3.6001 18.7733 6.54905 18.7733 10.1867Z" fill="white"/>
</g>
<path d="M12.1867 16.7734C15.8244 16.7734 18.7733 13.8244 18.7733 10.1867C18.7733 6.54904 15.8244 3.6001 12.1867 3.6001C8.54898 3.6001 5.60004 6.54904 5.60004 10.1867C5.60004 13.8244 8.54898 16.7734 12.1867 16.7734Z" fill="#DEDEDE"/>
<mask id="mask1_2796_1717" style="mask-type:alpha" maskUnits="userSpaceOnUse" x="5" y="3" width="14" height="14">
<path d="M12.1867 16.7734C15.8244 16.7734 18.7733 13.8244 18.7733 10.1867C18.7733 6.54904 15.8244 3.6001 12.1867 3.6001C8.54898 3.6001 5.60004 6.54904 5.60004 10.1867C5.60004 13.8244 8.54898 16.7734 12.1867 16.7734Z" fill="#DEDEDE"/>
</mask>
<g mask="url(#mask1_2796_1717)">
<path d="M9.22352 20.0662C11.2247 20.0662 12.8471 18.4439 12.8471 16.4426C12.8471 14.4414 11.2247 12.8191 9.22352 12.8191C7.22229 12.8191 5.59998 14.4414 5.59998 16.4426C5.59998 18.4439 7.22229 20.0662 9.22352 20.0662Z" fill="#152E51"/>
<mask id="mask2_2796_1717" style="mask-type:alpha" maskUnits="userSpaceOnUse" x="8" y="3" width="2" height="11">
<path fill-rule="evenodd" clip-rule="evenodd" d="M8.82495 13.6848V3.97363H9.63271V13.6848H8.82495Z" fill="#152E51"/>
</mask>
<g mask="url(#mask2_2796_1717)">
<path d="M18.7733 10.1867C18.7733 13.8244 15.8244 16.7734 12.1867 16.7734C8.54902 16.7734 5.6001 13.8244 5.6001 10.1867C5.6001 6.54905 8.54902 3.6001 12.1867 3.6001C15.8244 3.6001 18.7733 6.54905 18.7733 10.1867Z" fill="#152E51"/>
</g>
</g>
</svg>
