<svg width="24" height="24" viewBox="0 0 24 24" fill="none" xmlns="http://www.w3.org/2000/svg">
<g clip-path="url(#clip0_2796_1587)">
<path d="M12.0064 24.0001C5.44643 24.0193 -0.17277 18.6305 0.00643004 11.6481C0.16003 5.4209 5.31843 -0.185499 12.3968 0.00650096C18.5792 0.172901 24.2112 5.3057 23.9936 12.4417C23.808 18.6625 18.6944 23.9809 12.0064 24.0001ZM12.8192 13.0369C13.1648 13.3377 13.5552 13.5937 13.8496 13.9585C14.3296 14.5537 14.5664 15.2065 14.3872 15.9809C14.1248 17.0945 12.9344 18.2145 11.7056 18.2849C11.04 18.3233 10.4064 18.2017 9.85603 17.8241C8.72963 17.0497 8.25603 15.5777 8.67843 14.2785C8.83203 13.8113 8.83203 13.8113 9.26083 14.0097C9.26723 14.0161 9.27363 14.0161 9.28003 14.0225C9.43363 14.1121 9.47203 14.0481 9.46563 13.8945C9.44003 13.4977 9.44643 13.0945 9.40163 12.6977C9.35683 12.3201 9.38243 11.9361 9.29923 11.5649C9.22243 11.5585 9.17763 11.6097 9.12643 11.6417C8.56963 12.0065 8.01923 12.3713 7.46883 12.7361C7.14243 12.9537 7.14243 12.9601 7.50723 13.1329C7.66723 13.2097 7.71203 13.2737 7.62883 13.4529C7.27043 14.2465 7.16803 15.0785 7.30883 15.9361C7.52003 17.2033 8.12163 18.2209 9.21603 18.9313C10.1376 19.5329 11.1616 19.6801 12.224 19.5073C13.4528 19.3025 14.368 18.5921 15.0528 17.5809C16.1088 16.0129 15.9168 14.2401 14.6048 12.8833C13.7024 11.9553 12.512 11.5073 11.4368 10.8673C11.1936 10.6753 10.9504 10.4769 10.7456 10.2401C10.2016 9.6193 9.95843 8.9153 10.1504 8.0897C10.272 7.5649 10.5472 7.1169 10.8992 6.7137C12.0576 5.3825 13.6512 5.3185 14.8544 6.2721C15.6096 6.8737 16.3328 8.1281 15.7632 9.6513C15.5904 10.1121 15.6032 10.1185 15.168 9.9265C15.1616 9.9201 15.1552 9.9201 15.1488 9.9137C15.0336 9.8433 14.9952 9.8689 15.0016 10.0033C15.0272 10.4001 15.04 10.8033 15.0656 11.2001C15.0912 11.6033 15.136 12.0065 15.1744 12.4353C15.776 12.0385 16.3584 11.6545 16.9344 11.2705C17.056 11.1873 17.2672 11.1425 17.2608 11.0017C17.2544 10.8929 17.0368 10.8481 16.9088 10.7969C16.704 10.7201 16.6848 10.6177 16.7744 10.4193C17.3504 9.0945 17.376 7.7761 16.6272 6.5089C15.7568 5.0305 14.4512 4.3329 12.7296 4.4289C11.8592 4.4737 11.1296 4.8641 10.4896 5.4145C9.60643 6.1697 9.01123 7.0977 8.88963 8.2689C8.74883 9.6065 9.32483 10.6561 10.304 11.5201C11.0336 12.1729 11.9552 12.5505 12.8192 13.0369Z" fill="#E9EBFE"/>
<path d="M11.4177 10.8545C12.4929 11.4945 13.6897 11.9425 14.5857 12.8705C15.8977 14.2273 16.0897 16.0001 15.0337 17.5681C14.3489 18.5793 13.4337 19.2897 12.2049 19.4945C11.1425 19.6673 10.1249 19.5137 9.19685 18.9185C8.10885 18.2081 7.50085 17.1905 7.28965 15.9233C7.14885 15.0657 7.25125 14.2337 7.60965 13.4401C7.69285 13.2609 7.64805 13.1969 7.48805 13.1201C7.12325 12.9473 7.12965 12.9409 7.44965 12.7233C8.00005 12.3585 8.55685 11.9937 9.10725 11.6289C9.15845 11.5969 9.20325 11.5393 9.28005 11.5521C9.36325 11.9233 9.34405 12.3073 9.38245 12.6849C9.42725 13.0817 9.42725 13.4785 9.44645 13.8817C9.45285 14.0353 9.41445 14.0993 9.26085 14.0097C9.25445 14.0033 9.24805 14.0033 9.24165 13.9969C8.81285 13.7985 8.81285 13.7985 8.65925 14.2657C8.23685 15.5713 8.71045 17.0369 9.83685 17.8113C10.3873 18.1889 11.0209 18.3105 11.6865 18.2721C12.9217 18.2081 14.1057 17.0817 14.3681 15.9681C14.5537 15.1937 14.3169 14.5409 13.8305 13.9457C13.5361 13.5809 13.1457 13.3249 12.8001 13.0241C12.6785 12.6401 12.3969 12.3585 12.1921 12.0321C11.9553 11.6417 11.6289 11.2897 11.4177 10.8545Z" fill="#8C8EF9"/>
<path d="M11.4176 10.8545C11.6288 11.2833 11.9552 11.6417 12.2112 12.0449C12.4224 12.3713 12.6976 12.6529 12.8192 13.0369C11.9552 12.5505 11.0336 12.1793 10.2784 11.5137C9.29921 10.6497 8.72321 9.60007 8.86401 8.26247C8.98561 7.09127 9.58081 6.15687 10.464 5.40807C11.1104 4.85767 11.84 4.47367 12.704 4.42247C14.4256 4.32647 15.7312 5.03047 16.6016 6.50247C17.3504 7.76967 17.3312 9.08807 16.7488 10.4129C16.6592 10.6113 16.6784 10.7137 16.8832 10.7905C17.0112 10.8417 17.2288 10.8865 17.2352 10.9953C17.2416 11.1361 17.0304 11.1873 16.9088 11.2641C16.3328 11.6481 15.7568 12.0321 15.1488 12.4289C15.1104 12.0001 15.0656 11.5969 15.04 11.1937C15.0144 10.7969 15.0016 10.3937 14.976 9.99687C14.9696 9.86247 15.008 9.83687 15.1232 9.90727C15.1296 9.91367 15.136 9.91367 15.1424 9.92007C15.5776 10.1121 15.5648 10.1057 15.7376 9.64487C16.3072 8.12167 15.584 6.86727 14.8288 6.26567C13.6256 5.30567 12.032 5.37607 10.8736 6.70727C10.5216 7.11047 10.2464 7.55847 10.1248 8.08327C9.93281 8.90887 10.176 9.61287 10.72 10.2337C10.9312 10.4705 11.1744 10.6625 11.4176 10.8545Z" fill="#51559C"/>
</g>
<defs>
<clipPath id="clip0_2796_1587">
<rect width="24" height="24" fill="white"/>
</clipPath>
</defs>
</svg>
