<svg width="24" height="24" viewBox="0 0 24 24" fill="none" xmlns="http://www.w3.org/2000/svg">
<g clip-path="url(#clip0_2799_1588)">
<path d="M12 24C18.6274 24 24 18.6274 24 12C24 5.37258 18.6274 0 12 0C5.37258 0 0 5.37258 0 12C0 18.6274 5.37258 24 12 24Z" fill="#0657F9"/>
<path fill-rule="evenodd" clip-rule="evenodd" d="M6.99386 4.72642L6.04714 5.68897L8.35568 8.03528L10.6642 10.3816V12.5665V14.7514H12.0051H13.346V12.5666V10.3818L15.6546 8.03516L17.9632 5.68853L17.0093 4.71926L16.0553 3.75L14.044 5.79424C12.9377 6.9186 12.0201 7.83851 12.005 7.83851C11.9897 7.83851 11.0754 6.92171 9.97301 5.80118C8.87063 4.68064 7.96241 3.76384 7.95465 3.76384C7.94693 3.76384 7.51459 4.19696 6.99386 4.72642ZM6.00218 10.2035C5.66636 10.7946 5.35688 11.847 5.2716 12.6878C5.22949 13.1025 5.25176 14.0076 5.31401 14.4142C5.89654 18.2189 9.43241 20.805 13.1534 20.1479C15.6064 19.7148 17.6235 17.9559 18.4076 15.5664C18.6656 14.78 18.7492 14.2482 18.75 13.3885C18.7509 12.458 18.6466 11.8395 18.3449 10.9859C18.2415 10.6931 17.9754 10.1147 17.9441 10.1147C17.9316 10.1147 17.4688 10.5748 16.9157 11.1372C15.9857 12.0827 15.911 12.1657 15.9239 12.2402C15.9316 12.2844 15.9582 12.4133 15.9829 12.5265C16.0548 12.8556 16.0829 13.301 16.0551 13.6722C16.0259 14.0623 15.9798 14.3027 15.863 14.6731C15.4883 15.8622 14.4957 16.8807 13.3104 17.2924C12.8577 17.4496 12.6036 17.4884 12.0189 17.4897C11.4245 17.491 11.2004 17.4589 10.7397 17.3065C9.48638 16.8922 8.46503 15.8232 8.09719 14.5407C7.97775 14.1241 7.9434 13.858 7.94494 13.3604C7.94637 12.8978 7.96092 12.7794 8.08294 12.2364C8.09277 12.1926 7.87069 11.9519 7.07554 11.1449L6.05554 10.1095L6.00218 10.2035Z" fill="white"/>
</g>
<defs>
<clipPath id="clip0_2799_1588">
<rect width="24" height="24" fill="white"/>
</clipPath>
</defs>
</svg>
