<svg width="24" height="24" viewBox="0 0 24 24" fill="none" xmlns="http://www.w3.org/2000/svg">
<g clip-path="url(#clip0_2634_1799)">
<path d="M24 12C24 5.37258 18.6274 0 12 0C5.37258 0 0 5.37258 0 12C0 18.6274 5.37258 24 12 24C18.6274 24 24 18.6274 24 12Z" fill="#092306"/>
<path fill-rule="evenodd" clip-rule="evenodd" d="M2.34375 12.0239C2.34375 6.67758 6.66483 2.34375 11.9945 2.34375C17.3251 2.34375 21.6463 6.67758 21.6458 12.0234C21.6458 13.917 21.1035 15.6834 20.1666 17.175C19.9083 17.586 19.6206 17.976 19.3052 18.3428L12.0074 11.0233L5.73178 17.3169L4.69566 18.3561C4.37941 17.9903 4.09071 17.6007 3.83239 17.1902C2.88935 15.6958 2.34375 13.9237 2.34375 12.0239ZM19.0602 15.7958L19.1486 15.6186L19.149 15.6191C19.7027 14.5113 19.9952 13.2679 19.9952 12.0239C19.9952 7.59961 16.4063 4.00013 11.995 4.00013C7.58367 4.00013 3.99526 7.59961 3.99526 12.0239C3.99526 13.2745 4.29062 14.5232 4.8495 15.6353L4.93833 15.8115L12.0074 8.72161L19.0602 15.7958ZM11.9949 21.7031C14.3976 21.7031 16.5957 20.8225 18.2852 19.3652V19.3648L12.0077 13.0688L5.71837 19.3762C7.4055 20.8273 9.59217 21.7031 11.9949 21.7031Z" fill="url(#paint0_linear_2634_1799)"/>
</g>
<defs>
<linearGradient id="paint0_linear_2634_1799" x1="11.9948" y1="2.34375" x2="12.0234" y2="21.7031" gradientUnits="userSpaceOnUse">
<stop stop-color="#169E00"/>
<stop offset="0.49" stop-color="#00C537"/>
<stop offset="1" stop-color="#00B1C9"/>
</linearGradient>
<clipPath id="clip0_2634_1799">
<rect width="24" height="24" fill="white"/>
</clipPath>
</defs>
</svg>
